<svg width="80" height="80" viewBox="0 0 80 80" fill="none" xmlns="http://www.w3.org/2000/svg">
<g opacity="0.79">
<path d="M68.5518 19.4375C70.8581 19.4375 72.7277 17.5678 72.7277 15.2615C72.7277 12.9552 70.8581 11.0856 68.5518 11.0856C66.2455 11.0856 64.3759 12.9552 64.3759 15.2615C64.3759 17.5678 66.2455 19.4375 68.5518 19.4375Z" fill="#EBEBEB"/>
<path d="M68.743 19.3395C70.9437 19.3395 72.7277 17.5555 72.7277 15.3548C72.7277 13.154 70.9437 11.37 68.743 11.37C66.5422 11.37 64.7582 13.154 64.7582 15.3548C64.7582 17.5555 66.5422 19.3395 68.743 19.3395Z" fill="#DBDBDB"/>
<path d="M72.46 15.6612C72.6293 13.6071 71.1013 11.8047 69.0471 11.6354C66.993 11.4662 65.1906 12.9942 65.0213 15.0483C64.8521 17.1025 66.3801 18.9049 68.4342 19.0741C70.4884 19.2434 72.2908 17.7154 72.46 15.6612Z" fill="white"/>
<path opacity="0.5" d="M72.3912 14.5631C70.6927 15.5917 67.8993 17.2823 66.3366 18.2082C65.8958 17.8356 65.5471 17.3663 65.3175 16.8367L70.481 12.0509C70.9636 12.3047 71.3847 12.6611 71.7147 13.0951C72.0447 13.5292 72.2756 14.0302 72.3912 14.5631Z" fill="#EBEBEB"/>
<path opacity="0.5" d="M72.4734 15.4922C72.4603 15.9077 72.377 16.318 72.2269 16.7056L67.5722 18.9066C67.3692 18.8404 67.1725 18.7564 66.9844 18.6553C68.3906 17.8337 70.9597 16.3549 72.4734 15.4922Z" fill="#EBEBEB"/>
<path d="M68.7809 11.8929H68.7082V12.4586H68.7809V11.8929Z" fill="#C7C7C7"/>
<path d="M67.0444 12.3357L66.9814 12.3721L67.2643 12.8619L67.3272 12.8256L67.0444 12.3357Z" fill="#C7C7C7"/>
<path d="M65.7602 13.5888L65.7238 13.6517L66.2137 13.9346L66.25 13.8716L65.7602 13.5888Z" fill="#C7C7C7"/>
<path d="M65.8484 15.3184H65.2828V15.391H65.8484V15.3184Z" fill="#C7C7C7"/>
<path d="M66.2162 16.7683L65.7263 17.0511L65.7627 17.1141L66.2525 16.8313L66.2162 16.7683Z" fill="#C7C7C7"/>
<path d="M67.2677 17.8476L66.9851 18.3376L67.0481 18.374L67.3306 17.8839L67.2677 17.8476Z" fill="#C7C7C7"/>
<path d="M68.7809 18.2509H68.7082V18.8165H68.7809V18.2509Z" fill="#C7C7C7"/>
<path d="M70.224 17.844L70.1611 17.8804L70.4439 18.3702L70.5069 18.3339L70.224 17.844Z" fill="#C7C7C7"/>
<path d="M71.2664 16.7676L71.23 16.8306L71.7199 17.1134L71.7562 17.0504L71.2664 16.7676Z" fill="#C7C7C7"/>
<path d="M72.2047 15.3184H71.6391V15.391H72.2047V15.3184Z" fill="#C7C7C7"/>
<path d="M71.7232 13.5901L71.2334 13.873L71.2697 13.936L71.7595 13.6531L71.7232 13.5901Z" fill="#C7C7C7"/>
<path d="M70.4426 12.339L70.16 12.829L70.223 12.8653L70.5056 12.3753L70.4426 12.339Z" fill="#C7C7C7"/>
<path d="M68.7983 12.1489L68.9215 15.606L68.566 15.6012L68.7019 12.1473L68.7983 12.1489Z" fill="#C7C7C7"/>
<path d="M70.9518 14.1492L68.6261 15.6328L68.457 15.3231L70.906 14.0638L70.9518 14.1492Z" fill="#A6A6A6"/>
<path d="M68.8646 15.3547C68.8646 15.3788 68.8575 15.4023 68.8441 15.4223C68.8308 15.4423 68.8118 15.4579 68.7895 15.4671C68.7673 15.4763 68.7428 15.4787 68.7192 15.474C68.6956 15.4693 68.674 15.4577 68.6569 15.4407C68.6399 15.4237 68.6283 15.402 68.6236 15.3784C68.619 15.3548 68.6214 15.3304 68.6306 15.3081C68.6398 15.2859 68.6554 15.2669 68.6754 15.2535C68.6954 15.2402 68.7189 15.233 68.743 15.233C68.7752 15.233 68.8062 15.2458 68.829 15.2687C68.8518 15.2915 68.8646 15.3224 68.8646 15.3547Z" fill="#C7C7C7"/>
<path d="M54.6968 52.9872C54.6968 52.9872 57.1711 52.4263 58.5267 51.1781C59.8823 49.9299 60.6392 47.691 60.6392 47.691C59.6989 47.8707 58.7719 48.114 57.8647 48.4194C57.5251 48.769 57.242 49.1693 57.0257 49.606C57.0049 49.3236 57.0049 49.04 57.0257 48.7575C56.7093 48.8945 56.4132 49.0741 56.1456 49.2916C55.0144 50.2759 54.6968 52.9872 54.6968 52.9872Z" fill="#DBDBDB"/>
<path d="M59.0955 48.7781C59.432 48.5442 59.7749 48.3199 60.1114 48.0844C60.1158 48.0817 60.119 48.0774 60.1202 48.0723C60.1214 48.0673 60.1205 48.062 60.1178 48.0576C60.115 48.0532 60.1107 48.05 60.1056 48.0489C60.1006 48.0477 60.0953 48.0485 60.0909 48.0513C59.4589 48.432 58.8269 48.8413 58.217 49.2647C58.0053 49.4132 57.7967 49.5681 57.585 49.7261L57.6277 49.6518C57.702 49.5286 57.7857 49.4069 57.8584 49.2852C58.0136 49.0369 58.1896 48.8023 58.3845 48.5837C58.3845 48.5758 58.3845 48.5632 58.3719 48.5727C58.1791 48.7939 57.9863 49.0135 57.811 49.2489C57.7272 49.3611 57.653 49.478 57.5755 49.5965C57.5376 49.6581 57.4997 49.7197 57.4649 49.7829L57.427 49.8461C57.111 50.0974 56.795 50.3596 56.4996 50.6361C56.3163 50.8078 56.1388 50.9848 55.9671 51.167C56.0635 50.8684 56.1472 50.565 56.2578 50.2712C56.2578 50.2691 56.257 50.2671 56.2555 50.2656C56.254 50.2641 56.252 50.2633 56.2499 50.2633C56.2478 50.2633 56.2458 50.2641 56.2443 50.2656C56.2429 50.2671 56.242 50.2691 56.242 50.2712C56.1346 50.5872 56.0161 50.8905 55.926 51.2097C55.7364 51.414 55.5563 51.6247 55.3857 51.8417C55.3857 51.829 55.3857 51.8148 55.3936 51.8022C55.422 51.6853 55.452 51.5683 55.482 51.453C55.5421 51.2286 55.6084 51.0074 55.6843 50.7878C55.8264 50.3319 56.0514 49.9061 56.3479 49.5317C56.3558 49.5238 56.3479 49.5128 56.3368 49.5207C55.8728 50.0983 55.5483 50.7753 55.3888 51.4988C55.3614 51.6042 55.3362 51.7095 55.313 51.8148C55.3003 51.8701 55.2861 51.9286 55.2767 51.9855C55.2008 52.0908 55.1281 52.1935 55.0586 52.2936C54.6364 52.9385 54.2852 53.6271 54.0111 54.3476C53.7035 55.1565 53.4398 55.9814 53.2211 56.8187C53.2211 56.822 53.2224 56.8253 53.2248 56.8276C53.2271 56.83 53.2304 56.8313 53.2337 56.8313C53.2371 56.8313 53.2403 56.83 53.2426 56.8276C53.245 56.8253 53.2463 56.822 53.2463 56.8187C53.7314 55.3714 54.2244 53.9036 55.0523 52.6096C55.2275 52.3369 55.4163 52.0733 55.6179 51.8196C56.0274 51.7919 56.4316 51.7112 56.8203 51.5794C57.245 51.4364 57.6501 51.2405 58.0258 50.9964C58.2405 50.8529 58.4467 50.6973 58.6436 50.5303C58.6531 50.5224 58.6436 50.5097 58.6342 50.5176C58.2883 50.7959 57.9068 51.0265 57.4997 51.2034C57.0997 51.3868 56.6813 51.5272 56.2515 51.6221C56.0698 51.6616 55.8849 51.6916 55.6985 51.7169C55.9275 51.4346 56.1712 51.1646 56.4285 50.9079C56.5122 50.8242 56.5975 50.7499 56.6844 50.6646C56.9724 50.463 57.2781 50.2879 57.5977 50.1416C58.0037 49.9457 58.4019 49.7371 58.8032 49.5333C59.0307 49.418 59.2551 49.301 59.4826 49.1889C59.4921 49.1889 59.4826 49.1699 59.4747 49.1746C59.0671 49.3706 58.6547 49.5554 58.2439 49.7434C57.8584 49.9188 57.4681 50.0974 57.0968 50.3059L57.0494 50.3328C57.3844 50.0421 57.732 49.764 58.0875 49.4954C58.4214 49.2521 58.7574 49.013 59.0955 48.7781Z" fill="#A6A6A6"/>
<path d="M58.9549 50.0531C58.7526 50.1415 58.5488 50.219 58.3497 50.3122C58.1506 50.4054 57.95 50.5207 57.7557 50.6361C57.7478 50.6361 57.7557 50.6519 57.7636 50.6487C57.9611 50.5539 58.1601 50.4654 58.3561 50.3675C58.552 50.2695 58.7542 50.1589 58.9596 50.0689C58.9691 50.0657 58.9644 50.0483 58.9549 50.0531Z" fill="#A6A6A6"/>
<path d="M46.6641 40.5226C47.1207 41.1122 47.379 41.8312 47.4019 42.5766C47.4114 42.7978 47.3751 43.1075 47.3498 43.4709C47.9673 43.8288 48.5145 44.2962 48.9645 44.8502C48.4703 44.5635 47.9029 44.4278 47.3324 44.4599C47.3462 44.7084 47.3779 44.9555 47.4272 45.1994C47.7871 45.1988 48.1436 45.2692 48.4763 45.4064C48.1507 45.4023 47.8278 45.4663 47.5283 45.5944C47.9691 46.9974 49.2805 48.4384 52.9003 49.0498C53.2834 47.3294 53.0566 45.5292 52.2588 43.9575C51.175 41.8245 46.6641 40.5226 46.6641 40.5226Z" fill="#DBDBDB"/>
<path d="M54.1517 55.0523C54.0906 54.4529 54.0126 53.8557 53.9178 53.2606C53.7348 52.0682 53.4911 50.8858 53.1879 49.7182C53.0473 49.17 52.8737 48.6307 52.6681 48.1034C52.6791 48.0075 52.6839 47.9109 52.6823 47.8143C52.6823 47.6974 52.6823 47.582 52.6823 47.4651C52.6823 47.2344 52.6696 47.0022 52.6491 46.7715C52.6121 46.3138 52.5376 45.8598 52.4263 45.4143C52.36 45.1567 52.2841 44.9024 52.2083 44.648C52.2083 44.6459 52.2074 44.6439 52.206 44.6424C52.2045 44.6409 52.2025 44.6401 52.2004 44.6401C52.1983 44.6401 52.1963 44.6409 52.1948 44.6424C52.1933 44.6439 52.1925 44.6459 52.1925 44.648C52.3122 45.0927 52.4014 45.5451 52.4595 46.002C52.5237 46.4525 52.5644 46.9061 52.5812 47.3608C52.5812 47.4857 52.5812 47.6089 52.5812 47.7337C52.5812 47.7859 52.5812 47.8396 52.5812 47.8917C52.4041 47.4585 52.201 47.0364 51.9729 46.6277C51.6046 45.9809 51.1901 45.3615 50.7326 44.7744C50.7317 44.706 50.7222 44.6381 50.7041 44.5721C50.6867 44.4916 50.6694 44.4141 50.6504 44.3304C50.6135 44.165 50.5724 44.0007 50.5272 43.8374C50.4371 43.5088 50.3186 43.1928 50.2112 42.8689C50.2112 42.8668 50.2103 42.8648 50.2088 42.8633C50.2074 42.8618 50.2053 42.861 50.2033 42.861C50.2012 42.861 50.1992 42.8618 50.1977 42.8633C50.1962 42.8648 50.1954 42.8668 50.1954 42.8689C50.2917 43.1849 50.3534 43.5214 50.4276 43.8469C50.464 44.0049 50.5003 44.1629 50.5351 44.332L50.5872 44.5753C50.5866 44.5811 50.5866 44.5869 50.5872 44.5927C50.4403 44.4078 50.2917 44.2261 50.1385 44.0476C49.448 43.237 48.6896 42.4897 47.9265 41.7471C47.8333 41.6555 47.7369 41.567 47.6421 41.4769C47.6342 41.469 47.6231 41.4769 47.631 41.4896C48.3594 42.2495 49.0767 43.019 49.7561 43.8232C49.9141 44.0144 50.0721 44.2087 50.2301 44.4047C50.148 44.3478 50.0721 44.2941 49.9836 44.2467C49.7735 44.1092 49.5602 43.9749 49.3406 43.8517C49.121 43.7284 48.8998 43.6083 48.6738 43.4977C48.4479 43.3871 48.1998 43.2876 47.9691 43.158C47.9597 43.158 47.9518 43.1691 47.9612 43.1723C48.1898 43.2785 48.4106 43.401 48.6217 43.5388C48.8413 43.67 49.0625 43.8011 49.2774 43.9386C49.4923 44.076 49.704 44.2056 49.9094 44.343C50.0863 44.4584 50.2586 44.5832 50.4418 44.6875C50.8613 45.2272 51.2486 45.7912 51.6016 46.3765C51.8201 46.7449 52.0199 47.124 52.2004 47.5125L52.0708 47.4556L51.739 47.3087L51.0991 47.029C50.6931 46.8537 50.2807 46.6909 49.8825 46.4966C49.6581 46.3915 49.4411 46.2711 49.2331 46.1363C49.2237 46.1363 49.2158 46.1442 49.2252 46.1506C49.9663 46.6625 50.8052 47.0227 51.6205 47.3861L51.976 47.5441C52.074 47.5868 52.1719 47.6358 52.2731 47.6737C52.5161 48.2174 52.7204 48.7776 52.8845 49.3501C53.2092 50.5025 53.4729 51.6712 53.6745 52.8513C53.8815 54.0332 54.0221 55.2213 54.1311 56.419C54.1438 56.5675 54.158 56.7176 54.1738 56.8661C54.1738 56.8787 54.1788 56.8907 54.1877 56.8996C54.1966 56.9085 54.2086 56.9135 54.2212 56.9135C54.2338 56.9135 54.2458 56.9085 54.2547 56.8996C54.2636 56.8907 54.2686 56.8787 54.2686 56.8661C54.2781 56.2562 54.2149 55.6558 54.1517 55.0523Z" fill="#A6A6A6"/>
<path d="M51.9507 45.0571C51.8844 44.6905 51.7927 44.3303 51.6869 43.9701C51.6869 43.968 51.686 43.966 51.6846 43.9645C51.6831 43.963 51.6811 43.9622 51.679 43.9622C51.6769 43.9622 51.6749 43.963 51.6734 43.9645C51.6719 43.966 51.6711 43.968 51.6711 43.9701C51.7627 44.324 51.8291 44.6842 51.8939 45.0429C51.9586 45.4015 52.0218 45.776 52.074 46.1489H52.0835C52.0598 45.7827 52.0155 45.4182 51.9507 45.0571Z" fill="#A6A6A6"/>
<path d="M50.3913 46.0557C50.1383 45.8904 49.8744 45.7426 49.6013 45.6133C49.4686 45.5454 49.3343 45.4806 49.2015 45.4158C49.0688 45.351 48.9203 45.2925 48.7844 45.2246C48.7749 45.2246 48.7655 45.2341 48.7765 45.2388C48.9077 45.3052 49.0341 45.3858 49.1636 45.4569L49.5649 45.6765C49.8254 45.8279 50.0933 45.966 50.3676 46.0905C50.3722 46.0936 50.3779 46.0948 50.3833 46.0937C50.3888 46.0927 50.3937 46.0895 50.3968 46.0849C50.4 46.0803 50.4011 46.0746 50.4001 46.0692C50.3991 46.0637 50.3959 46.0588 50.3913 46.0557Z" fill="#A6A6A6"/>
<path opacity="0.1" d="M54.7426 48.7022C54.7426 48.7022 57.0304 48.1555 58.0811 46.6197C59.086 45.1535 59.4099 42.6539 59.4352 42.4343C59.3941 42.6366 58.9217 44.8201 57.3638 45.8376C56.1709 46.6182 55.0175 47.2596 54.7426 48.7022Z" fill="#A6A6A6"/>
<path d="M56.855 44.7475C56.448 45.1219 56.1554 45.604 56.0113 46.1379C56.1801 45.6171 56.471 45.1441 56.8598 44.7586C56.874 44.7523 56.8629 44.7396 56.855 44.7475Z" fill="#A6A6A6"/>
<path d="M54.7426 48.7022C54.7426 48.7022 57.0304 48.1556 58.0811 46.6198C59.086 45.1536 59.4099 42.654 59.4352 42.4344C59.436 42.4291 59.436 42.4238 59.4352 42.4186C59.4352 42.4186 58.3292 43.9796 57.1837 44.3778C56.0382 44.7759 54.4061 46.1521 54.7426 48.7022Z" fill="#DBDBDB"/>
<path d="M59.0323 43.2796C58.8276 43.7005 58.5909 44.1051 58.3244 44.4899C58.0554 44.8556 57.7363 45.1816 57.3764 45.4584C57.0604 45.7049 56.7444 45.9324 56.4284 46.171L56.4364 46.1599C56.4948 46.0715 56.558 45.9877 56.6244 45.904C56.7539 45.7365 56.8977 45.5785 57.0415 45.4221C57.3259 45.114 57.6166 44.8106 57.871 44.4741C58.013 44.2892 58.1363 44.0908 58.2391 43.8816C58.2391 43.8721 58.2281 43.8674 58.2233 43.8816C57.852 44.6558 57.1094 45.1456 56.5817 45.8029C56.5061 45.8954 56.4354 45.992 56.37 46.092C56.3172 46.1648 56.2727 46.2432 56.2373 46.3258C55.9477 46.5584 55.6858 46.8235 55.4568 47.1158C55.4768 46.9659 55.5074 46.8175 55.5484 46.6719C55.6013 46.4679 55.6833 46.2727 55.7917 46.092C55.7917 46.0825 55.7822 46.073 55.7775 46.0825C55.6663 46.2637 55.5767 46.4572 55.5105 46.6592C55.4622 46.82 55.434 46.9861 55.4267 47.1538C55.3142 47.3052 55.2113 47.4635 55.1186 47.6278L55.1471 47.4808C55.1913 47.2533 55.2419 47.0258 55.3051 46.7998C55.4128 46.3416 55.5988 45.9055 55.8549 45.5106C55.8549 45.5106 55.847 45.4932 55.8407 45.5011C55.5788 45.8915 55.3735 46.3171 55.2308 46.7651C55.1581 46.9894 55.0997 47.2185 55.0491 47.4476C55.0238 47.5614 55.0001 47.6736 54.9796 47.7873C54.9685 47.8458 54.9559 47.9058 54.9464 47.9659C54.7196 48.4645 54.5423 48.9842 54.4171 49.5174C54.1937 50.472 54.0317 51.4399 53.9321 52.4152C53.8131 53.435 53.7603 54.4616 53.7741 55.4883C53.7741 55.6162 53.7835 55.7458 53.7899 55.8738C53.7899 55.907 53.842 55.9117 53.8436 55.8738C53.8657 55.365 53.8783 54.8578 53.9084 54.3507C53.9384 53.8435 53.9826 53.3347 54.0379 52.8291C54.1405 51.8346 54.2988 50.8466 54.5119 49.8698C54.6968 49.034 54.9369 48.1902 55.3951 47.4571C55.6228 47.0927 55.9011 46.7623 56.2215 46.4759C56.5375 46.1884 56.893 45.9356 57.2311 45.6686C57.5736 45.4084 57.8849 45.1093 58.1586 44.7774C58.4378 44.4075 58.6811 44.0117 58.8854 43.5956L59.0434 43.2796C59.0513 43.2796 59.037 43.2701 59.0323 43.2796Z" fill="#A6A6A6"/>
<path d="M46.3481 47.691C46.3481 47.691 46.3117 50.9427 48.2567 51.8812C50.2017 52.8197 51.2429 52.0392 52.5654 52.3552C52.5148 52.2778 51.5715 50.9221 50.0705 50.5477C48.5206 50.1606 46.811 49.0451 46.3481 47.691Z" fill="#DBDBDB"/>
<path opacity="0.1" d="M46.3481 47.691C46.3481 47.691 46.3117 50.9427 48.2567 51.8812C50.2017 52.8197 51.2429 52.0392 52.5654 52.3552C51.8672 52.0219 51.1206 51.8017 50.3534 51.7027C49.121 51.5526 46.7778 50.7531 46.3481 47.691Z" fill="#A6A6A6"/>
<path d="M52.6886 52.4105C52.457 52.1999 52.1963 52.0237 51.9144 51.8875C51.8733 51.867 51.8307 51.8512 51.788 51.8338C51.7453 51.8164 51.7453 51.7832 51.7232 51.758C51.6648 51.6979 51.6031 51.6395 51.5399 51.5842C51.4179 51.479 51.2868 51.3849 51.1481 51.3029C50.8321 51.1133 50.4734 50.9869 50.1432 50.8052C50.1337 50.8052 50.1258 50.8147 50.1432 50.8194C50.3012 50.9032 50.4592 50.9964 50.6172 51.0896C50.7752 51.1828 50.9332 51.265 51.0786 51.3614C51.2143 51.4478 51.3432 51.5444 51.4641 51.6505C51.4989 51.6805 51.5305 51.7137 51.5636 51.7469C51.3488 51.6735 51.1292 51.6149 50.9064 51.5715C50.5509 51.4988 50.1906 51.4483 49.8351 51.3724C49.6605 51.3354 49.4881 51.2889 49.3185 51.2334C49.1605 51.1038 49.0025 50.9743 48.8445 50.8336C48.6594 50.6639 48.4906 50.4772 48.3404 50.2759C48.3404 50.2759 48.3199 50.2759 48.3262 50.2854C48.5624 50.6044 48.8297 50.8992 49.1241 51.1655C49.0404 51.1323 48.9566 51.0991 48.8761 51.0612C48.2079 50.7623 47.6346 50.2857 47.2186 49.6834C47.2186 49.6739 47.1981 49.6834 47.2044 49.6913C47.5572 50.2086 48.0134 50.6471 48.5443 50.979C48.81 51.1452 49.0942 51.2799 49.3911 51.3803C49.7364 51.4868 50.0885 51.5697 50.445 51.6284C50.7938 51.6855 51.138 51.7673 51.4752 51.8733C51.7852 51.979 52.0768 52.1326 52.3394 52.3283C52.8351 52.7131 53.2343 53.2081 53.5055 53.774C53.8523 54.5219 54.0692 55.3233 54.1469 56.144C54.1469 56.1788 54.2054 56.1788 54.2022 56.144C54.1074 54.7837 53.7425 53.3601 52.6886 52.4105Z" fill="#A6A6A6"/>
<path d="M50.4308 51.3582C50.3294 51.2065 50.1921 51.0822 50.031 50.9964C49.8473 50.8998 49.6858 50.7658 49.557 50.603C49.557 50.5935 49.5365 50.603 49.5428 50.6109C49.6598 50.7599 49.802 50.8872 49.9631 50.9869C50.1399 51.081 50.2958 51.21 50.4213 51.3661L50.4308 51.3582Z" fill="#A6A6A6"/>
<path d="M51.4641 54.812L51.5526 56.6006L51.8228 62.0658H55.9023L56.1741 56.6006L56.2626 54.812H51.4641Z" fill="#EBEBEB"/>
<path d="M51.4641 54.812L51.5526 56.6006H56.1741L56.2626 54.812H51.4641Z" fill="#DBDBDB"/>
<path d="M51.1781 55.7727H56.5501V54.0663H51.1781V55.7727Z" fill="#EBEBEB"/>
<path d="M13.0101 27.0783L12.3085 28.6251L12.7825 28.8384C12.8505 28.87 12.9083 28.9198 12.9496 28.9823C12.9909 29.0448 13.014 29.1175 13.0164 29.1924C13.0164 29.2761 13.029 29.3598 13.0417 29.4452C13.0533 29.5184 13.0448 29.5935 13.0169 29.6623C12.9891 29.731 12.943 29.7909 12.8837 29.8354L12.4602 30.1372L13.4493 31.5181L13.8727 31.2163C13.9335 31.173 14.0051 31.1474 14.0796 31.1423C14.1541 31.1373 14.2285 31.1531 14.2946 31.1879C14.3695 31.2273 14.4465 31.2627 14.5253 31.2938C14.5951 31.3203 14.6562 31.3657 14.702 31.4248C14.7477 31.4839 14.7762 31.5544 14.7844 31.6287L14.835 32.147L16.524 31.9795L16.4734 31.4597C16.4666 31.3855 16.4806 31.3108 16.5138 31.2441C16.547 31.1775 16.5981 31.1213 16.6614 31.082L16.7657 31.0109C16.7989 30.9872 16.8337 30.962 16.8653 30.9351C16.9227 30.8879 16.9921 30.8576 17.0658 30.8476C17.1394 30.8375 17.2144 30.8481 17.2824 30.8782L17.7564 31.0947L18.4579 29.5479L17.9839 29.333C17.916 29.3012 17.8581 29.2514 17.8166 29.189C17.7751 29.1266 17.7515 29.054 17.7485 28.9791C17.7453 28.8949 17.7374 28.8111 17.7248 28.7278C17.7129 28.6546 17.7214 28.5794 17.7492 28.5106C17.7771 28.4418 17.8233 28.382 17.8828 28.3376L18.3062 28.0342L17.3171 26.6533L16.8937 26.9567C16.8328 26.9998 16.7611 27.0251 16.6866 27.0299C16.6121 27.0346 16.5377 27.0186 16.4718 26.9835C16.3973 26.9454 16.3208 26.9111 16.2427 26.8808C16.1744 26.8545 16.1145 26.8099 16.0697 26.752C16.0248 26.6941 15.9967 26.625 15.9884 26.5522L15.9362 26.0339L14.2472 26.2014L14.2978 26.7197C14.3037 26.7919 14.29 26.8645 14.258 26.9296C14.226 26.9947 14.1769 27.0499 14.1161 27.0894C14.0801 27.1112 14.0453 27.135 14.0118 27.1605C13.977 27.1842 13.9438 27.2095 13.9107 27.2347C13.8533 27.2826 13.7837 27.3135 13.7097 27.3238C13.6357 27.3342 13.5602 27.3236 13.492 27.2932L13.0101 27.0783ZM14.5727 27.9552C14.796 27.794 15.0622 27.7026 15.3375 27.6927C15.6128 27.6828 15.8848 27.7548 16.1192 27.8996C16.3535 28.0444 16.5396 28.2555 16.654 28.5061C16.7683 28.7567 16.8057 29.0356 16.7614 29.3075C16.7171 29.5794 16.5931 29.8321 16.4052 30.0335C16.2173 30.2349 15.9738 30.376 15.7056 30.4389C15.4374 30.5019 15.1566 30.4838 14.8987 30.3871C14.6407 30.2903 14.4173 30.1192 14.2567 29.8955C14.0415 29.596 13.9541 29.2234 14.0137 28.8596C14.0733 28.4957 14.2749 28.1704 14.5743 27.9552H14.5727Z" fill="#EBEBEB"/>
<path d="M69.2581 42.6334L68.2279 43.2275L68.4096 43.5435C68.4357 43.589 68.4487 43.6409 68.447 43.6934C68.4453 43.7458 68.4291 43.7968 68.4001 43.8405C68.3685 43.8895 68.3385 43.9417 68.3116 43.9985C68.2884 44.0455 68.2526 44.085 68.2083 44.1129C68.1639 44.1408 68.1128 44.1559 68.0604 44.1565H67.6954V45.3463H68.0604C68.1128 45.3469 68.1639 45.362 68.2083 45.3899C68.2526 45.4178 68.2884 45.4574 68.3116 45.5043C68.3382 45.5585 68.3677 45.6113 68.4001 45.6623C68.4291 45.706 68.4453 45.757 68.447 45.8095C68.4487 45.8619 68.4357 45.9138 68.4096 45.9593L68.2279 46.2753L69.2581 46.8694L69.4413 46.5534C69.468 46.5083 69.5066 46.4715 69.5529 46.4469C69.5992 46.4224 69.6513 46.4111 69.7036 46.4144H69.7905H69.879C69.9309 46.4113 69.9826 46.4225 70.0285 46.4467C70.0745 46.4709 70.1129 46.5073 70.1397 46.5518L70.323 46.8678L71.3531 46.2737L71.1714 45.9577C71.1452 45.9122 71.1323 45.8602 71.1342 45.8076C71.1362 45.7551 71.1529 45.7042 71.1825 45.6607C71.2149 45.6097 71.2445 45.557 71.271 45.5027C71.294 45.4556 71.3297 45.4158 71.3741 45.3879C71.4184 45.3599 71.4698 45.345 71.5222 45.3447H71.8856V44.155H71.5222C71.4698 44.1547 71.4184 44.1397 71.3741 44.1118C71.3297 44.0839 71.294 44.0441 71.271 43.997C71.2441 43.9448 71.2141 43.8943 71.1825 43.839C71.1531 43.7957 71.1364 43.7451 71.1344 43.6928C71.1325 43.6406 71.1453 43.5888 71.1714 43.5435L71.3531 43.2275L70.323 42.6334L70.1413 42.9494C70.1146 42.9945 70.076 43.0313 70.0297 43.0559C69.9834 43.0804 69.9313 43.0917 69.879 43.0885H69.7905H69.7036C69.6513 43.0917 69.5992 43.0804 69.5529 43.0559C69.5066 43.0313 69.468 42.9945 69.4413 42.9494L69.2581 42.6334ZM69.7905 43.771C69.9834 43.771 70.1719 43.8282 70.3323 43.9354C70.4926 44.0426 70.6176 44.195 70.6913 44.3732C70.7651 44.5514 70.7843 44.7475 70.7465 44.9367C70.7088 45.1258 70.6158 45.2995 70.4793 45.4358C70.3428 45.572 70.1689 45.6648 69.9797 45.7022C69.7905 45.7396 69.5945 45.7201 69.4164 45.6461C69.2383 45.5721 69.0861 45.4469 68.9792 45.2863C68.8723 45.1258 68.8153 44.9372 68.8157 44.7443C68.8161 44.6161 68.8418 44.4892 68.8914 44.371C68.941 44.2527 69.0135 44.1455 69.1046 44.0553C69.1958 43.9652 69.3039 43.8939 69.4227 43.8457C69.5415 43.7974 69.6686 43.7731 69.7968 43.7742L69.7905 43.771Z" fill="#EBEBEB"/>
<path d="M9.15012 24.0716L9.87217 25.0196L10.1613 24.7983C10.2028 24.7662 10.2526 24.7464 10.3049 24.7414C10.3572 24.7364 10.4099 24.7463 10.4568 24.7699C10.5105 24.7952 10.5658 24.8173 10.6148 24.8378C10.6641 24.8551 10.7078 24.8856 10.741 24.926C10.7742 24.9664 10.7955 25.0152 10.8028 25.067L10.8502 25.4288L12.0305 25.2708L11.9831 24.9105C11.9765 24.8585 11.9846 24.8057 12.0064 24.758C12.0281 24.7103 12.0627 24.6695 12.1063 24.6403C12.1553 24.6072 12.2011 24.5708 12.2469 24.5329C12.2863 24.4985 12.3345 24.4757 12.3861 24.4671C12.4377 24.4584 12.4907 24.4643 12.5392 24.4839L12.8758 24.6246L13.3324 23.5186L13.0006 23.3922C12.9527 23.3714 12.9114 23.3379 12.8813 23.2952C12.8512 23.2526 12.8335 23.2025 12.8299 23.1504C12.8299 23.1204 12.8299 23.092 12.8205 23.0619C12.811 23.0319 12.8205 23.005 12.8078 22.9766C12.7972 22.9253 12.8011 22.872 12.8193 22.8228C12.8374 22.7737 12.8691 22.7306 12.9105 22.6985L13.2012 22.4757L12.4792 21.5277L12.1885 21.749C12.1468 21.7808 12.097 21.8003 12.0448 21.8053C11.9926 21.8103 11.94 21.8007 11.893 21.7774C11.8417 21.7517 11.7889 21.729 11.735 21.7095C11.6856 21.6922 11.642 21.6617 11.6088 21.6213C11.5756 21.5809 11.5542 21.5321 11.547 21.4803L11.4996 21.1185L10.3193 21.2765L10.3667 21.6383C10.373 21.6902 10.3651 21.7428 10.3436 21.7904C10.3222 21.8381 10.2881 21.8789 10.2451 21.9085C10.1962 21.9417 10.1493 21.9776 10.1044 22.016C10.0647 22.0504 10.0162 22.0731 9.96438 22.0818C9.91253 22.0904 9.85931 22.0846 9.81056 22.065L9.47401 21.9243L9.0174 23.0303L9.35394 23.171C9.3983 23.1904 9.43688 23.221 9.46595 23.2598C9.49501 23.2985 9.51357 23.3441 9.51984 23.3922L9.52932 23.4791C9.52932 23.5091 9.53722 23.5375 9.54354 23.566C9.55365 23.6174 9.54925 23.6707 9.53083 23.7198C9.51242 23.7689 9.48071 23.8119 9.43926 23.844L9.15012 24.0716ZM10.2087 23.3953C10.1841 23.2041 10.2167 23.0099 10.3024 22.8372C10.3881 22.6645 10.5231 22.5211 10.6903 22.4251C10.8575 22.3291 11.0495 22.2849 11.2418 22.298C11.4342 22.3111 11.6183 22.381 11.771 22.4987C11.9236 22.6165 12.038 22.7769 12.0995 22.9596C12.161 23.1423 12.1669 23.3392 12.1166 23.5253C12.0662 23.7114 11.9618 23.8784 11.8166 24.0051C11.6713 24.1319 11.4917 24.2127 11.3005 24.2375C11.1732 24.2541 11.044 24.2453 10.9201 24.2118C10.7962 24.1782 10.6802 24.1205 10.5788 24.0419C10.4773 23.9634 10.3924 23.8655 10.3288 23.754C10.2653 23.6425 10.2245 23.5195 10.2087 23.3922V23.3953Z" fill="#EBEBEB"/>
<path d="M6.14969 62.0658L14.5806 62.0263L23.0099 62.0137L39.87 61.9868L56.7302 62.0121L65.1595 62.0263L73.5904 62.0658L65.1595 62.1037L56.7302 62.118L39.87 62.1448L23.0099 62.118L14.5806 62.1037L6.14969 62.0658Z" fill="#263238"/>
<path d="M61.5303 68.765C68.7913 68.765 74.6775 67.8299 74.6775 66.6763C74.6775 65.5227 68.7913 64.5875 61.5303 64.5875C54.2693 64.5875 48.3831 65.5227 48.3831 66.6763C48.3831 67.8299 54.2693 68.765 61.5303 68.765Z" fill="#EBEBEB"/>
<path d="M35.1933 74.6253C50.7004 74.6253 63.2714 72.8865 63.2714 70.7417C63.2714 68.5968 50.7004 66.858 35.1933 66.858C19.6861 66.858 7.11508 68.5968 7.11508 70.7417C7.11508 72.8865 19.6861 74.6253 35.1933 74.6253Z" fill="#EBEBEB"/>
<path d="M61.3154 10.8059H18.3994V39.1716H61.3154V10.8059Z" fill="#EBEBEB"/>
<path d="M62.3629 9.41553H17.3788V10.8043H62.3629V9.41553Z" fill="#455A64"/>
<path d="M27.2443 14.6912H20.4677V22.7207H27.2443V14.6912Z" fill="white"/>
<path d="M24.1001 15.2378C24.1004 15.2864 24.0863 15.334 24.0595 15.3745C24.0327 15.415 23.9945 15.4466 23.9496 15.4654C23.9048 15.4841 23.8555 15.4891 23.8078 15.4797C23.7601 15.4703 23.7164 15.4469 23.682 15.4126C23.6477 15.3782 23.6243 15.3345 23.6149 15.2868C23.6055 15.2391 23.6105 15.1898 23.6292 15.145C23.648 15.1001 23.6796 15.0619 23.7201 15.0351C23.7606 15.0083 23.8082 14.9942 23.8568 14.9945C23.8887 14.9945 23.9204 15.0008 23.9499 15.013C23.9794 15.0253 24.0062 15.0432 24.0288 15.0658C24.0514 15.0884 24.0693 15.1152 24.0816 15.1447C24.0938 15.1742 24.1001 15.2059 24.1001 15.2378Z" fill="#455A64"/>
<path d="M21.7569 16.2995C22.4426 16.2474 23.1284 16.2442 23.8109 16.2363C24.4935 16.2284 25.1808 16.2474 25.8649 16.2995C25.1792 16.3533 24.4951 16.3564 23.8109 16.3643C23.1268 16.3722 22.4426 16.3533 21.7569 16.2995Z" fill="#EBEBEB"/>
<path d="M21.7569 16.9348C22.4997 16.8484 23.2499 16.8484 23.9926 16.9348C23.2498 17.019 22.4998 17.019 21.7569 16.9348Z" fill="#EBEBEB"/>
<path d="M21.7569 17.5683C22.2309 17.5193 22.7049 17.5083 23.1789 17.5051C23.6529 17.502 24.1269 17.5193 24.6009 17.5683C24.1269 17.6189 23.6529 17.6299 23.1789 17.6331C22.7049 17.6363 22.2341 17.6189 21.7569 17.5683Z" fill="#EBEBEB"/>
<path d="M21.7569 18.2035C22.3526 18.1545 22.9482 18.1418 23.5439 18.1403C24.1396 18.1387 24.7352 18.1529 25.3293 18.2035C24.7352 18.254 24.1396 18.2651 23.5439 18.2667C22.9482 18.2682 22.3526 18.2524 21.7569 18.2035Z" fill="#EBEBEB"/>
<path d="M21.7569 18.8387C22.2752 18.7881 22.7918 18.7771 23.3085 18.7739C23.8251 18.7708 24.3434 18.7881 24.8616 18.8387C24.3434 18.8877 23.8267 18.9003 23.3085 18.9019C22.7902 18.9035 22.2752 18.8877 21.7569 18.8387Z" fill="#EBEBEB"/>
<path d="M21.7569 19.4723C22.4189 19.4201 23.081 19.417 23.743 19.4091C24.405 19.4012 25.0686 19.4201 25.7306 19.4723C25.0686 19.526 24.4066 19.5292 23.743 19.5371C23.0794 19.545 22.4189 19.526 21.7569 19.4723Z" fill="#EBEBEB"/>
<path d="M21.7569 20.1074C22.6101 20.021 23.4697 20.021 24.3228 20.1074C23.4696 20.1916 22.6102 20.1916 21.7569 20.1074Z" fill="#EBEBEB"/>
<path d="M21.7569 20.7409C22.4426 20.6888 23.1284 20.6856 23.8109 20.6777C24.4935 20.6698 25.1808 20.6888 25.8649 20.7409C25.1792 20.7947 24.4951 20.7978 23.8109 20.8057C23.1268 20.8136 22.4426 20.7947 21.7569 20.7409Z" fill="#EBEBEB"/>
<path d="M21.7569 21.3762C22.4426 21.324 23.1284 21.3209 23.8109 21.313C24.4935 21.3051 25.1808 21.3224 25.8649 21.3762C25.1792 21.4299 24.4951 21.433 23.8109 21.4394C23.1268 21.4457 22.4426 21.4283 21.7569 21.3762Z" fill="#EBEBEB"/>
<path d="M59.312 21.5895H54.0063V27.8763H59.312V21.5895Z" fill="white"/>
<path d="M56.8424 22.1392C56.8427 22.1755 56.8322 22.2111 56.8123 22.2415C56.7923 22.2718 56.7638 22.2956 56.7304 22.3097C56.6969 22.3238 56.66 22.3276 56.6244 22.3208C56.5887 22.3139 56.5559 22.2965 56.5301 22.271C56.5043 22.2454 56.4867 22.2127 56.4795 22.1771C56.4723 22.1416 56.4758 22.1046 56.4897 22.071C56.5035 22.0375 56.527 22.0087 56.5571 21.9885C56.5873 21.9683 56.6228 21.9575 56.6591 21.9575C56.6831 21.9573 56.7069 21.9619 56.7292 21.9709C56.7514 21.9799 56.7716 21.9933 56.7886 22.0102C56.8057 22.0271 56.8192 22.0472 56.8284 22.0693C56.8377 22.0915 56.8424 22.1152 56.8424 22.1392Z" fill="#455A64"/>
<path d="M54.8564 23.3037C55.2232 23.2518 55.5955 23.2518 55.9624 23.3037C55.5955 23.3555 55.2232 23.3555 54.8564 23.3037Z" fill="#EBEBEB"/>
<path d="M54.8564 23.7525C55.3351 23.6977 55.8186 23.6977 56.2973 23.7525C55.8184 23.8052 55.3352 23.8052 54.8564 23.7525Z" fill="#EBEBEB"/>
<path d="M54.8564 24.1995C55.2998 24.1469 55.748 24.1469 56.1915 24.1995C55.7481 24.2543 55.2997 24.2543 54.8564 24.1995Z" fill="#EBEBEB"/>
<path d="M54.8564 24.6562C55.2998 24.6035 55.748 24.6035 56.1915 24.6562C55.748 24.7089 55.2998 24.7089 54.8564 24.6562Z" fill="#EBEBEB"/>
<path d="M54.8564 25.097C55.241 25.0422 55.6314 25.0422 56.0161 25.097C55.6313 25.1497 55.2411 25.1497 54.8564 25.097Z" fill="#EBEBEB"/>
<path d="M54.8564 25.5441C55.35 25.4915 55.8479 25.4915 56.3416 25.5441C55.848 25.5989 55.3499 25.5989 54.8564 25.5441Z" fill="#EBEBEB"/>
<path d="M54.8564 25.9929C55.2633 25.9402 55.6754 25.9402 56.0824 25.9929C55.6754 26.0455 55.2633 26.0455 54.8564 25.9929Z" fill="#EBEBEB"/>
<path d="M54.8564 26.4416C55.3668 26.3868 55.8817 26.3868 56.3921 26.4416C55.8815 26.4943 55.3669 26.4943 54.8564 26.4416Z" fill="#EBEBEB"/>
<path d="M54.8564 26.8887C55.3669 26.8361 55.8815 26.8361 56.3921 26.8887C55.8817 26.9435 55.3668 26.9435 54.8564 26.8887Z" fill="#EBEBEB"/>
<path d="M57.0494 23.3038C57.5336 23.2511 58.022 23.2511 58.5062 23.3038C58.022 23.3564 57.5336 23.3564 57.0494 23.3038Z" fill="#EBEBEB"/>
<path d="M57.0494 23.7525C57.3662 23.6977 57.6901 23.6977 58.0069 23.7525C57.6899 23.8052 57.3664 23.8052 57.0494 23.7525Z" fill="#EBEBEB"/>
<path d="M57.0494 24.1995C57.505 24.1469 57.9652 24.1469 58.4208 24.1995C57.9653 24.2543 57.5049 24.2543 57.0494 24.1995Z" fill="#EBEBEB"/>
<path d="M57.0494 24.6562C57.4924 24.6035 57.94 24.6035 58.3829 24.6562C57.94 24.7089 57.4924 24.7089 57.0494 24.6562Z" fill="#EBEBEB"/>
<path d="M57.0494 25.097C57.5335 25.0422 58.0221 25.0422 58.5062 25.097C58.022 25.1497 57.5336 25.1497 57.0494 25.097Z" fill="#EBEBEB"/>
<path d="M57.0494 25.5441C57.4342 25.4915 57.8243 25.4915 58.2091 25.5441C57.8245 25.599 57.434 25.599 57.0494 25.5441Z" fill="#EBEBEB"/>
<path d="M57.0494 25.9929C57.505 25.9402 57.9652 25.9402 58.4208 25.9929C57.9652 26.0455 57.505 26.0455 57.0494 25.9929Z" fill="#EBEBEB"/>
<path d="M57.0494 26.4416C57.4007 26.3868 57.7583 26.3868 58.1096 26.4416C57.7582 26.4942 57.4008 26.4942 57.0494 26.4416Z" fill="#EBEBEB"/>
<path d="M57.0494 26.8887C57.3865 26.8361 57.7298 26.8361 58.0669 26.8887C57.73 26.9435 57.3864 26.9435 57.0494 26.8887Z" fill="#EBEBEB"/>
<path d="M30.0914 19.6396H26.015V23.716H30.0914V19.6396Z" fill="#407BFF"/>
<path d="M28.2965 20.0536C28.2965 20.1017 28.2823 20.1488 28.2555 20.1888C28.2288 20.2288 28.1908 20.26 28.1463 20.2784C28.1019 20.2968 28.053 20.3017 28.0058 20.2923C27.9586 20.2829 27.9152 20.2597 27.8812 20.2257C27.8471 20.1916 27.824 20.1483 27.8146 20.1011C27.8052 20.0539 27.81 20.005 27.8284 19.9605C27.8468 19.916 27.878 19.878 27.918 19.8513C27.9581 19.8246 28.0051 19.8103 28.0532 19.8103C28.0852 19.8103 28.1168 19.8166 28.1463 19.8288C28.1759 19.8411 28.2027 19.859 28.2253 19.8816C28.2479 19.9042 28.2658 19.931 28.278 19.9605C28.2903 19.99 28.2965 20.0217 28.2965 20.0536Z" fill="#455A64"/>
<path d="M61.3154 10.8059H18.3994V12.6103H61.3154V10.8059Z" fill="#DBDBDB"/>
<path d="M32.0016 14.846L38.8825 14.8318L45.765 14.846L38.8825 14.8602L32.0016 14.846Z" fill="#C7C7C7"/>
<path d="M32.0016 15.4069L38.8825 15.3927L45.765 15.4069L38.8825 15.4227L32.0016 15.4069Z" fill="#C7C7C7"/>
<path d="M32.0016 15.9694L38.8825 15.9536L45.765 15.9694L38.8825 15.9836L32.0016 15.9694Z" fill="#C7C7C7"/>
<path d="M32.0016 16.5303L38.8825 16.5145L45.765 16.5303L38.8825 16.5445L32.0016 16.5303Z" fill="#C7C7C7"/>
<path d="M32.0016 17.0911L38.8825 17.0769L45.765 17.0911L38.8825 17.1053L32.0016 17.0911Z" fill="#C7C7C7"/>
<path d="M32.0016 17.652L38.8825 17.6378L45.765 17.652L38.8825 17.6678L32.0016 17.652Z" fill="#C7C7C7"/>
<path d="M32.0016 18.213L38.8825 18.1987L45.765 18.213L38.8825 18.2288L32.0016 18.213Z" fill="#C7C7C7"/>
<path d="M32.0016 18.7754L38.8825 18.7596L45.765 18.7754L38.8825 18.7897L32.0016 18.7754Z" fill="#C7C7C7"/>
<path d="M32.0016 19.3364L38.8825 19.3206L45.765 19.3364L38.8825 19.3506L32.0016 19.3364Z" fill="#C7C7C7"/>
<path d="M32.0016 19.8973L38.8825 19.8831L45.765 19.8973L38.8825 19.9115L32.0016 19.8973Z" fill="#C7C7C7"/>
<path d="M32.0016 20.4582L38.8825 20.444L45.765 20.4582L38.8825 20.474L32.0016 20.4582Z" fill="#C7C7C7"/>
<path d="M32.0016 21.0207L38.8825 21.0049L45.765 21.0207L38.8825 21.0349L32.0016 21.0207Z" fill="#C7C7C7"/>
<path d="M32.0016 21.5815L38.8825 21.5657L45.765 21.5815L38.8825 21.5957L32.0016 21.5815Z" fill="#C7C7C7"/>
<path d="M32.0016 22.1424L38.8825 22.1282L45.765 22.1424L38.8825 22.1566L32.0016 22.1424Z" fill="#C7C7C7"/>
<path d="M32.0016 22.7033L38.8825 22.6891L45.765 22.7033L38.8825 22.7191L32.0016 22.7033Z" fill="#C7C7C7"/>
<path d="M34.5012 18.7754H33.4568V23.359H34.5012V18.7754Z" fill="#407BFF"/>
<path d="M36.4367 16.8368H35.3923V23.359H36.4367V16.8368Z" fill="white"/>
<path d="M38.3738 15.9568H37.3294V23.3591H38.3738V15.9568Z" fill="#407BFF"/>
<path d="M40.3093 17.1038H39.2649V23.3574H40.3093V17.1038Z" fill="white"/>
<path d="M42.2464 17.4451H41.202V23.3574H42.2464V17.4451Z" fill="#407BFF"/>
<path d="M44.1819 20.7963H43.1375V23.359H44.1819V20.7963Z" fill="white"/>
<path d="M32.3745 14.4525L32.3982 16.6787L32.414 18.905C32.4246 20.3902 32.4298 21.8743 32.4298 23.3574L32.3745 23.3037H35.7226H39.069L42.417 23.3226L45.765 23.3542L42.417 23.3874L39.069 23.4064H35.7226H32.3745H32.3192V23.3511C32.3192 21.8669 32.3245 20.3828 32.335 18.8986L32.3508 16.6724L32.3745 14.4525Z" fill="#C7C7C7"/>
<path d="M34.5012 23.8282H33.4568V23.923H34.5012V23.8282Z" fill="#C7C7C7"/>
<path d="M36.4367 23.8282H35.3923V23.923H36.4367V23.8282Z" fill="#C7C7C7"/>
<path d="M38.3738 23.8282H37.3294V23.923H38.3738V23.8282Z" fill="#C7C7C7"/>
<path d="M40.3093 23.8282H39.2649V23.923H40.3093V23.8282Z" fill="#C7C7C7"/>
<path d="M42.2464 23.8282H41.202V23.923H42.2464V23.8282Z" fill="#C7C7C7"/>
<path d="M44.1819 23.8282H43.1375V23.923H44.1819V23.8282Z" fill="#C7C7C7"/>
<path d="M26.4037 35.604H22.2594V35.9595H26.4037V35.604Z" fill="#C7C7C7"/>
<path d="M27.8589 36.3467H22.2594V36.7022H27.8589V36.3467Z" fill="#C7C7C7"/>
<path d="M25.2314 37.0908H22.2594V37.4463H25.2314V37.0908Z" fill="#C7C7C7"/>
<path d="M21.3351 35.604H20.4708V36.4683H21.3351V35.604Z" fill="#407BFF"/>
<path d="M53.1658 14.8302H49.0214V15.1857H53.1658V14.8302Z" fill="#C7C7C7"/>
<path d="M54.6209 15.5728H49.0214V15.9283H54.6209V15.5728Z" fill="#C7C7C7"/>
<path d="M51.9934 16.317H49.0214V16.6725H51.9934V16.317Z" fill="#C7C7C7"/>
<path d="M48.0971 14.8302H47.2328V15.6945H48.0971V14.8302Z" fill="#407BFF"/>
<path d="M53.9479 17.7074H49.0214V18.0629H53.9479V17.7074Z" fill="#C7C7C7"/>
<path d="M52.9177 18.45H49.0214V18.8055H52.9177V18.45Z" fill="#C7C7C7"/>
<path d="M54.6209 19.1941H49.0214V19.5496H54.6209V19.1941Z" fill="#C7C7C7"/>
<path d="M48.0971 17.7074H47.2328V18.5717H48.0971V17.7074Z" fill="white"/>
<path d="M39.0421 26.4747H20.4677V34.5991H39.0421V26.4747Z" fill="#DBDBDB"/>
<path d="M38.0562 27.5002H21.4551V28.2018H38.0562V27.5002Z" fill="white"/>
<path d="M29.9429 27.5002H21.4551V28.2018H29.9429V27.5002Z" fill="#407BFF"/>
<path d="M38.0562 28.8433H21.4551V29.5448H38.0562V28.8433Z" fill="white"/>
<path d="M36.6832 28.8433H21.4551V29.5448H36.6832V28.8433Z" fill="#407BFF"/>
<path d="M38.0562 30.1862H21.4551V30.8877H38.0562V30.1862Z" fill="white"/>
<path d="M26.3674 30.1862H21.4551V30.8877H26.3674V30.1862Z" fill="#407BFF"/>
<path d="M38.0562 31.5292H21.4551V32.2307H38.0562V31.5292Z" fill="white"/>
<path d="M34.5012 31.5292H21.4551V32.2307H34.5012V31.5292Z" fill="#407BFF"/>
<path d="M38.0562 32.8722H21.4551V33.5737H38.0562V32.8722Z" fill="white"/>
<path d="M31.0473 32.8722H21.4551V33.5737H31.0473V32.8722Z" fill="#407BFF"/>
<path d="M51.0786 30.902C51.0208 31.6793 50.7723 32.4304 50.3549 33.0887L49.1383 32.3856C49.4291 31.9395 49.6109 31.4313 49.6692 30.902H51.0786Z" fill="#455A64"/>
<path d="M51.0881 30.5354C51.0881 30.5875 51.0881 30.6381 51.0881 30.6934H49.6819C49.6819 30.6428 49.6819 30.5923 49.6819 30.5354C49.6823 29.9747 49.5431 29.4228 49.2769 28.9293C49.0107 28.4358 48.6259 28.0164 48.1572 27.7088L48.8618 26.4906C49.5437 26.9226 50.1054 27.5199 50.4946 28.227C50.8838 28.9342 51.0879 29.7282 51.0881 30.5354Z" fill="#A6A6A6"/>
<path d="M48.6849 26.3799L47.9834 27.5981C47.5014 27.3219 46.9586 27.1693 46.4034 27.1541V25.7495C47.2048 25.7641 47.9896 25.9809 48.6849 26.3799Z" fill="#455A64"/>
<path d="M46.198 25.7495V27.1541C45.6269 27.1718 45.0698 27.3339 44.5785 27.6254C44.0872 27.917 43.6778 28.3283 43.3887 28.821L42.1705 28.1195C42.5831 27.413 43.17 26.8241 43.8751 26.4091C44.5802 25.9942 45.38 25.7671 46.198 25.7495Z" fill="#407BFF"/>
<path d="M43.286 29.0075C43.0538 29.463 42.9294 29.9658 42.9226 30.4769H41.518C41.5243 29.7191 41.7129 28.974 42.0678 28.3044L43.286 29.0075Z" fill="#A6A6A6"/>
<path d="M44.4189 33.3462L43.7158 34.5643C43.0622 34.1455 42.5207 33.5736 42.138 32.8983C41.7553 32.2229 41.543 31.4645 41.5196 30.6886H42.9242C42.9475 31.2177 43.095 31.734 43.3546 32.1956C43.6143 32.6573 43.9788 33.0514 44.4189 33.3462Z" fill="#455A64"/>
<path d="M50.2364 33.2656C49.5503 34.2546 48.5168 34.9488 47.3417 35.21C46.1667 35.4712 44.9364 35.2802 43.8959 34.6749L44.599 33.4583C45.3177 33.8795 46.1666 34.0207 46.9829 33.8548C47.7992 33.6889 48.5257 33.2276 49.023 32.5593L50.2364 33.2656Z" fill="#DBDBDB"/>
<path d="M48.8081 30.6886C48.8077 31.1244 48.6791 31.5504 48.4383 31.9137C48.1976 32.277 47.8553 32.5614 47.4541 32.7315L46.5866 30.6886H48.8081Z" fill="#407BFF"/>
<path d="M46.3054 30.537L47.1712 32.58C47.1033 32.6068 47.0354 32.6337 46.9674 32.6542C46.754 32.7202 46.5319 32.7538 46.3086 32.7538C46.0852 32.7534 45.8632 32.7199 45.6497 32.6542C45.1946 32.5171 44.7958 32.2371 44.5123 31.8556C44.2288 31.4742 44.0757 31.0115 44.0757 30.5362C44.0757 30.0609 44.2288 29.5983 44.5123 29.2168C44.7958 28.8353 45.1946 28.5553 45.6497 28.4182C46.0789 28.2856 46.5382 28.2856 46.9674 28.4182C47.311 28.5244 47.6235 28.7126 47.8779 28.9667C48.1322 29.2208 48.3208 29.5331 48.4273 29.8766C48.4928 30.0901 48.5263 30.3121 48.5269 30.5354L46.3054 30.537Z" fill="#407BFF"/>
<path d="M46.3054 30.5369L47.1712 32.5799C47.1033 32.6067 47.0354 32.6336 46.9674 32.6541C46.754 32.7202 46.5319 32.7537 46.3086 32.7537C45.8352 32.7544 45.3742 32.6034 44.9931 32.3227C44.612 32.042 44.331 31.6465 44.1914 31.1942C44.0566 30.7653 44.0566 30.3054 44.1914 29.8765C44.3313 29.4245 44.6124 29.0293 44.9934 28.749C45.3745 28.4686 45.8354 28.3177 46.3086 28.3186C46.8952 28.3186 47.4578 28.5517 47.8727 28.9665C48.2875 29.3813 48.5206 29.9439 48.5206 30.5306L46.3054 30.5369Z" fill="#DBDBDB"/>
<path d="M46.3054 30.537L44.8597 32.2181C44.5808 31.9754 44.3672 31.6666 44.2384 31.3201C44.1095 30.9735 44.0697 30.6002 44.1223 30.2342C44.175 29.8683 44.3186 29.5214 44.5399 29.2252C44.7612 28.9291 45.0533 28.6931 45.3893 28.5389C45.7254 28.3847 46.0947 28.3172 46.4635 28.3426C46.8324 28.368 47.189 28.4854 47.5008 28.6841C47.8125 28.8829 48.0695 29.1566 48.2482 29.4803C48.4269 29.8039 48.5216 30.1672 48.5237 30.537H46.3054Z" fill="#A6A6A6"/>
<path d="M52.6586 35.8269H49.5665L45.7366 31.997L45.7935 31.9417L49.5997 35.7479H52.6586V35.8269Z" fill="#263238"/>
<path d="M45.9815 31.7535H45.5502V32.1849H45.9815V31.7535Z" fill="#263238"/>
<path d="M52.6586 32.8643H49.1747L47.5204 31.2101L47.5757 31.1532L49.2063 32.7853H52.6586V32.8643Z" fill="#263238"/>
<path d="M47.7622 30.9667H47.3324V31.398H47.7622V30.9667Z" fill="#263238"/>
<path d="M52.6586 29.9319H47.3893V30.0109H52.6586V29.9319Z" fill="#263238"/>
<path d="M47.5489 29.7565H47.1175V30.1878H47.5489V29.7565Z" fill="#263238"/>
<path d="M58.1602 29.54H54.0158V29.8955H58.1602V29.54Z" fill="#DBDBDB"/>
<path d="M59.6153 30.2826H54.0158V30.6381H59.6153V30.2826Z" fill="#DBDBDB"/>
<path d="M56.9878 31.0267H54.0158V31.3822H56.9878V31.0267Z" fill="#DBDBDB"/>
<path d="M53.0915 29.54H52.2272V30.4043H53.0915V29.54Z" fill="#407BFF"/>
<path d="M58.9422 32.4171H54.0158V32.7726H58.9422V32.4171Z" fill="#DBDBDB"/>
<path d="M57.9121 33.1598H54.0158V33.5153H57.9121V33.1598Z" fill="#DBDBDB"/>
<path d="M59.6153 33.9039H54.0158V34.2594H59.6153V33.9039Z" fill="#DBDBDB"/>
<path d="M53.0915 32.4171H52.2272V33.2814H53.0915V32.4171Z" fill="#A6A6A6"/>
<path d="M58.9422 35.2943H54.0158V35.6498H58.9422V35.2943Z" fill="#DBDBDB"/>
<path d="M57.9121 36.037H54.0158V36.3925H57.9121V36.037Z" fill="#DBDBDB"/>
<path d="M59.6153 36.7811H54.0158V37.1366H59.6153V36.7811Z" fill="#DBDBDB"/>
<path d="M53.0915 35.2943H52.2272V36.1586H53.0915V35.2943Z" fill="#C7C7C7"/>
<path d="M40.8054 53.9841L41.1119 55.828L43.1959 67.076H43.5309L42.0157 55.828L41.7929 53.9841H40.8054Z" fill="#DBDBDB"/>
<path d="M41.7929 53.9841H40.8054L41.1119 55.828H42.0157L41.7929 53.9841Z" fill="#A6A6A6"/>
<path d="M34.2642 67.076H34.6007L36.6832 55.828L36.9913 53.9841H36.0038L35.7794 55.828L34.2642 67.076Z" fill="#DBDBDB"/>
<path d="M36.0038 53.9841L35.7794 55.828H36.6832L36.9913 53.9841H36.0038Z" fill="#A6A6A6"/>
<path d="M28.0185 67.076H28.3534L30.4359 55.828L30.744 53.9841H29.7565L29.5321 55.828L28.0185 67.076Z" fill="#DBDBDB"/>
<path d="M29.5321 55.828H30.4359L30.744 53.9841H29.7565L29.5321 55.828Z" fill="#A6A6A6"/>
<path d="M28.5493 54.8515H43.8106V53.2431H38.0989L36.1776 42.0725H29.1324L28.5493 54.8515Z" fill="#DBDBDB"/>
<path d="M28.5493 54.8515H29.382L29.9239 42.0725H29.1324L28.5493 54.8515Z" fill="#A6A6A6"/>
<path d="M69.1396 57.7477C69.1396 57.7477 69.0937 63.1797 69.0937 63.1829C69.0937 64.2225 69.0685 65.1342 69.0132 65.6034C69.0114 65.7133 68.9849 65.8213 68.9357 65.9194C68.6197 66.128 60.3216 66.3429 60.0293 66.2528C59.737 66.1628 59.9708 65.3238 60.2868 65.0583C60.6028 64.7929 63.7454 63.2887 63.7454 63.2887L63.8434 57.8583L69.1396 57.7477Z" fill="#AD6359"/>
<path d="M69.1 62.069L69.0906 63.175C69.0906 64.2146 69.0653 65.1263 69.01 65.5955C68.9958 65.7034 68.9698 65.8093 68.9326 65.9115C68.6166 66.1201 60.3184 66.335 60.0261 66.2449C59.7338 66.1548 59.9676 65.3159 60.2836 65.0504C60.5996 64.785 63.7423 63.2808 63.7423 63.2808V62.148L69.1 62.069Z" fill="white"/>
<path d="M63.2304 63.3109C63.7834 63.2192 64.4549 63.3188 64.8688 63.7201C64.8846 63.7359 64.8688 63.758 64.8435 63.7517C64.3212 63.5704 63.7809 63.4459 63.2319 63.3804C63.2227 63.3806 63.2138 63.3771 63.2071 63.3708C63.2005 63.3644 63.1966 63.3556 63.1964 63.3464C63.1962 63.3372 63.1996 63.3283 63.206 63.3216C63.2124 63.3149 63.2211 63.3111 63.2304 63.3109Z" fill="#263238"/>
<path d="M62.8275 63.5416C63.3805 63.4499 64.0536 63.5495 64.4659 63.9508C64.4817 63.9666 64.4659 63.9887 64.4406 63.9824C63.9181 63.8019 63.3779 63.6774 62.829 63.6111C62.8245 63.6112 62.8199 63.6104 62.8157 63.6087C62.8114 63.6071 62.8075 63.6046 62.8042 63.6015C62.8009 63.5983 62.7983 63.5945 62.7964 63.5904C62.7946 63.5862 62.7936 63.5817 62.7935 63.5771C62.7934 63.5726 62.7942 63.568 62.7958 63.5638C62.7975 63.5595 62.8 63.5556 62.8031 63.5523C62.8063 63.549 62.81 63.5464 62.8142 63.5445C62.8184 63.5427 62.8229 63.5417 62.8275 63.5416Z" fill="#263238"/>
<path d="M62.4246 63.7723C62.9776 63.6822 63.6506 63.7802 64.063 64.1815C64.0788 64.1973 64.063 64.2194 64.0393 64.2147C63.5165 64.0325 62.9757 63.907 62.4261 63.8402C62.4183 63.8387 62.4113 63.8346 62.4061 63.8285C62.401 63.8224 62.3981 63.8148 62.3979 63.8069C62.3977 63.7989 62.4003 63.7912 62.4051 63.7849C62.41 63.7786 62.4168 63.7741 62.4246 63.7723Z" fill="#263238"/>
<path d="M60.023 66.2734C60.3153 66.3634 68.6182 66.147 68.9294 65.9384C69.0495 65.861 69.0874 64.6491 69.0874 63.1845V63.1371L63.7281 63.2177V63.3077C63.7281 63.3077 60.587 64.8119 60.2694 65.0773C59.9519 65.3428 59.7307 66.1833 60.023 66.2734Z" fill="#37474F"/>
<path d="M69.1001 63.1371V63.1845C69.1001 64.6491 69.0558 65.861 68.9421 65.9384C68.8283 66.0158 67.0018 66.1296 65.0568 66.1991C62.7295 66.2813 60.1952 66.3224 60.0356 66.2734C59.7433 66.1833 59.9787 65.3428 60.2931 65.0773C60.6076 64.8119 63.7518 63.3077 63.7518 63.3077V63.2177L65.5387 63.1908L69.1001 63.1371Z" fill="#37474F"/>
<path d="M60.1083 65.948C61.5081 65.8769 67.1566 65.7252 68.5439 65.7615C68.5549 65.7615 68.5549 65.7615 68.5439 65.7615C67.1598 65.8626 61.5097 65.9701 60.1098 65.9638C60.0798 65.9717 60.0798 65.9495 60.1083 65.948Z" fill="#263238"/>
<path d="M65.5213 63.1908C65.3902 64.0882 65.1911 65.4107 65.0473 66.1928C62.72 66.275 60.1857 66.316 60.0261 66.2671C59.7338 66.177 59.9692 65.3364 60.2837 65.071C60.5981 64.8056 63.7423 63.3014 63.7423 63.3014V63.2113L65.5213 63.1908Z" fill="#263238"/>
<path d="M69.7968 63.2081L63.5369 63.265C63.5369 63.265 61.8668 41.1166 63.352 35.3148H67.844C67.844 35.3148 69.0511 37.778 68.3606 40.5509L69.7968 63.2081Z" fill="#455A64"/>
<path d="M69.3639 62.1622C69.1999 62.1409 69.0348 62.1282 68.8694 62.1243C68.6861 62.1116 68.5028 62.099 68.318 62.0911C67.9656 62.0769 67.6117 62.0705 67.2578 62.069C66.5452 62.069 65.8358 62.069 65.1185 62.0927C64.7124 62.1053 64.3063 62.1211 63.9019 62.1432C63.8985 62.1432 63.8953 62.1446 63.8929 62.1469C63.8906 62.1493 63.8892 62.1525 63.8892 62.1559C63.8892 62.1592 63.8906 62.1624 63.8929 62.1648C63.8953 62.1672 63.8985 62.1685 63.9019 62.1685C64.6097 62.1938 65.3239 62.2033 66.0238 62.2175C66.7237 62.2317 67.4458 62.2443 68.1457 62.2301C68.348 62.2301 68.5502 62.2301 68.754 62.2143C68.9579 62.1985 69.1633 62.2143 69.3608 62.1859C69.3734 62.1843 69.3781 62.1653 69.3639 62.1622Z" fill="#263238"/>
<path d="M64.0014 56.7618C63.9303 55.1439 63.8797 53.526 63.8339 51.9065C63.7454 48.6706 63.7223 45.4327 63.7644 42.1926C63.7881 40.3756 63.8355 38.5586 63.8908 36.7432C63.8908 36.7227 63.8592 36.7243 63.8576 36.7432C63.6854 39.9933 63.6206 43.2512 63.6174 46.5076C63.6143 49.764 63.6806 52.9856 63.8402 56.2199C63.9303 58.0353 64.0409 59.8539 64.2115 61.6614C64.2115 61.6772 64.2368 61.6772 64.2368 61.6614C64.1641 60.0292 64.0709 58.3955 64.0014 56.7618Z" fill="#263238"/>
<path d="M58.2154 64.0156C58.7684 63.9239 59.4415 64.0235 59.8539 64.4248C59.8697 64.4406 59.8539 64.4627 59.8286 64.4564C59.3063 64.2751 58.766 64.1506 58.217 64.0851C58.2078 64.0853 58.1989 64.0818 58.1922 64.0755C58.1855 64.0691 58.1817 64.0603 58.1815 64.0511C58.1813 64.0419 58.1847 64.033 58.1911 64.0263C58.1975 64.0196 58.2062 64.0158 58.2154 64.0156Z" fill="#263238"/>
<path d="M57.8125 64.2463C58.3655 64.1562 59.0386 64.2542 59.451 64.6555C59.4668 64.6713 59.451 64.6934 59.4273 64.6871C58.9042 64.5062 58.3635 64.3812 57.8141 64.3142C57.8063 64.3127 57.7993 64.3086 57.7941 64.3025C57.789 64.2964 57.7861 64.2888 57.7859 64.2809C57.7857 64.2729 57.7883 64.2652 57.7931 64.2589C57.7979 64.2526 57.8048 64.2481 57.8125 64.2463Z" fill="#263238"/>
<path d="M57.4081 64.4722C57.9611 64.3821 58.6326 64.4801 59.0449 64.8814C59.0607 64.8972 59.0449 64.9209 59.0212 64.9146C58.4982 64.7352 57.9573 64.6123 57.4081 64.548C57.398 64.548 57.3884 64.544 57.3813 64.5369C57.3741 64.5298 57.3701 64.5202 57.3701 64.5101C57.3701 64.5001 57.3741 64.4904 57.3813 64.4833C57.3884 64.4762 57.398 64.4722 57.4081 64.4722Z" fill="#263238"/>
<path d="M55.008 66.9781C55.3003 67.0681 63.6032 66.8517 63.9145 66.6431C64.0346 66.5657 64.0725 65.3538 64.0725 63.8892V63.8402L58.7131 63.9192V64.0093C58.7131 64.0093 55.5721 65.5134 55.2545 65.7789C54.9369 66.0443 54.7221 66.888 55.008 66.9781Z" fill="#37474F"/>
<path d="M55.0933 66.6526C56.4932 66.5831 62.1417 66.4298 63.529 66.4662C63.54 66.4662 63.54 66.4741 63.529 66.4741C62.1449 66.5752 56.4948 66.6826 55.0949 66.6763C55.0649 66.6842 55.0649 66.6542 55.0933 66.6526Z" fill="#263238"/>
<path d="M65.1074 41.0724C65.1074 41.0724 64.6666 50.0562 64.6508 50.2695C64.6508 50.3517 64.4454 64.2146 64.4454 64.2146L58.187 64.2715C58.187 64.2715 59.0433 51.276 59.135 50.0073C59.146 49.8603 59.5 41.1229 60.9852 35.3212H67.7128C67.7128 35.3212 67.6543 38.3595 66.2734 40.5573C65.8754 40.7069 65.4861 40.8789 65.1074 41.0724Z" fill="#455A64"/>
<path d="M64.6208 41.2462C64.9526 41.0661 65.2907 40.9033 65.6383 40.7548C65.9859 40.6063 66.3398 40.472 66.6858 40.3187C66.6985 40.3187 66.7095 40.3314 66.6969 40.3377C66.3572 40.5131 66.0238 40.7011 65.6794 40.867C65.3416 41.0296 64.9932 41.1689 64.6366 41.2841C64.6315 41.2862 64.6259 41.2862 64.6208 41.2841C64.6158 41.2821 64.6118 41.2781 64.6097 41.273C64.6076 41.268 64.6076 41.2624 64.6097 41.2573C64.6117 41.2523 64.6157 41.2483 64.6208 41.2462Z" fill="#263238"/>
<path d="M65.0821 41.0629C65.0821 41.0503 65.1042 41.0534 65.1027 41.0629C64.8767 42.7472 64.5718 62.7642 64.5196 63.2429C64.5196 63.2505 64.5166 63.2577 64.5113 63.2631C64.506 63.2684 64.4987 63.2714 64.4912 63.2714C64.4837 63.2714 64.4764 63.2684 64.4711 63.2631C64.4658 63.2577 64.4628 63.2505 64.4628 63.2429C64.4517 62.3961 64.4912 46.664 65.0821 41.0629Z" fill="#263238"/>
<path d="M61.9901 35.9579C61.8178 36.8238 61.6978 37.6959 61.5682 38.5744C61.4386 39.4529 61.3138 40.3251 61.1969 41.202C60.9662 42.9273 60.7608 44.6553 60.5807 46.3859C60.2183 49.8883 59.955 53.399 59.7907 56.9182C59.6969 58.8964 59.6401 60.8766 59.6201 62.859C59.6201 62.8748 59.6453 62.8732 59.6453 62.859C59.7654 59.3388 59.9361 55.8201 60.2031 52.3078C60.4701 48.7954 60.8209 45.3021 61.249 41.8134C61.3681 40.8465 61.4924 39.8806 61.6219 38.9157C61.7562 37.9329 61.9142 36.9533 62.028 35.9674C62.0232 35.9437 61.9901 35.9342 61.9901 35.9579Z" fill="#263238"/>
<path d="M64.1057 63.3504C63.9417 63.3285 63.7766 63.3153 63.6111 63.3109C63.4279 63.2983 63.2446 63.2856 63.0613 63.2777C62.7074 63.2635 62.355 63.2572 62.0011 63.2572C61.287 63.2572 60.5791 63.2572 59.8602 63.2809C59.4557 63.2935 59.0497 63.3093 58.6436 63.3315C58.6278 63.3315 58.6294 63.3552 58.6436 63.3552C59.3499 63.3804 60.0577 63.3915 60.7656 63.4041C61.4734 63.4168 62.1797 63.431 62.8859 63.4184C63.0897 63.4184 63.292 63.4184 63.4942 63.401C63.6965 63.3836 63.905 63.401 64.1025 63.3725C64.1152 63.3662 64.1199 63.352 64.1057 63.3504Z" fill="#263238"/>
<path d="M59.4384 33.7585C60.0941 33.4283 62.6537 32.2291 62.7564 32.0442C62.8591 31.8594 63.845 28.2886 64.1088 27.6297C64.3727 26.9709 65.1548 27.3343 65.1501 28.3739C65.1453 29.4135 65.2164 33.0128 65.0663 33.5879C64.9162 34.163 62.1086 36.4319 61.5903 36.9185C61.2001 37.3056 59.0718 33.9418 59.4384 33.7585Z" fill="#AD6359"/>
<path d="M62.1133 36.4367C61.7543 36.7953 61.3722 37.1299 60.9694 37.4384C60.6423 37.6691 59.6801 38.3058 59.3894 37.9693C59.1919 37.7402 59.7054 37.3009 60.0735 36.9802C60.2647 36.8127 60.459 36.4857 60.3437 36.3656C60.1446 36.1554 59.658 36.601 59.3578 36.9486C58.7748 37.6201 58.0669 38.7103 57.4965 38.4938C57.2817 38.4117 57.3891 38.0909 57.5882 37.7449C57.2248 38.1936 56.814 38.5997 56.5707 38.5175C56.5072 38.4968 56.4544 38.4523 56.4231 38.3933C56.3919 38.3344 56.3847 38.2656 56.4032 38.2015C56.3541 38.2486 56.2922 38.2801 56.2252 38.2919C56.1583 38.3037 56.0893 38.2954 56.0271 38.2679C55.8233 38.162 55.817 37.9045 55.8992 37.609C55.8699 37.6158 55.8394 37.6155 55.8102 37.6081C55.7811 37.6007 55.7541 37.5864 55.7317 37.5664C55.2482 37.1903 56.3637 35.2501 56.8724 34.9309C57.8912 34.3205 58.989 33.8532 60.1351 33.5421C60.9504 33.8376 62.1149 36.4351 62.1133 36.4367Z" fill="#AD6359"/>
<path d="M59.2108 35.7399C58.8435 35.9307 58.523 36.2005 58.2723 36.5299C57.9816 36.9201 57.7983 37.3767 57.5534 37.7939C57.5534 37.8049 57.566 37.816 57.5708 37.8034C57.6845 37.5964 57.8188 37.3973 57.9389 37.1935C58.059 36.9897 58.1696 36.7906 58.3007 36.601C58.5375 36.2525 58.8503 35.9624 59.2156 35.7525C59.2156 35.7525 59.2156 35.7383 59.2108 35.7399Z" fill="#263238"/>
<path d="M58.6721 35.1553C58.2744 35.4053 57.9037 35.696 57.5661 36.0227C57.2074 36.3908 56.9925 36.8664 56.7761 37.3262C56.6465 37.6032 56.5238 37.8824 56.4079 38.1636C56.4079 38.1762 56.419 38.1857 56.4253 38.1731C56.6418 37.6991 56.8709 37.2251 57.1142 36.7748C57.3381 36.3469 57.6441 35.9673 58.0148 35.6577C58.2281 35.4823 58.4524 35.3212 58.6784 35.1632C58.6815 35.16 58.6721 35.1521 58.6721 35.1553Z" fill="#263238"/>
<path d="M58.0132 34.7097C57.6321 34.9032 57.289 35.1638 57.0004 35.4792C56.6822 35.8939 56.4168 36.3466 56.2104 36.8269C56.0951 37.0829 55.9892 37.342 55.8865 37.6043C55.8865 37.6137 55.9007 37.6216 55.9055 37.6043C56.1474 37.0259 56.4266 36.4638 56.7413 35.9216C56.8871 35.6611 57.072 35.4245 57.2895 35.22C57.5162 35.0288 57.7583 34.8565 58.0132 34.705C58.0132 34.705 58.0148 34.7081 58.0132 34.7097Z" fill="#263238"/>
<path d="M59.8823 33.1961L63.0597 36.3924C63.0597 36.3924 64.9841 34.5327 65.1911 33.5942C65.3981 32.6557 65.4044 29.0454 65.1911 27.9584C64.9778 26.8713 64.2763 26.5142 63.8055 28.0121C63.3346 29.5099 62.7627 31.8562 62.7184 31.9431C62.6742 32.03 59.8823 33.1961 59.8823 33.1961Z" fill="#407BFF"/>
<path d="M63.6127 35.4002C63.4134 35.1745 63.2024 34.9594 62.9807 34.7556C62.7658 34.5439 62.5446 34.3416 62.3218 34.1378C61.8763 33.7318 61.4181 33.3368 60.9488 32.9576C60.9346 32.9449 60.9125 32.9576 60.9267 32.9781C61.3486 33.4158 61.7862 33.8424 62.2318 34.2547C62.453 34.4586 62.6758 34.6608 62.9049 34.8567C63.1243 35.0579 63.3542 35.2472 63.5937 35.4239C63.6095 35.4287 63.6238 35.4081 63.6127 35.4002Z" fill="#263238"/>
<path d="M63.2367 28.6204C63.6001 28.6488 64.3774 27.9884 64.6903 27.4322C64.68 27.1151 64.6536 26.7987 64.6113 26.4842C64.5844 26.1809 64.5623 25.8427 64.5654 25.5362C64.5654 25.4714 64.3474 25.5868 64.3474 25.5868L63.9461 25.6816L62.6157 25.9976C62.7239 26.3864 62.7839 26.787 62.7943 27.1905C62.7929 27.2329 62.7882 27.2752 62.78 27.3169C62.78 27.3169 62.78 27.3295 62.78 27.339C62.7358 27.5728 62.6694 28.5761 63.2367 28.6204Z" fill="#AD6359"/>
<path d="M62.7801 27.3106C62.7801 27.3106 62.7801 27.3233 62.7801 27.3328C62.8466 27.3415 62.9136 27.3452 62.9807 27.3438C64.2905 27.3249 64.4675 25.6595 64.4675 25.6595L63.9493 25.6785L62.6189 25.9945C62.7271 26.3833 62.7871 26.784 62.7974 27.1874C62.7949 27.2289 62.7891 27.2701 62.7801 27.3106Z" fill="#263238"/>
<path d="M64.6192 22.9024C64.9067 23.5644 64.7772 25.5884 64.3332 26.0845C63.7012 26.805 62.5494 26.9977 61.9079 26.2093C61.287 25.4462 61.5113 22.8139 62.0106 22.351C62.7453 21.6684 64.2021 21.9244 64.6192 22.9024Z" fill="#AD6359"/>
<path d="M61.6124 23.457C61.6124 23.457 61.4544 24.2154 61.2964 24.9691L61.5524 24.9359L61.4939 25.2772C61.5858 25.2979 61.6809 25.2991 61.7732 25.2805C61.8655 25.262 61.9528 25.2243 62.0296 25.1698L61.6124 23.457Z" fill="#AD6359"/>
<path d="M61.8874 24.2802C61.8874 24.2802 61.8984 24.2802 61.8968 24.2928C61.8779 24.4287 61.8795 24.5867 61.998 24.6451C61.8479 24.6151 61.8479 24.405 61.8874 24.2802Z" fill="#263238"/>
<path d="M62.0248 24.1506C62.2444 24.1506 62.2144 24.5977 62.0106 24.5914C61.8068 24.585 61.8399 24.1458 62.0248 24.1506Z" fill="#263238"/>
<path d="M62.2113 23.9926C62.1528 23.9736 62.1007 23.9452 62.0533 23.9215C61.9905 23.9043 61.935 23.8672 61.8953 23.8156C61.8863 23.7972 61.8837 23.7763 61.888 23.7562C61.8923 23.7362 61.9032 23.7181 61.919 23.705C61.9535 23.6826 61.9934 23.6698 62.0346 23.6682C62.0757 23.6665 62.1166 23.6759 62.1528 23.6955C62.2318 23.7236 62.2977 23.7799 62.3377 23.8535C62.3475 23.8717 62.3514 23.8924 62.349 23.9129C62.3465 23.9334 62.3377 23.9526 62.3238 23.9679C62.3099 23.9832 62.2916 23.9937 62.2715 23.9982C62.2513 24.0026 62.2303 24.0006 62.2113 23.9926Z" fill="#263238"/>
<path d="M62.0106 25.5615C61.9758 25.5915 61.9395 25.6326 61.8905 25.6342C61.8396 25.6292 61.7902 25.6141 61.7451 25.59C61.7628 25.6184 61.7879 25.6413 61.8177 25.6564C61.8475 25.6714 61.8809 25.678 61.9142 25.6753C61.9423 25.67 61.9683 25.6566 61.9888 25.6366C62.0093 25.6167 62.0235 25.5911 62.0295 25.5631L62.0106 25.5615Z" fill="#263238"/>
<path d="M62.0675 25.1444C62.0102 25.2113 61.9359 25.2613 61.8524 25.2892C61.7689 25.317 61.6794 25.3216 61.5935 25.3024C61.584 25.3024 61.5793 25.2898 61.5824 25.2898C61.7528 25.2865 61.9181 25.2314 62.0564 25.1318C62.0722 25.1302 62.077 25.1302 62.0675 25.1444Z" fill="#263238"/>
<path d="M61.7641 22.8092C61.3059 22.6717 60.9868 21.6605 61.1463 21.2861C61.3059 20.9116 61.6819 21.5025 61.6819 21.5025C61.6819 21.5025 61.7199 21.1486 61.881 21.1091C62.0422 21.0696 62.3424 21.5562 62.3424 21.5562C62.3424 21.5562 63.8813 21.6542 64.2099 21.7727C64.5386 21.8912 64.6381 22.3336 64.6381 22.3336C64.7752 22.3944 64.8973 22.4844 64.9958 22.5974C65.0944 22.7104 65.1669 22.8437 65.2085 22.9877C65.3665 23.4996 64.8578 25.4225 64.5402 25.6832C64.2226 25.9439 63.3425 24.4808 63.3425 24.4808C63.3425 24.4808 63.1055 24.5124 63.0076 24.0384C62.8638 23.3353 62.8243 22.8882 62.4751 22.8171C62.239 22.7906 62.0008 22.788 61.7641 22.8092Z" fill="#263238"/>
<path d="M63.2699 24.5645C63.2699 24.5645 63.6585 23.882 63.9651 24.0147C64.2716 24.1474 64.0204 25.108 63.6901 25.2676C63.6493 25.291 63.6041 25.3059 63.5574 25.3114C63.5106 25.3169 63.4632 25.3129 63.4181 25.2996C63.3729 25.2863 63.3309 25.264 63.2946 25.2341C63.2582 25.2042 63.2283 25.1672 63.2067 25.1254L63.2699 24.5645Z" fill="#AD6359"/>
<path d="M63.8861 24.2881C63.8861 24.2881 63.894 24.2881 63.8861 24.2976C63.7811 24.3625 63.691 24.4489 63.6216 24.551C63.5522 24.653 63.505 24.7686 63.4832 24.8901C63.4947 24.8646 63.5117 24.8419 63.5329 24.8236C63.5541 24.8054 63.579 24.7919 63.6059 24.7843C63.6328 24.7766 63.6611 24.7749 63.6887 24.7792C63.7164 24.7836 63.7427 24.7939 63.766 24.8095V24.8237C63.7227 24.8139 63.6775 24.818 63.6367 24.8353C63.5959 24.8526 63.5615 24.8822 63.5385 24.9201C63.4993 24.9831 63.4675 25.0505 63.4437 25.1207C63.4342 25.1444 63.3947 25.1365 63.3994 25.1097C63.3631 24.8 63.5606 24.3497 63.8861 24.2881Z" fill="#263238"/>
<path d="M63.1513 29.2856C61.9411 31.6145 59.8002 34.231 57.713 35.2075C56.4411 35.8 55.501 35.4808 55.1234 35.0084C54.5751 34.3306 55.6432 29.9745 56.4664 28.6615C56.735 28.2365 60.7134 29.352 60.4464 29.8181C60.1794 30.2842 61.3944 28.889 62.7074 27.8415C64.0551 26.7592 63.886 27.8794 63.1513 29.2856Z" fill="#AD6359"/>
<path d="M57.7399 26.3389C58.2139 25.985 58.74 25.5394 59.3404 25.3672C59.9408 25.195 60.6787 25.8317 60.7482 26.0561C60.8177 26.2804 61.0247 27.7609 60.4322 27.9442C59.8397 28.1275 59.8634 26.9346 59.8002 26.8176C59.737 26.7007 59.6675 26.549 59.5584 26.5949C59.4494 26.6407 57.7636 28.1749 57.7636 28.1749L57.7399 26.3389Z" fill="#AD6359"/>
<path d="M57.8031 26.4099C57.8363 26.4005 59.2425 25.2771 59.8444 25.1049C60.4464 24.9326 61.1827 25.5694 61.2522 25.7953C61.3217 26.0213 61.5287 27.4986 60.9362 27.6818C60.3437 27.8651 60.3674 26.6722 60.3042 26.5553C60.241 26.4384 60.1731 26.2867 60.064 26.3341C59.955 26.3815 58.2692 27.9141 58.2692 27.9141L57.8031 26.4099Z" fill="#AD6359"/>
<path d="M60.7055 27.6693C60.6101 27.5835 60.5383 27.4747 60.497 27.3533C60.4451 27.2295 60.4131 27.0983 60.4022 26.9646C60.4023 26.8471 60.3927 26.7298 60.3737 26.6138C60.3386 26.5035 60.2768 26.4036 60.1936 26.3231C60.1209 26.2536 60.0356 26.3089 59.9756 26.3595C59.8769 26.4352 59.7835 26.5176 59.6959 26.6059L59.4083 26.884C59.3062 26.9767 59.2101 27.0759 59.1208 27.1811C59.1208 27.189 59.1208 27.2016 59.1334 27.1953C59.2243 27.1236 59.3114 27.0471 59.3941 26.9662C59.491 26.8777 59.589 26.7908 59.688 26.7055C59.7796 26.6249 59.8681 26.5396 59.9613 26.4606C59.9945 26.4321 60.0577 26.3689 60.1051 26.3642C60.1525 26.3595 60.211 26.4669 60.2315 26.5001C60.2899 26.5994 60.3174 26.7138 60.3105 26.8287C60.3113 26.9451 60.324 27.061 60.3484 27.1747C60.3704 27.2821 60.4111 27.3848 60.4685 27.4781C60.5339 27.5574 60.6081 27.629 60.6897 27.6914C60.7008 27.6961 60.7166 27.6772 60.7055 27.6693Z" fill="#263238"/>
<path d="M56.4474 28.7074C56.4474 28.7074 57.16 26.9867 57.8347 26.1383C58.4303 25.3862 59.1966 24.7858 59.8413 24.5804C60.4859 24.375 62.0849 26.0498 61.554 26.3184C60.9947 26.5965 60.2489 25.7433 60.0182 25.955C59.7607 26.192 59.4589 26.587 59.5806 26.9188C59.7022 27.2506 60.2126 27.7625 60.7577 27.5761C61.3028 27.3896 61.2459 26.647 61.7294 26.4006C62.2128 26.1541 62.3377 27.0152 62.1433 27.6646C61.9257 28.3037 61.5312 28.868 61.0057 29.292C60.5807 29.619 59.2883 30.714 59.2883 30.714L56.4474 28.7074Z" fill="#AD6359"/>
<path d="M61.3438 26.3721C61.1332 26.3803 60.9242 26.3317 60.7387 26.2315C60.5601 26.1325 60.3754 26.0449 60.1857 25.9692C60.1671 25.9624 60.1472 25.9598 60.1275 25.9617C60.1078 25.9636 60.0888 25.97 60.0719 25.9803C60.0331 26.0071 59.9971 26.0378 59.9645 26.0719C59.8949 26.1445 59.8315 26.2227 59.7749 26.3058C59.6675 26.4638 59.5632 26.6644 59.6169 26.8366C59.6762 27.0236 59.7855 27.1908 59.9329 27.3201C60.0766 27.456 60.2597 27.5429 60.4559 27.5682C60.5536 27.574 60.6515 27.5622 60.745 27.5334C60.8391 27.4985 60.9251 27.4447 60.9978 27.3754C61.1442 27.2312 61.257 27.0564 61.328 26.8635C61.2768 27.0686 61.1777 27.2587 61.0389 27.4181C60.9631 27.4961 60.8715 27.557 60.7703 27.5966C60.6694 27.635 60.5622 27.6538 60.4543 27.6519C60.2349 27.6349 60.0278 27.5441 59.8665 27.3944C59.6972 27.2544 59.5703 27.07 59.5 26.8619C59.4705 26.7489 59.48 26.6292 59.5268 26.5222C59.5678 26.4214 59.6208 26.3259 59.6848 26.2378C59.7463 26.1506 59.815 26.0686 59.8902 25.9929C59.9302 25.9533 59.9742 25.9178 60.0214 25.8871C60.0501 25.8727 60.0813 25.8642 60.1133 25.862C60.1453 25.8598 60.1774 25.8641 60.2078 25.8744C60.3083 25.9125 60.4047 25.9606 60.4954 26.0182L60.764 26.1762C60.9377 26.2892 61.1371 26.3566 61.3438 26.3721Z" fill="#263238"/>
<path d="M55.9655 28.8605L60.5333 29.7121L60.4701 29.8559C60.4701 29.8559 62.3424 27.9141 63.1561 27.3026C64.1041 26.5885 64.0567 27.6044 63.6096 28.6504C63.1624 29.6963 60.4496 34.43 57.9421 35.7193C57.0668 36.168 55.1866 35.5818 54.978 34.9151C54.5988 33.7206 55.9655 28.8605 55.9655 28.8605Z" fill="#407BFF"/>
<path d="M60.4812 29.8307C60.2738 29.9906 60.077 30.1637 59.8918 30.3489C59.6485 30.578 59.4099 30.8103 59.1713 31.0441C58.6942 31.5086 58.2202 31.9789 57.7493 32.455C57.6909 32.5151 57.634 32.5767 57.5771 32.6367C57.4776 32.681 57.3828 32.7331 57.2864 32.7821C57.19 32.8311 57.0557 32.9022 56.9372 32.9591C56.935 32.9609 56.9334 32.9634 56.9328 32.9662C56.9321 32.969 56.9325 32.972 56.9338 32.9746C56.9351 32.9772 56.9372 32.9793 56.9399 32.9805C56.9425 32.9817 56.9455 32.9819 56.9483 32.9812C57.0652 32.9306 57.1837 32.8816 57.2975 32.8232C57.3628 32.7916 57.4276 32.7584 57.4918 32.7236C57.3148 32.9069 57.1379 33.0902 56.9641 33.2766C56.9546 33.2877 56.9641 33.3035 56.983 33.294C57.9611 32.4076 58.9091 31.4833 59.827 30.5338C59.9582 30.3979 60.3753 29.995 60.4891 29.8449C60.5017 29.8386 60.4922 29.8228 60.4812 29.8307Z" fill="#263238"/>
<path d="M59.7148 30.4579C59.427 30.3697 59.1349 30.2964 58.8395 30.2383C58.5456 30.1704 58.2502 30.1119 57.9547 30.0566C57.3622 29.9428 56.765 29.8465 56.1677 29.7675C56.1472 29.7675 56.1393 29.7927 56.1677 29.7975C56.7555 29.9555 57.3512 30.0835 57.9468 30.202C58.2423 30.2604 58.5377 30.3173 58.8364 30.36C59.1284 30.4167 59.4232 30.4579 59.7196 30.4832C59.7291 30.4879 59.7291 30.4627 59.7148 30.4579Z" fill="#263238"/>
<path d="M63.1372 29.5826C62.4499 30.6634 61.7499 31.7346 60.9947 32.7695C60.7735 33.0713 60.5586 33.3778 60.3342 33.6796C60.3342 33.6922 60.3421 33.7096 60.3532 33.697C61.175 32.7044 61.9222 31.6524 62.5889 30.5496C62.7832 30.2336 62.9713 29.9176 63.1466 29.589L63.1372 29.5826Z" fill="#263238"/>
<path d="M68.8504 38.1036C68.8299 38.1257 60.211 38.2916 60.1304 38.2047C60.0182 38.0814 61.4276 29.4404 62.7974 27.5571C63.1403 27.0831 64.3632 26.7671 64.872 27.2411C66.3477 28.6267 66.6574 29.7896 67.0413 30.7408C67.4155 31.7679 67.7289 32.8162 67.9798 33.8802C68.4949 35.9121 68.9199 38.0214 68.8504 38.1036Z" fill="#407BFF"/>
<path d="M62.1623 29.0454C61.9095 29.7043 61.6883 30.3774 61.4844 31.0536C61.2806 31.7298 61.0989 32.3998 60.9646 33.0871C60.9267 33.2814 60.8904 33.4757 60.8572 33.6701C60.824 33.8644 60.7971 34.0746 60.7466 34.2721C60.7466 34.2879 60.7671 34.2926 60.7703 34.2721C60.8319 33.9272 60.9142 33.5864 61.0168 33.2514C61.1068 32.9069 61.2016 32.5641 61.2885 32.2181C61.456 31.5387 61.6409 30.864 61.8368 30.1925C61.9505 29.8086 62.0706 29.4278 62.1891 29.0454C62.1939 29.0344 62.1686 29.0296 62.1623 29.0454Z" fill="#263238"/>
<path d="M22.9388 56.4963L23.2722 58.5029L25.5395 70.7432H25.9044L24.2565 58.5029L24.0132 56.4963H22.9388Z" fill="#DBDBDB"/>
<path d="M24.0132 56.4963H22.9388L23.2722 58.5029H24.2565L24.0132 56.4963Z" fill="#A6A6A6"/>
<path d="M15.8209 70.7432H16.1858L18.4531 58.5029L18.7865 56.4963H17.7121L17.4688 58.5029L15.8209 70.7432Z" fill="#DBDBDB"/>
<path d="M17.7121 56.4963L17.4688 58.5029H18.4532L18.7865 56.4963H17.7121Z" fill="#A6A6A6"/>
<path d="M9.02371 70.7432H9.38869L11.6544 58.5029L11.9894 56.4963H10.915L10.6717 58.5029L9.02371 70.7432Z" fill="#DBDBDB"/>
<path d="M10.6717 58.5029H11.6544L11.9894 56.4963H10.915L10.6717 58.5029Z" fill="#A6A6A6"/>
<path d="M9.60199 57.4396H26.2094V55.689H19.9921L17.9033 43.5341H10.2356L9.60199 57.4396Z" fill="#DBDBDB"/>
<path d="M9.60199 57.4396H10.5073L11.0982 43.5341H10.2356L9.60199 57.4396Z" fill="#A6A6A6"/>
<path d="M43.967 69.3338C43.6589 69.4396 34.8551 69.4697 34.5186 69.2579C34.389 69.1789 34.31 67.896 34.2595 66.3444L29.7233 61.0119L36.4731 60.974L39.9364 66.3081C39.9364 66.3081 43.3113 67.8043 43.6573 68.0761C44.0033 68.3479 44.2735 69.2311 43.967 69.3338Z" fill="#DD6A57"/>
<path d="M43.967 69.3338C43.6589 69.4397 34.8551 69.4697 34.5186 69.258C34.4033 69.1884 34.329 68.1741 34.2784 66.8643C35.1237 67.0112 42.2574 68.2373 42.5956 68.0493C42.9337 67.8612 41.8593 67.1834 41.8593 67.1834H41.8719C42.6935 67.5626 43.4977 67.9497 43.6573 68.0745C43.9986 68.3463 44.2735 69.2311 43.967 69.3338Z" fill="#263238"/>
<path d="M39.2665 67.8075C39.2665 67.8075 40.1718 66.7569 41.8593 67.1835L39.2665 67.8075Z" fill="#263238"/>
<path d="M40.5242 66.2481L37.094 66.5846L33.7081 66.918C33.7081 66.918 26.9141 57.2595 26.5017 56.8376C25.5537 55.8896 17.9239 54.3507 15.8651 52.3046C13.6847 50.1384 14.6359 47.3987 14.6359 47.3987H20.3239C20.3239 47.3987 21.0444 49.2252 21.3477 49.32C24.6325 50.3406 29.0076 51.6236 30.4296 52.8781C32.9797 55.1328 40.5242 66.2481 40.5242 66.2481Z" fill="#263238"/>
<path d="M39.4561 65.2022C38.4907 65.2922 38.7656 65.2527 37.8034 65.3602C37.3294 65.4091 34.2342 65.7394 33.8029 65.8642C33.7918 65.8642 33.8029 65.8831 33.8029 65.8831C34.2516 65.9053 37.3421 65.5213 37.8129 65.4629C38.7751 65.3412 38.497 65.3665 39.4577 65.2353C39.4621 65.2351 39.4662 65.2332 39.4692 65.2299C39.4721 65.2267 39.4737 65.2224 39.4735 65.218C39.4733 65.2136 39.4713 65.2094 39.4681 65.2065C39.4648 65.2035 39.4605 65.202 39.4561 65.2022Z" fill="#455A64"/>
<path d="M33.8897 65.2827C32.7743 63.758 31.6335 62.1828 30.4927 60.6754L28.7816 58.4145C28.4951 58.0363 28.2086 57.6598 27.9221 57.2848C27.6811 56.9465 27.4086 56.6317 27.1084 56.3447C26.7958 56.0827 26.4452 55.8696 26.0687 55.7127C25.6722 55.5357 25.2645 55.384 24.8537 55.2387C24.0005 54.9448 23.1315 54.7062 22.2673 54.4487C20.6636 53.9747 19.0393 53.4548 17.6584 52.4879C16.4165 51.6173 15.38 50.3249 15.0846 48.8096C15.048 48.6174 15.0279 48.4223 15.0245 48.2266C15.0245 48.2233 15.0232 48.2201 15.0208 48.2177C15.0185 48.2153 15.0153 48.214 15.0119 48.214C15.0086 48.214 15.0053 48.2153 15.003 48.2177C15.0006 48.2201 14.9993 48.2233 14.9993 48.2266C15.0303 48.9625 15.2212 49.6828 15.5586 50.3375C15.9127 51.0078 16.3879 51.6067 16.96 52.1039C18.1924 53.1957 19.7519 53.8261 21.3035 54.3159C22.163 54.5861 23.0415 54.82 23.8962 55.0822C24.3339 55.2165 24.7668 55.3572 25.195 55.5152C25.6056 55.6572 26.0053 55.8288 26.3911 56.0287C26.7664 56.2318 27.1007 56.5029 27.377 56.8281C27.6693 57.171 27.9284 57.5439 28.1986 57.9041C28.7674 58.6594 29.3378 59.4136 29.9097 60.1667C31.0584 61.6851 32.1992 63.2113 33.3652 64.7171C33.5105 64.9051 33.6575 65.09 33.8029 65.2764C33.8424 65.3364 33.9371 65.3475 33.8897 65.2827Z" fill="#455A64"/>
<path d="M29.4515 71.1619C29.1434 71.2615 20.3397 71.1477 20.0079 70.9297C19.8799 70.8507 21.2276 62.276 21.2276 62.276L27.1179 62.3345L25.4731 68.0714C25.4731 68.0714 28.8227 69.6214 29.1624 69.8995C29.5021 70.1776 29.758 71.064 29.4515 71.1619Z" fill="#DD6A57"/>
<path d="M29.4515 71.1619C29.1434 71.2615 20.3397 71.1477 20.0079 70.9297C19.9668 70.9044 20.079 69.9911 20.2512 68.7666C20.6099 66.2102 21.2261 62.276 21.2261 62.276L27.1163 62.3345L25.4715 68.0714C25.4715 68.0714 26.5127 68.5533 27.4923 69.0273C28.2697 69.4034 29.0076 69.7747 29.1577 69.8979C29.5005 70.176 29.7581 71.064 29.4515 71.1619Z" fill="#DD6A57"/>
<path d="M29.4515 71.1619C29.1434 71.2614 20.3397 71.1477 20.0079 70.9296C19.9668 70.9043 20.079 69.9911 20.2512 68.7666C21.1202 68.9151 23.1963 69.2675 25.0165 69.544L25.2282 69.5756C26.7766 69.8062 28.0912 69.9721 28.2302 69.8916C28.5794 69.6956 27.5524 69.0605 27.4955 69.0273C28.2729 69.4033 29.0107 69.7746 29.1608 69.8979C29.5005 70.176 29.7581 71.0639 29.4515 71.1619Z" fill="#263238"/>
<path d="M24.9043 69.653C24.9043 69.653 25.8096 68.6007 27.4955 69.021L24.9043 69.653Z" fill="#263238"/>
<path d="M25.8744 67.9939L19.6966 67.9639C19.6966 67.9639 22.5896 57.0177 22.4506 56.1913C22.3858 55.809 15.5223 56.3841 13.0575 53.7992C10.9371 51.5746 12.89 47.4081 12.89 47.4081L19.5007 47.2501C19.5007 47.2501 18.8908 49.0387 18.4753 50.1478C18.4753 50.1478 27.5397 50.7877 28.5573 52.7754C29.6427 54.8989 25.8744 67.9939 25.8744 67.9939Z" fill="#263238"/>
<path d="M19.33 47.6894C19.2637 48.0402 19.2068 48.3925 19.1262 48.7401C19.0883 48.8981 19.0535 49.0703 19.0046 49.2315C18.9895 49.3025 18.9504 49.3661 18.894 49.4116C18.8271 49.4491 18.7508 49.4661 18.6743 49.4606C18.6392 49.4657 18.6034 49.4626 18.5696 49.4516C18.5359 49.4407 18.505 49.4221 18.4796 49.3974C18.4541 49.3727 18.4346 49.3425 18.4226 49.3091C18.4107 49.2756 18.4065 49.2399 18.4105 49.2046C18.4105 48.8792 18.6285 47.77 18.6412 47.6784C18.6412 47.661 18.5843 47.6531 18.5795 47.6784C18.4215 48.3751 18.2051 49.2584 18.3378 49.4337C18.4096 49.5214 18.5105 49.5805 18.6221 49.6002C18.7336 49.6199 18.8486 49.5989 18.9461 49.5412C19.0302 49.4729 19.0863 49.3762 19.1041 49.2694C19.1436 49.1114 19.1673 48.9534 19.1957 48.8065C19.2621 48.4399 19.3332 48.0749 19.3806 47.7005C19.379 47.6955 19.3761 47.6911 19.3722 47.6875C19.3683 47.684 19.3636 47.6816 19.3585 47.6805C19.3534 47.6794 19.3481 47.6796 19.3431 47.6812C19.3381 47.6827 19.3336 47.6856 19.33 47.6894Z" fill="#455A64"/>
<path d="M18.5717 49.5885C18.5603 49.6328 18.5513 49.6776 18.5448 49.7228C18.5353 49.7686 18.5258 49.8129 18.5148 49.8571C18.5037 49.9014 18.4942 49.9472 18.4816 49.993C18.469 50.0388 18.4626 50.0815 18.4532 50.1273C18.4529 50.1311 18.4539 50.1349 18.456 50.138C18.4581 50.1412 18.4612 50.1436 18.4648 50.1448C18.4683 50.1461 18.4722 50.1461 18.4758 50.145C18.4795 50.1438 18.4826 50.1415 18.4848 50.1384C18.5055 50.0973 18.5239 50.0551 18.5401 50.012C18.5543 49.9661 18.5685 49.9219 18.5811 49.8761C18.5938 49.8303 18.6033 49.786 18.6127 49.7402C18.6262 49.6945 18.6342 49.6472 18.6364 49.5996C18.6364 49.568 18.5827 49.5553 18.5717 49.5885Z" fill="#455A64"/>
<path d="M23.536 55.8928C23.4096 55.5515 23.0478 55.5041 22.7302 55.4835C22.2752 55.4541 21.8207 55.4156 21.3667 55.3682C20.4598 55.2734 19.5571 55.1428 18.6586 54.9764C17.8042 54.8354 16.9598 54.6396 16.1306 54.3902C15.3646 54.1682 14.6569 53.7804 14.0576 53.2542C13.4961 52.7592 13.1256 52.0834 13.0101 51.3439C12.9676 50.8933 12.9798 50.4392 13.0464 49.9915C13.0985 49.5412 13.1633 49.094 13.2534 48.65C13.2992 48.4304 13.3498 48.214 13.4114 47.9991C13.4105 47.9967 13.4089 47.9946 13.4068 47.9931C13.4046 47.9916 13.4021 47.9908 13.3995 47.9908C13.397 47.9908 13.3944 47.9916 13.3923 47.9931C13.3902 47.9946 13.3886 47.9967 13.3877 47.9991C13.1589 48.8633 13.0003 49.7447 12.9137 50.6345C12.8744 51.0415 12.907 51.4523 13.0101 51.848C13.113 52.1886 13.2733 52.5092 13.4841 52.796C14.4194 54.0916 16.0294 54.5608 17.5178 54.8816C18.4089 55.0743 19.3043 55.2323 20.2038 55.3556C20.6415 55.414 21.0807 55.4662 21.5199 55.5136C21.9592 55.561 22.4095 55.5799 22.8535 55.6194C22.9482 55.6166 23.0426 55.6335 23.1304 55.6692C23.2183 55.7048 23.2978 55.7584 23.3638 55.8264C23.4116 55.9055 23.4433 55.9933 23.4571 56.0846C23.4709 56.176 23.4666 56.2692 23.4444 56.3589C23.4112 56.5658 23.3496 56.7697 23.299 56.9735C23.2485 57.1773 23.19 57.408 23.141 57.6244C22.9135 58.5293 22.6876 59.4357 22.4632 60.3436C22.0161 62.1496 21.5579 63.9555 21.1407 65.7693C21.0886 65.9937 21.038 66.2181 20.9906 66.444C20.9896 66.4482 20.9903 66.4526 20.9925 66.4563C20.9947 66.46 20.9983 66.4627 21.0025 66.4638C21.0067 66.4648 21.0111 66.4641 21.0148 66.4619C21.0185 66.4597 21.0212 66.4561 21.0222 66.4519C21.2845 65.556 21.4962 64.646 21.7317 63.7406C21.9671 62.8353 22.193 61.9299 22.419 61.0246C22.6449 60.1193 22.8708 59.225 23.0936 58.3244C23.199 57.8704 23.3106 57.4169 23.4286 56.964C23.506 56.6306 23.6608 56.2261 23.536 55.8928Z" fill="#455A64"/>
<path d="M25.9408 66.9448C25.225 66.9006 24.5077 66.8832 23.7904 66.8595C23.0731 66.8358 22.3589 66.8264 21.6432 66.839C21.2355 66.839 20.8295 66.8737 20.4218 66.8801C20.406 66.8801 20.4076 66.9038 20.4218 66.9038C21.1392 66.9038 21.8549 66.9606 22.5722 66.9638C23.2895 66.967 24.0037 66.9638 24.7194 66.9638C25.1255 66.9638 25.5331 66.978 25.9408 66.9749C25.9661 66.9717 25.9661 66.9464 25.9408 66.9448Z" fill="#455A64"/>
<path d="M15.9567 48.3735C15.9479 48.4048 15.9357 48.435 15.9204 48.4636C15.9186 48.4658 15.9176 48.4686 15.9176 48.4715C15.9176 48.4743 15.9186 48.4771 15.9204 48.4794C15.7735 48.9692 15.5886 49.4732 15.1588 49.7829C14.9381 49.9396 14.6923 50.0577 14.432 50.132C14.1287 50.2205 13.8127 50.2458 13.5077 50.3295C13.5011 50.3326 13.4956 50.3378 13.4922 50.3443C13.4888 50.3508 13.4877 50.3582 13.4889 50.3654C13.4902 50.3726 13.4938 50.3792 13.4992 50.3842C13.5046 50.3891 13.5115 50.3921 13.5188 50.3927C13.8612 50.4079 14.2041 50.3728 14.5363 50.2885C14.8228 50.2242 15.0922 50.0992 15.3263 49.9219C15.8003 49.538 15.9346 48.9597 15.9978 48.3767C15.9962 48.3561 15.9631 48.3561 15.9567 48.3735Z" fill="#455A64"/>
<path d="M28.374 52.4467C28.088 52.0628 27.6677 51.8558 27.2221 51.7105C24.2201 50.7245 20.5403 50.2885 18.5321 50.1226C18.5163 50.1226 18.51 50.1447 18.5321 50.1463C20.7031 50.4733 26.2599 51.2175 27.8304 52.1544C28.5035 52.5558 28.799 53.518 28.611 55.1011C28.4609 56.3651 28.295 57.7239 28.088 58.9737C28.088 59.018 28.1101 59.0148 28.1196 58.9737C28.3582 57.8456 28.5636 56.6116 28.7089 55.4677C28.8258 54.4786 29.0123 53.3031 28.374 52.4467Z" fill="#455A64"/>
<path d="M16.1337 34.5755C15.4227 35.4776 15.3437 36.8301 15.3437 36.8301C15.3437 36.8301 14.7307 38.2521 15.0277 38.9521C15.1099 39.1507 15.2392 39.3263 15.4043 39.4639C15.5695 39.6016 15.7655 39.697 15.9757 39.7421L15.862 39.3502C15.862 39.3502 16.178 39.8337 17.077 39.9364C17.976 40.0391 19.0867 39.633 19.6476 39.2586C19.9829 39.0395 20.2552 38.7367 20.4376 38.3801L20.2796 38.9884C20.5585 38.9227 20.8168 38.7891 21.0315 38.5994C21.2463 38.4098 21.4108 38.17 21.5105 37.9014C21.9023 36.9439 20.3097 35.8284 20.1548 35.5661C20 35.3038 19.6002 33.3004 17.5146 33.9055C17.5131 33.9071 16.6235 33.9561 16.1337 34.5755Z" fill="#263238"/>
<path d="M15.6739 39.7278C15.4147 39.623 15.1941 39.4409 15.0419 39.2064C14.8795 38.9795 14.7983 38.7045 14.8112 38.4258C14.8499 38.0948 14.9484 37.7736 15.102 37.4778C15.241 37.1618 15.4022 36.8632 15.5349 36.5488C15.5349 36.5314 15.5159 36.5204 15.5049 36.5346C15.3436 36.7799 15.1964 37.0341 15.064 37.2961C14.9236 37.537 14.8122 37.7937 14.7322 38.0609C14.6596 38.3079 14.6596 38.5706 14.7322 38.8177C14.7942 39.019 14.9049 39.2019 15.0546 39.3501C15.2399 39.509 15.4448 39.6434 15.6644 39.7499C15.6771 39.7546 15.696 39.7325 15.6739 39.7278Z" fill="#263238"/>
<path d="M21.5768 36.958C21.2324 36.2438 20.5056 35.852 20.0205 35.2532C19.7566 34.9277 19.5386 34.5596 19.2147 34.2894C19.2147 34.2815 19.1942 34.2894 19.2021 34.3036C19.4499 34.5644 19.6692 34.851 19.8562 35.1584C20.0744 35.4497 20.3216 35.7181 20.594 35.9594C21.0775 36.4145 21.6542 36.9517 21.6432 37.6706C21.6432 38.004 21.4852 38.3879 21.1692 38.5301C21.1565 38.5301 21.1692 38.557 21.1802 38.5491C21.3059 38.4802 21.4161 38.3864 21.5041 38.2733C21.5921 38.1603 21.6561 38.0305 21.6921 37.8918C21.7678 37.5768 21.7269 37.2451 21.5768 36.958Z" fill="#263238"/>
<path d="M21.6321 37.1556C21.6223 36.8692 21.5234 36.5931 21.3493 36.3656C21.1616 36.1539 20.9304 35.9852 20.6715 35.871C20.3839 35.7257 20.0837 35.593 19.8815 35.3323C19.8815 35.3212 19.8578 35.3323 19.8657 35.3465C20.1912 35.7762 20.7268 35.9311 21.1186 36.2787C21.5673 36.6768 21.6448 37.3246 21.4346 37.8587C21.2992 38.1898 21.0875 38.4843 20.8168 38.7182C20.8168 38.7182 20.8168 38.7293 20.8168 38.7182C21.2861 38.3453 21.6685 37.786 21.6321 37.1556Z" fill="#263238"/>
<path d="M19.6144 41.7201C20.7868 42.7787 24.9643 46.0098 26.4953 45.637C27.4986 45.3921 30.9968 43.2527 31.2069 42.0756C31.2985 41.5637 29.5495 39.151 29.1118 39.4939C28.6742 39.8368 25.9186 41.6569 25.5063 41.728C25.0939 41.7991 20.8674 39.99 19.4786 39.7151C17.0833 39.2285 18.984 41.1497 19.6144 41.7201Z" fill="#DD6A57"/>
<path d="M29.5779 38.3343C30.0867 38.0183 30.646 37.628 31.2606 37.5111C31.8752 37.3942 32.5515 38.0957 32.6005 38.3264C32.6494 38.557 32.7205 40.0486 32.1075 40.1765C31.4945 40.3045 31.6335 39.1195 31.5845 38.9979C31.5355 38.8762 31.4771 38.7182 31.3649 38.7545C31.2527 38.7909 29.4326 40.1765 29.4326 40.1765L29.5779 38.3343Z" fill="#DD6A57"/>
<path d="M29.6348 38.41C29.6696 38.41 31.1722 37.413 31.7868 37.2961C32.4014 37.1792 33.0776 37.8807 33.125 38.113C33.1724 38.3452 33.2451 39.8336 32.6337 39.9616C32.0222 40.0896 32.1597 38.9046 32.1091 38.7829C32.0585 38.6612 32.0032 38.5032 31.8895 38.5396C31.7757 38.5759 29.9587 39.9616 29.9587 39.9616L29.6348 38.41Z" fill="#DD6A57"/>
<path d="M32.4093 39.9285C32.3218 39.8326 32.2608 39.7155 32.2323 39.5888C32.192 39.461 32.1718 39.3278 32.1723 39.1938C32.1818 39.0765 32.1818 38.9587 32.1723 38.8415C32.1462 38.7281 32.0919 38.6232 32.0143 38.5365C31.9495 38.4591 31.8658 38.5081 31.7931 38.5507C31.6887 38.6184 31.5885 38.6923 31.4929 38.7719C31.387 38.8541 31.2843 38.9394 31.1769 39.0232C31.0662 39.1062 30.9607 39.1959 30.8609 39.2918C30.8609 39.2997 30.8609 39.3139 30.872 39.3076C30.9715 39.2475 31.06 39.1717 31.1532 39.1022C31.2464 39.0326 31.3633 38.9442 31.4692 38.8699C31.5751 38.7956 31.6635 38.7214 31.7647 38.6503C31.7994 38.6266 31.8689 38.5681 31.9227 38.5681C31.9764 38.5681 32.0175 38.6787 32.0364 38.7151C32.0853 38.8195 32.1018 38.9361 32.0838 39.05C32.0746 39.1658 32.0772 39.2823 32.0917 39.3976C32.1017 39.5079 32.1328 39.6151 32.1834 39.7136C32.2411 39.799 32.3084 39.8775 32.384 39.9475C32.403 39.9538 32.4204 39.938 32.4093 39.9285Z" fill="#263238"/>
<path d="M28.0311 40.4215C28.0311 40.4215 29.401 38.5255 29.6901 38.1415C30.2684 37.3784 32.9955 35.5361 33.4015 35.405C33.8076 35.2738 34.1362 36.0938 32.2955 37.4021C31.3254 38.0925 31.2638 38.7435 31.3475 39.0769C31.4313 39.4103 31.8942 39.9743 32.4535 39.84C33.0129 39.7057 33.2151 38.7972 33.7175 38.595C34.22 38.3927 34.0762 39.4245 33.8234 40.0549C33.5487 40.6717 33.1043 41.1978 32.542 41.5717C32.0886 41.8593 30.7029 42.8357 30.7029 42.8357L28.0311 40.4215Z" fill="#DD6A57"/>
<path d="M33.0934 39.2917C32.9149 39.5018 32.7158 39.7657 32.4362 39.8383C32.1565 39.911 31.9179 39.7609 31.7331 39.5508C31.535 39.3487 31.4219 39.0784 31.4171 38.7955C31.4311 38.5357 31.52 38.2855 31.673 38.0751C31.8604 37.8192 32.0839 37.592 32.3366 37.4004C32.3382 37.3997 32.3395 37.3986 32.3405 37.3972C32.3416 37.3958 32.3423 37.3943 32.3426 37.3926C32.343 37.3909 32.3429 37.3892 32.3424 37.3875C32.342 37.3859 32.3411 37.3843 32.34 37.3831C32.3389 37.3818 32.3374 37.3808 32.3358 37.3802C32.3342 37.3795 32.3325 37.3793 32.3308 37.3794C32.3291 37.3796 32.3275 37.3801 32.326 37.381C32.3245 37.3819 32.3233 37.3831 32.3224 37.3846C32.0838 37.5552 31.3396 38.0608 31.327 38.8145C31.3338 39.1029 31.4509 39.3776 31.6541 39.5824C31.8279 39.783 32.057 39.9632 32.3382 39.9284C32.6795 39.8842 32.9117 39.5508 33.1108 39.2964C33.1219 39.2838 33.1029 39.2806 33.0934 39.2917Z" fill="#263238"/>
<path d="M27.9079 39.8448L29.9161 43.7742C29.9161 43.7742 27.2648 45.7208 25.7859 45.844C23.9911 46.002 19.5813 42.1832 18.9177 41.529C17.8306 40.4546 17.6237 39.6046 18.4342 39.475C18.7502 39.4229 19.2242 39.475 19.8562 39.6789C20.5151 39.8858 24.4382 41.3837 25.5316 41.5132C26.132 41.5843 27.9079 39.8448 27.9079 39.8448Z" fill="#455A64"/>
<path d="M27.9063 39.8447L29.9161 43.7742C29.9161 43.7742 29.4768 44.0902 28.8543 44.4867C27.949 45.0555 26.6613 45.7697 25.7859 45.8424C23.9926 46.0004 19.5797 42.1815 18.9177 41.5274C18.1277 40.75 17.8117 40.0896 17.9934 39.7357C18.0408 39.6601 18.1055 39.597 18.1821 39.5514C18.2588 39.5058 18.3452 39.479 18.4342 39.4734C18.7502 39.4228 19.2242 39.4734 19.8562 39.6788C20.5151 39.8858 24.4382 41.3836 25.5316 41.5132C26.132 41.5843 27.9063 39.8447 27.9063 39.8447Z" fill="#455A64"/>
<path d="M29.9161 43.7742C29.9161 43.7742 29.4768 44.0902 28.8543 44.4867C28.4577 44.7348 27.9916 45.0113 27.516 45.2499C26.903 45.5564 26.2789 45.8013 25.778 45.8424C23.9847 46.0004 19.5718 42.1815 18.9098 41.5274C18.1198 40.75 17.8038 40.0896 17.9855 39.7357C18.0078 39.6918 18.039 39.6531 18.0771 39.6219C18.1767 39.5396 18.298 39.488 18.4263 39.4734C18.7423 39.4228 19.2163 39.4734 19.8483 39.6788C20.5072 39.8858 24.4303 41.3836 25.5237 41.5132C26.132 41.5859 27.9063 39.8463 27.9063 39.8463L29.9161 43.7742Z" fill="#455A64"/>
<path d="M29.096 43.9622C28.78 43.3902 27.5824 41.006 27.358 40.472C27.3422 40.4356 27.358 40.4167 27.3833 40.453C28.3661 42.142 28.8385 43.3729 29.1213 43.9496C29.1261 43.9638 29.1039 43.9764 29.096 43.9622Z" fill="#263238"/>
<path d="M27.5144 45.2483C26.9014 45.5548 26.2773 45.7997 25.7764 45.8408C23.9831 45.9988 19.5702 42.18 18.9082 41.5258C18.1182 40.7485 17.8022 40.088 17.9839 39.7341C18.0062 39.6903 18.0374 39.6515 18.0755 39.6204L27.5144 45.2483Z" fill="#263238"/>
<path d="M12.1774 49.1272C12.8094 49.2189 14.3183 49.3547 15.9252 49.4906C18.4879 49.7023 21.313 49.9077 21.313 49.9077L20.839 45.0097C20.839 45.0097 21.4947 44.0617 21.3746 43.1438C21.2355 42.1073 19.5797 39.9758 19.4027 39.8115C18.8039 39.2538 17.9397 38.922 17.1117 39.3675C16.9386 39.4618 16.7791 39.5793 16.6377 39.7167C16.6275 39.7254 16.618 39.7349 16.6093 39.7452C16.5635 39.7894 16.5145 39.8368 16.4687 39.8889C14.4099 42.112 12.1774 49.1272 12.1774 49.1272Z" fill="#455A64"/>
<path d="M15.8809 40.4404C14.1903 42.7409 11.9894 47.0274 12.762 47.7084C14.4526 49.2031 17.976 50.9679 19.6776 51.1133C20.1753 51.156 21.0996 47.8996 20.7631 47.4793C20.4266 47.059 16.1811 45.8756 16.1432 45.5517C16.1179 45.3668 16.6725 43.3176 17.1496 41.3394C17.7011 39.069 16.3644 39.7815 15.8809 40.4404Z" fill="#DD6A57"/>
<path d="M19.8894 47.2407C19.8894 47.2407 21.4109 47.1981 22.4063 47.217C22.9609 47.2281 23.912 47.3308 24.3165 47.5251C24.9217 47.8158 27.2648 49.4211 26.8888 49.9962C26.5475 50.5176 24.7084 48.8902 24.7084 48.8902C24.7084 48.8902 26.7102 50.3723 26.1841 50.9269C25.6579 51.4814 23.8267 49.3579 23.8267 49.3579C23.8267 49.3579 25.8491 50.9284 25.2155 51.4119C24.7415 51.7785 22.9704 49.9504 22.9704 49.9504C22.9704 49.9504 24.702 51.3092 24.228 51.7074C23.6987 52.1482 21.9607 50.5682 21.9607 50.5682C20.5814 51.3772 19.5907 51.2002 18.9082 50.9869C18.7423 50.9284 19.8894 47.2407 19.8894 47.2407Z" fill="#DD6A57"/>
<path d="M24.0495 48.3278C24.2913 48.4937 24.5362 48.6596 24.7621 48.846C24.988 49.0324 25.2077 49.2268 25.4146 49.4338C25.6909 49.6991 25.9364 49.9949 26.1462 50.3154C25.712 49.8017 25.2307 49.3298 24.7084 48.906C24.484 48.7196 24.2676 48.5221 24.0416 48.3357L24.0495 48.3278Z" fill="#263238"/>
<path d="M23.3606 49.1304C23.6608 49.3564 23.9658 49.5681 24.2549 49.8067C24.5441 50.0452 24.7953 50.2933 25.0655 50.5493C25.086 50.5698 25.0655 50.5746 25.0465 50.5493C24.7668 50.3044 24.4872 50.099 24.2044 49.8572C23.9215 49.6155 23.6466 49.3611 23.3543 49.1304C23.3512 49.1336 23.3559 49.1273 23.3606 49.1304Z" fill="#263238"/>
<path d="M22.6481 49.7134C23.1146 50.0475 23.5456 50.4287 23.9342 50.851C23.9547 50.8715 23.9342 50.8747 23.9105 50.851C23.4886 50.4655 23.1616 50.159 22.637 49.726C22.6259 49.7229 22.6354 49.7071 22.6481 49.7134Z" fill="#263238"/>
<path d="M17.9823 51.1164L20.2781 47.0589C20.2781 47.0589 16.3581 45.6891 16.2601 45.5627C16.1622 45.4363 16.9427 42.8767 17.2713 41.1924C17.6 39.5081 16.8384 39.1068 15.5902 40.6963C14.342 42.2858 12.0447 46.4886 12.4302 47.5124C12.8157 48.5362 17.9823 51.1164 17.9823 51.1164Z" fill="#455A64"/>
<path d="M19.4438 47.0179C19.3509 47.143 19.267 47.2744 19.1926 47.4113L18.9303 47.8411C18.7533 48.1334 18.5827 48.4288 18.4152 48.7259C18.085 49.3152 17.7579 49.9077 17.4261 50.4955C17.4261 50.5097 17.4388 50.5207 17.4483 50.5081C17.8117 49.9361 18.1703 49.3642 18.5163 48.7812C18.6886 48.4936 18.8545 48.2029 19.0109 47.9074C19.0899 47.7589 19.1689 47.6104 19.2447 47.4619C19.3254 47.3216 19.3961 47.1759 19.4564 47.0258C19.4596 47.0179 19.4485 47.0131 19.4438 47.0179Z" fill="#263238"/>
<path d="M17.9665 51.0864C17.2476 50.7057 16.5445 50.2964 15.8367 49.8856C15.1288 49.4748 14.4147 49.0609 13.7463 48.5979C13.5567 48.4668 13.3655 48.3372 13.1791 48.2014C12.9927 48.0655 12.822 47.917 12.6293 47.7985C12.615 47.789 12.6024 47.8095 12.6135 47.819C12.7555 47.9642 12.9093 48.0974 13.0732 48.2172C13.2312 48.3467 13.4019 48.4731 13.5694 48.5979C13.8854 48.8397 14.2314 49.0719 14.5727 49.2821C15.2584 49.7213 15.9725 50.1147 16.6978 50.4845C17.1149 50.6962 17.5399 50.8937 17.9618 51.1086C17.964 51.108 17.9661 51.1068 17.9677 51.1051C17.9694 51.1034 17.9705 51.1013 17.971 51.099C17.9715 51.0967 17.9713 51.0943 17.9705 51.0921C17.9697 51.0899 17.9683 51.0879 17.9665 51.0864Z" fill="#263238"/>
<path d="M20.2781 47.0305C19.9241 46.8931 16.4529 45.5706 16.3091 45.5438C16.3091 45.4363 16.6156 44.196 16.6836 43.9085C16.6994 43.8405 16.7136 43.7741 16.7278 43.7078C16.7799 43.5766 16.8305 43.4439 16.8858 43.3112C16.957 43.1314 17.0393 42.9562 17.1323 42.7867C17.134 42.7837 17.1344 42.7802 17.1335 42.777C17.1326 42.7737 17.1305 42.7709 17.1275 42.7693C17.1246 42.7676 17.1211 42.7672 17.1179 42.768C17.1146 42.7689 17.1118 42.7711 17.1102 42.774C17.0201 42.9478 16.9285 43.1232 16.8463 43.3002L16.8036 43.3934L16.8795 43.0616C16.9443 42.7677 17.0201 42.4722 17.0628 42.1736C17.0618 42.1708 17.06 42.1684 17.0576 42.1667C17.0552 42.165 17.0523 42.1641 17.0493 42.1641C17.0464 42.1641 17.0435 42.165 17.0411 42.1667C17.0387 42.1684 17.0369 42.1708 17.0359 42.1736C16.93 42.4706 16.8558 42.7787 16.772 43.0821C16.6883 43.3855 16.2064 45.5722 16.2238 45.5864C16.3518 45.6812 19.9336 46.9326 20.2765 47.0605C20.2781 47.059 20.2875 47.0353 20.2781 47.0305Z" fill="#263238"/>
<path d="M26.6486 51.6631H18.5274V52.0281H26.6486V51.6631Z" fill="#407BFF"/>
<path opacity="0.1" d="M26.6486 51.6631H22.5612V52.0281H26.6486V51.6631Z" fill="black"/>
<path d="M23.002 52.0265H30.9162L31.9511 46.6514H24.0353L23.002 52.0265Z" fill="#407BFF"/>
<path d="M26.9946 49.3389C26.9891 49.3996 26.9964 49.4608 27.016 49.5185C27.0356 49.5762 27.0672 49.6291 27.1086 49.6738C27.1501 49.7185 27.2004 49.754 27.2565 49.7779C27.3125 49.8019 27.3729 49.8138 27.4339 49.8129C27.5638 49.8104 27.6884 49.7611 27.7848 49.674C27.8812 49.5869 27.9428 49.4679 27.9584 49.3389C27.9649 49.2775 27.9583 49.2154 27.939 49.1568C27.9197 49.0981 27.8882 49.0442 27.8465 48.9987C27.8049 48.9531 27.754 48.9169 27.6973 48.8925C27.6406 48.8681 27.5793 48.856 27.5176 48.857C27.3866 48.8594 27.261 48.9098 27.1646 48.9986C27.0682 49.0874 27.0078 49.2085 26.9946 49.3389Z" fill="white"/>
<path d="M17.3582 39.5081C17.4072 39.633 18.1482 40.3819 18.7281 40.2697C18.9177 40.2318 18.7628 39.1842 18.7628 39.1842V39.1037L18.8497 37.9834L17.4577 37.3514L17.2571 37.2693C17.2571 37.2693 17.2571 37.5774 17.2571 37.9613V38.0166C17.2571 38.0372 17.2571 38.0577 17.2571 38.0782C17.2571 38.1351 17.2571 38.1936 17.2571 38.252C17.2571 38.3105 17.2571 38.3405 17.2571 38.3863C17.2571 38.4322 17.2571 38.4796 17.2571 38.5254C17.2693 38.8548 17.3031 39.1831 17.3582 39.5081Z" fill="#DD6A57"/>
<path d="M17.2603 37.9582C17.4133 38.2473 17.6277 38.4996 17.8883 38.6975C18.1489 38.8953 18.4495 39.0339 18.7692 39.1037L18.8561 37.9834L17.4641 37.3514L17.2634 37.2693C17.2634 37.2693 17.2603 37.5742 17.2603 37.9582Z" fill="#263238"/>
<path d="M20.0853 36.0321C20.5419 37.9503 19.4438 38.4401 19.0298 38.538C18.6538 38.6265 17.3645 38.8824 16.712 37.0212C16.0594 35.16 16.8068 34.3352 17.66 34.0919C18.5132 33.8486 19.6287 34.1172 20.0853 36.0321Z" fill="#DD6A57"/>
<path d="M19.8262 35.7162C19.7809 35.7185 19.7355 35.7185 19.6903 35.7162C19.6421 35.7205 19.5938 35.7088 19.5528 35.683C19.5415 35.6726 19.534 35.6587 19.5314 35.6436C19.5289 35.6284 19.5314 35.6128 19.5386 35.5993C19.5567 35.5751 19.5808 35.5561 19.6085 35.5442C19.6362 35.5322 19.6666 35.5278 19.6966 35.5313C19.7604 35.53 19.8224 35.5525 19.8704 35.5945C19.879 35.6045 19.8848 35.6166 19.8871 35.6296C19.8895 35.6425 19.8884 35.6559 19.8839 35.6683C19.8794 35.6807 19.8716 35.6916 19.8615 35.7001C19.8514 35.7085 19.8392 35.714 19.8262 35.7162Z" fill="#263238"/>
<path d="M18.5843 35.9515C18.6273 35.9376 18.6695 35.9212 18.7107 35.9026C18.7579 35.8919 18.8002 35.8658 18.8308 35.8283C18.8384 35.8146 18.8411 35.7987 18.8385 35.7832C18.836 35.7677 18.8282 35.7535 18.8165 35.743C18.7911 35.7255 18.7614 35.7151 18.7306 35.7129C18.6997 35.7106 18.6689 35.7167 18.6412 35.7303C18.5811 35.7505 18.5301 35.7914 18.4974 35.8457C18.4905 35.8586 18.4877 35.8733 18.4891 35.8878C18.4906 35.9024 18.4963 35.9162 18.5056 35.9275C18.5149 35.9388 18.5273 35.9471 18.5413 35.9514C18.5553 35.9557 18.5703 35.9557 18.5843 35.9515Z" fill="#263238"/>
<path d="M18.924 36.4003C18.924 36.4003 18.9161 36.4003 18.9161 36.4145C18.9461 36.5456 18.9572 36.7005 18.8466 36.7668C18.9903 36.7257 18.973 36.5203 18.924 36.4003Z" fill="#263238"/>
<path d="M18.7802 36.285C18.5653 36.3087 18.6222 36.7385 18.8292 36.7148C19.0362 36.6911 18.9603 36.2645 18.7802 36.285Z" fill="#263238"/>
<path d="M18.698 36.3197C18.6649 36.3498 18.6348 36.3987 18.589 36.4098C18.5432 36.4209 18.4926 36.3829 18.4516 36.345C18.4626 36.4272 18.5069 36.503 18.5969 36.503C18.687 36.503 18.7249 36.4209 18.7328 36.3355C18.7296 36.3292 18.7138 36.3087 18.698 36.3197Z" fill="#263238"/>
<path d="M19.6461 36.2375C19.6461 36.2375 19.6571 36.2375 19.6571 36.247C19.6713 36.3813 19.7108 36.5314 19.8372 36.563C19.6935 36.5662 19.6461 36.3655 19.6461 36.2375Z" fill="#263238"/>
<path d="M19.7488 36.0812C19.9605 36.0354 20.0379 36.462 19.842 36.5046C19.646 36.5473 19.5718 36.1207 19.7488 36.0812Z" fill="#263238"/>
<path d="M19.8436 36.0938C19.8815 36.1096 19.9226 36.1444 19.9621 36.1397C20.0016 36.1349 20.0363 36.0828 20.0584 36.0322C20.0758 36.1128 20.0584 36.2029 19.9889 36.2329C19.9194 36.2629 19.8546 36.1997 19.8214 36.1207C19.8214 36.1112 19.8278 36.0875 19.8436 36.0938Z" fill="#263238"/>
<path d="M19.0441 37.4304C19.0804 37.4589 19.1167 37.4984 19.1657 37.4968C19.2149 37.4911 19.2623 37.4749 19.3048 37.4494C19.3048 37.4494 19.3142 37.4494 19.3048 37.4494C19.289 37.4773 19.266 37.5004 19.2382 37.5163C19.2104 37.5321 19.1788 37.5401 19.1468 37.5394C19.1188 37.5352 19.0927 37.5227 19.0719 37.5036C19.0511 37.4844 19.0364 37.4595 19.0298 37.432C19.0298 37.4304 19.0393 37.4273 19.0441 37.4304Z" fill="#263238"/>
<path d="M19.5212 36.8617C19.5509 36.9562 19.5757 37.0522 19.5955 37.1492C19.5955 37.1587 19.575 37.165 19.5434 37.1729C19.4655 37.2004 19.3816 37.206 19.3008 37.189C19.2199 37.172 19.1454 37.1331 19.0852 37.0766C19.0773 37.0687 19.0852 37.0576 19.0978 37.0623C19.23 37.1238 19.3783 37.1415 19.5212 37.1129C19.5212 37.086 19.4091 36.7843 19.4233 36.7811C19.4968 36.776 19.5707 36.7808 19.6429 36.7953C19.5323 36.3877 19.3553 36.0053 19.2511 35.5961C19.2508 35.5934 19.2514 35.5908 19.2528 35.5885C19.2541 35.5862 19.2562 35.5844 19.2587 35.5833C19.2611 35.5822 19.2639 35.582 19.2665 35.5826C19.2691 35.5832 19.2714 35.5846 19.2732 35.5866C19.4732 35.9943 19.632 36.4209 19.7472 36.8601C19.7646 36.9107 19.5623 36.8727 19.5212 36.8617Z" fill="#263238"/>
<path d="M19.5244 37.1019C19.4918 37.1889 19.4374 37.2662 19.3664 37.3262C19.3252 37.3571 19.2756 37.3747 19.2242 37.3768C19.112 37.3768 19.082 37.282 19.0788 37.1951C19.0773 37.1485 19.081 37.1018 19.0899 37.056C19.2264 37.1163 19.3783 37.1323 19.5244 37.1019Z" fill="#263238"/>
<path d="M19.3585 37.3262C19.3173 37.3571 19.2677 37.3747 19.2163 37.3768C19.1041 37.3768 19.0741 37.282 19.0709 37.1951C19.1266 37.1813 19.1853 37.1867 19.2375 37.2106C19.2897 37.2344 19.3324 37.2751 19.3585 37.3262Z" fill="#FFA2BE"/>
<path d="M16.7278 37.0323C16.949 36.9833 17.4277 36.2755 17.2682 35.1964C17.2682 35.1964 17.344 36.1744 17.295 36.3276C17.246 36.4809 17.562 35.9295 17.4451 35.0636C17.7507 35.2147 18.0763 35.3211 18.4121 35.3796C18.8403 35.427 19.0899 35.3796 19.1136 35.348C19.1373 35.3164 18.5053 35.2216 18.311 35.0605C18.311 35.0605 19.4833 35.3875 19.9921 35.3433C20.0505 35.3433 19.9241 34.133 19.063 33.7538C18.2019 33.3746 17.0643 34.1251 16.7863 34.498C16.7863 34.498 16.4071 34.6181 16.08 35.2611C15.7529 35.9042 16.4861 37.086 16.7278 37.0323Z" fill="#263238"/>
<path d="M19.5639 36.3482C19.496 36.018 19.6176 35.7162 19.8372 35.6656C20.0569 35.6151 20.2907 35.8521 20.3602 36.1839C20.4297 36.5157 20.3065 36.8159 20.0869 36.868C19.8673 36.9201 19.6334 36.6721 19.5639 36.3482ZM19.6445 36.3324C19.7045 36.6184 19.8957 36.8222 20.0695 36.7874C20.2433 36.7527 20.3381 36.4872 20.2796 36.1997C20.2212 35.9121 20.0284 35.7099 19.853 35.7462C19.6777 35.7825 19.586 36.0322 19.6461 36.3245L19.6445 36.3324Z" fill="#407BFF"/>
<path d="M18.0534 36.6547C18.0382 36.5436 18.0557 36.4305 18.1039 36.3293C18.1521 36.2281 18.2288 36.1431 18.3246 36.0849C18.4205 36.0267 18.5312 35.9978 18.6433 36.0017C18.7553 36.0056 18.8638 36.0422 18.9553 36.1069C19.0468 36.1717 19.1175 36.2618 19.1585 36.3661C19.1995 36.4705 19.2091 36.5845 19.1861 36.6943C19.1631 36.804 19.1086 36.9047 19.0292 36.9838C18.9498 37.063 18.849 37.1172 18.7391 37.1398C18.5839 37.1663 18.4244 37.1302 18.2959 37.0392C18.1673 36.9483 18.0801 36.8099 18.0534 36.6547ZM18.134 36.6373C18.1608 36.729 18.2137 36.8108 18.2863 36.8728C18.3588 36.9349 18.4479 36.9744 18.5426 36.9867C18.6372 36.9989 18.7334 36.9833 18.8194 36.9418C18.9053 36.9002 18.9773 36.8346 19.0266 36.7528C19.0758 36.671 19.1002 36.5766 19.0966 36.4812C19.0931 36.3858 19.0619 36.2935 19.0068 36.2156C18.9517 36.1377 18.875 36.0775 18.7862 36.0424C18.6975 36.0073 18.6004 35.9988 18.5069 36.018C18.3756 36.0512 18.2628 36.1349 18.193 36.2509C18.1231 36.3669 18.1019 36.5058 18.134 36.6373Z" fill="#407BFF"/>
<path d="M19.1373 36.3734C19.417 36.2044 19.5734 36.2755 19.575 36.2755L19.6113 36.2028C19.6113 36.2028 19.417 36.108 19.0946 36.3023L19.1373 36.3734Z" fill="#407BFF"/>
<path d="M18.0818 36.5931V36.5062C18.0281 36.5062 17.1149 36.5189 16.9758 36.5394C16.8368 36.5599 16.5429 36.8127 16.5113 36.8412L16.565 36.9028C16.688 36.7872 16.8289 36.6922 16.9822 36.6216C17.0943 36.6089 17.6252 36.6042 18.0818 36.5931Z" fill="#407BFF"/>
<path d="M17.0517 37.1003C17.0517 37.1003 16.535 36.5552 16.2822 36.7479C16.0294 36.9407 16.4782 37.7749 16.821 37.8539C16.8642 37.8665 16.9095 37.8702 16.9541 37.8647C16.9987 37.8592 17.0418 37.8448 17.0806 37.8222C17.1195 37.7996 17.1533 37.7693 17.1801 37.7332C17.207 37.6971 17.2261 37.6559 17.2366 37.6122L17.0517 37.1003Z" fill="#DD6A57"/>
<path d="M16.4165 36.9801C16.4165 36.9801 16.4165 36.9801 16.4165 36.9896C16.5287 37.0261 16.6319 37.0857 16.7196 37.1647C16.8072 37.2436 16.8773 37.3401 16.9253 37.4478C16.9088 37.4269 16.8879 37.4099 16.8642 37.3978C16.8404 37.3858 16.8143 37.3791 16.7877 37.3782C16.761 37.3773 16.7345 37.3822 16.71 37.3926C16.6855 37.403 16.6635 37.4186 16.6456 37.4383C16.6456 37.4383 16.6456 37.451 16.6456 37.4494C16.6836 37.4303 16.7267 37.4237 16.7687 37.4305C16.8107 37.4373 16.8494 37.4572 16.8795 37.4873C16.9293 37.5351 16.9738 37.588 17.0122 37.6453C17.0264 37.6643 17.0612 37.6453 17.0501 37.6248C17.0185 37.3388 16.7325 36.9659 16.4165 36.9801Z" fill="#263238"/>
<path d="M18.7723 39.178L18.5638 40.2524L17.3092 39.1575L16.9601 39.5809C16.9601 39.5809 18.4105 41.4769 18.401 41.3805L18.6459 40.442L19.3538 40.9255L19.0457 39.5746L18.7723 39.178Z" fill="#EBEBEB"/>
<path d="M19.0583 39.5856C19.0583 39.5777 19.0393 39.5761 19.0409 39.5856C19.0678 39.8163 19.2574 40.6253 19.3 40.8496C19.27 40.8275 18.6491 40.4293 18.6459 40.4388C18.5827 40.5968 18.4026 41.2762 18.3931 41.3363C18.1387 41.055 17.2318 39.8368 16.9458 39.5793C16.9441 39.5784 16.9421 39.5782 16.9402 39.5785C16.9382 39.5788 16.9364 39.5798 16.9351 39.5811C16.9337 39.5825 16.9327 39.5843 16.9324 39.5862C16.9321 39.5882 16.9324 39.5902 16.9332 39.5919C17.167 39.8953 18.39 41.469 18.4042 41.4611C18.5069 41.1357 18.5918 40.805 18.6586 40.4704C18.8949 40.6589 19.1435 40.8315 19.4027 40.9871C19.3632 40.739 19.1341 39.8242 19.0583 39.5856Z" fill="#263238"/>
</g>
</svg>
