<svg width="88" height="80" viewBox="0 0 88 80" fill="none" xmlns="http://www.w3.org/2000/svg">
<g clip-path="url(#clip0_238_12888)" filter="url(#filter0_d_238_12888)">
<path d="M83.3701 60.9014H4.37012V60.9409H83.3701V60.9014Z" fill="#EBEBEB"/>
<path d="M75.4544 63.4435H70.2214V63.483H75.4544V63.4435Z" fill="#EBEBEB"/>
<path d="M56.7029 63.8733H55.3298V63.9128H56.7029V63.8733Z" fill="#EBEBEB"/>
<path d="M70.0633 61.9773H67.0312V62.0168H70.0633V61.9773Z" fill="#EBEBEB"/>
<path d="M19.4827 62.2428H12.6587V62.2823H19.4827V62.2428Z" fill="#EBEBEB"/>
<path d="M21.8908 62.2428H20.8906V62.2823H21.8908V62.2428Z" fill="#EBEBEB"/>
<path d="M39.9438 62.9095H25.1423V62.949H39.9438V62.9095Z" fill="#EBEBEB"/>
<path d="M41.816 53.8545H11.3078C11.0688 53.8541 10.8398 53.7589 10.6709 53.5897C10.5021 53.4206 10.4072 53.1913 10.4072 52.9523V10.0664C10.4093 9.82877 10.5051 9.60156 10.6737 9.43412C10.8423 9.26668 11.0702 9.17253 11.3078 9.17212H41.816C42.0553 9.17212 42.2848 9.26717 42.454 9.43636C42.6232 9.60555 42.7182 9.83503 42.7182 10.0743V52.9523C42.7182 53.1916 42.6232 53.4211 42.454 53.5903C42.2848 53.7595 42.0553 53.8545 41.816 53.8545ZM11.3078 9.20372C11.0793 9.20414 10.8603 9.29521 10.6988 9.45695C10.5374 9.61869 10.4467 9.83788 10.4467 10.0664V52.9523C10.4467 53.1809 10.5374 53.4001 10.6988 53.5618C10.8603 53.7235 11.0793 53.8146 11.3078 53.815H41.816C42.0447 53.8146 42.2639 53.7236 42.4256 53.5619C42.5873 53.4002 42.6783 53.181 42.6787 52.9523V10.0664C42.6783 9.83773 42.5873 9.61855 42.4256 9.45685C42.2639 9.29516 42.0447 9.20414 41.816 9.20372H11.3078Z" fill="#EBEBEB"/>
<path d="M75.993 53.8545H45.4832C45.2441 53.8541 45.0149 53.7589 44.8458 53.5898C44.6767 53.4207 44.5815 53.1915 44.5811 52.9523V10.0664C44.5835 9.82863 44.6797 9.60142 44.8485 9.43402C45.0174 9.26662 45.2454 9.17252 45.4832 9.17212H75.993C76.2304 9.17294 76.4579 9.26727 76.6262 9.43467C76.7944 9.60207 76.89 9.82904 76.8921 10.0664V52.9523C76.8921 53.1911 76.7974 53.4201 76.6289 53.5892C76.4604 53.7583 76.2318 53.8537 75.993 53.8545ZM45.4832 9.20372C45.2546 9.20414 45.0354 9.29516 44.8737 9.45685C44.712 9.61855 44.621 9.83773 44.6206 10.0664V52.9523C44.621 53.181 44.712 53.4002 44.8737 53.5619C45.0354 53.7236 45.2546 53.8146 45.4832 53.815H75.993C76.2217 53.8146 76.4409 53.7236 76.6026 53.5619C76.7643 53.4002 76.8553 53.181 76.8557 52.9523V10.0664C76.8553 9.83773 76.7643 9.61855 76.6026 9.45685C76.4409 9.29516 76.2217 9.20414 75.993 9.20372H45.4832Z" fill="#EBEBEB"/>
<path d="M30.173 13.8773H18.9155V52.0675H30.173V13.8773Z" fill="#FAFAFA"/>
<path d="M28.4982 13.8773H27.8394L23.9131 52.0691H24.5704L28.4982 13.8773Z" fill="#F5F5F5"/>
<path d="M29.9756 14.0259H18.8445V14.3624H29.9756V14.0259Z" fill="#E0E0E0"/>
<path d="M29.9756 51.7341H18.8445V52.4546H29.9756V51.7341Z" fill="#EBEBEB"/>
<path d="M29.7908 52.4231H19.2727V52.4547H29.7908V52.4231Z" fill="#EBEBEB"/>
<path d="M19.2728 14.0259H29.7892V52.423H30.4197V13.5535H18.6423V52.423H19.2728V14.0259Z" fill="#EBEBEB"/>
<path d="M42.7009 13.8773H31.4434V52.0675H42.7009V13.8773Z" fill="#FAFAFA"/>
<path d="M39.5788 13.8773H35.989L32.0627 52.0691H35.6525L39.5788 13.8773Z" fill="#F5F5F5"/>
<path d="M42.8179 14.0259H31.3708V14.3624H42.8179V14.0259Z" fill="#E0E0E0"/>
<path d="M42.8179 51.7341H31.3708V52.4546H42.8179V51.7341Z" fill="#EBEBEB"/>
<path d="M42.3169 52.4231H31.7988V52.4547H42.3169V52.4231Z" fill="#EBEBEB"/>
<path d="M31.799 14.0259H42.3171V52.423H42.9475V13.5535H31.1702V52.423H31.799V14.0259Z" fill="#EBEBEB"/>
<path d="M54.9127 13.8773H43.9712V52.0675H54.9127V13.8773Z" fill="#FAFAFA"/>
<path d="M50.1711 13.8773H49.5122L45.5859 52.0691H46.2432L50.1711 13.8773Z" fill="#F5F5F5"/>
<path d="M55.0295 14.0259H43.8984V14.3624H55.0295V14.0259Z" fill="#E0E0E0"/>
<path d="M55.0295 51.7341H43.8984V52.4546H55.0295V51.7341Z" fill="#EBEBEB"/>
<path d="M54.8447 52.4231H44.3267V52.4547H54.8447V52.4231Z" fill="#EBEBEB"/>
<path d="M44.3267 14.0259H54.8448V52.423H55.4736V13.5535H43.6963V52.423H44.3267V14.0259Z" fill="#EBEBEB"/>
<path d="M67.7551 13.8773H56.4976V52.0675H67.7551V13.8773Z" fill="#FAFAFA"/>
<path d="M66.6552 13.8773H63.0655L59.1392 52.0691H62.7289L66.6552 13.8773Z" fill="#F5F5F5"/>
<path d="M67.5574 14.0259H56.4263V14.3624H67.5574V14.0259Z" fill="#E0E0E0"/>
<path d="M67.5574 51.7341H56.4263V52.4546H67.5574V51.7341Z" fill="#EBEBEB"/>
<path d="M56.8545 14.0259H67.3726V52.423H68.0014V13.5535H56.2241V52.423H56.8545V14.0259Z" fill="#EBEBEB"/>
<path d="M67.3726 52.4231H56.8545V52.4547H67.3726V52.4231Z" fill="#EBEBEB"/>
<path d="M26.6909 48.0243H21.804V56.4757H26.6909V48.0243Z" fill="#EBEBEB"/>
<path d="M25.7523 46.8425V48.9629H25.3668H23.128H22.7424V46.8425H25.7523Z" fill="#EBEBEB"/>
<path d="M25.7523 48.9629H26.3779V48.3372H25.7523V48.9629Z" fill="#FAFAFA"/>
<path d="M24.5403 48.9629H25.166V48.3372H24.5403V48.9629Z" fill="#FAFAFA"/>
<path d="M23.3284 48.9629H23.9541V48.3372H23.3284V48.9629Z" fill="#FAFAFA"/>
<path d="M22.115 48.9629H22.7407V48.3372H22.115V48.9629Z" fill="#F0F0F0"/>
<path d="M25.7523 50.1005H26.3779V49.4748H25.7523V50.1005Z" fill="#F0F0F0"/>
<path d="M24.5403 50.1005H25.166V49.4748H24.5403V50.1005Z" fill="#F0F0F0"/>
<path d="M23.3284 50.1005H23.9541V49.4748H23.3284V50.1005Z" fill="#FAFAFA"/>
<path d="M22.115 50.1005H22.7407V49.4748H22.115V50.1005Z" fill="#FAFAFA"/>
<path d="M25.7523 51.2365H26.3779V50.6108H25.7523V51.2365Z" fill="#F0F0F0"/>
<path d="M24.5403 51.2365H25.166V50.6108H24.5403V51.2365Z" fill="#FAFAFA"/>
<path d="M23.3284 51.2365H23.9541V50.6108H23.3284V51.2365Z" fill="#FAFAFA"/>
<path d="M24.5403 47.9801H25.166V47.3544H24.5403V47.9801Z" fill="#FAFAFA"/>
<path d="M23.3284 47.9801H23.9541V47.3544H23.3284V47.9801Z" fill="#F0F0F0"/>
<path d="M22.115 51.2365H22.7407V50.6108H22.115V51.2365Z" fill="#F0F0F0"/>
<path d="M25.7523 52.374H26.3779V51.7483H25.7523V52.374Z" fill="#FAFAFA"/>
<path d="M24.5403 52.374H25.166V51.7483H24.5403V52.374Z" fill="#F0F0F0"/>
<path d="M23.3284 52.374H23.9541V51.7483H23.3284V52.374Z" fill="#F0F0F0"/>
<path d="M22.115 52.374H22.7407V51.7483H22.115V52.374Z" fill="#FAFAFA"/>
<path d="M25.7523 53.5101H26.3779V52.8845H25.7523V53.5101Z" fill="#F0F0F0"/>
<path d="M24.5403 53.5101H25.166V52.8845H24.5403V53.5101Z" fill="#FAFAFA"/>
<path d="M23.3284 53.5101H23.9541V52.8845H23.3284V53.5101Z" fill="#FAFAFA"/>
<path d="M22.115 53.5101H22.7407V52.8845H22.115V53.5101Z" fill="#F0F0F0"/>
<path d="M25.7523 54.6461H26.3779V54.0204H25.7523V54.6461Z" fill="#F0F0F0"/>
<path d="M24.5403 54.6461H25.166V54.0204H24.5403V54.6461Z" fill="#FAFAFA"/>
<path d="M23.3284 54.6461H23.9541V54.0204H23.3284V54.6461Z" fill="#F0F0F0"/>
<path d="M22.115 54.6461H22.7407V54.0204H22.115V54.6461Z" fill="#FAFAFA"/>
<path d="M25.7523 55.7837H26.3779V55.158H25.7523V55.7837Z" fill="#FAFAFA"/>
<path d="M24.5403 55.7837H25.166V55.158H24.5403V55.7837Z" fill="#FAFAFA"/>
<path d="M23.3284 55.7837H23.9541V55.158H23.3284V55.7837Z" fill="#F0F0F0"/>
<path d="M22.115 55.7837H22.7407V55.158H22.115V55.7837Z" fill="#F0F0F0"/>
<path d="M61.1174 51.1022H56.7393V56.4742H61.1174V51.1022Z" fill="#F0F0F0"/>
<path d="M57.1201 51.6979H58.1392H58.4189H58.7001V52.2588H58.4189H58.1392H57.1201V51.6979Z" fill="#E6E6E6"/>
<path d="M57.1201 52.7833H58.1392H58.4189H58.7001V53.3442H58.4189H58.1392H57.1201V52.7833Z" fill="#FAFAFA"/>
<path d="M57.1201 53.8704H58.1392H58.4189H58.7001V54.4297H58.4189H58.1392H57.1201V53.8704Z" fill="#E6E6E6"/>
<path d="M57.1201 54.9558H58.1392H58.5721H58.7001V55.5167H58.5721H58.1392H57.1201V54.9558Z" fill="#FAFAFA"/>
<path d="M59.1567 51.6979H60.1758H60.4555H60.7367V52.2588H60.4555H60.1758H59.1567V51.6979Z" fill="#FAFAFA"/>
<path d="M59.1567 52.7833H60.1758H60.5708H60.7367V53.3442H60.5708H60.1758H59.1567V52.7833Z" fill="#FAFAFA"/>
<path d="M59.1567 53.8704H60.1758H60.4555H60.7367V54.4297H60.4555H60.1758H59.1567V53.8704Z" fill="#E6E6E6"/>
<path d="M59.1567 54.9558H60.1758H60.4555H60.7367V55.5167H60.4555H60.1758H59.1567V54.9558Z" fill="#FAFAFA"/>
<path d="M40.0212 53.1372H36.0427V56.4757H40.0212V53.1372Z" fill="#F0F0F0"/>
<path d="M39.2566 54.0631H39.7654V53.5544H39.2566V54.0631Z" fill="#FAFAFA"/>
<path d="M38.2691 54.0631H38.7778V53.5544H38.2691V54.0631Z" fill="#FAFAFA"/>
<path d="M37.2847 54.0631H37.7935V53.5544H37.2847V54.0631Z" fill="#FAFAFA"/>
<path d="M36.2972 54.0631H36.8059V53.5544H36.2972V54.0631Z" fill="#FAFAFA"/>
<path d="M39.2566 54.9874H39.7654V54.4787H39.2566V54.9874Z" fill="#FAFAFA"/>
<path d="M38.2691 54.9874H38.7778V54.4787H38.2691V54.9874Z" fill="#FAFAFA"/>
<path d="M37.2847 54.9874H37.7935V54.4787H37.2847V54.9874Z" fill="#FAFAFA"/>
<path d="M36.2972 54.9874H36.8059V54.4787H36.2972V54.9874Z" fill="#E6E6E6"/>
<path d="M39.2566 55.9132H39.7654V55.4044H39.2566V55.9132Z" fill="#E6E6E6"/>
<path d="M38.2691 55.9132H38.7778V55.4044H38.2691V55.9132Z" fill="#E6E6E6"/>
<path d="M37.2847 55.9132H37.7935V55.4044H37.2847V55.9132Z" fill="#FAFAFA"/>
<path d="M36.2972 55.9132H36.8059V55.4044H36.2972V55.9132Z" fill="#E6E6E6"/>
<path d="M35.5041 50.6676H31.5256V56.4741H35.5041V50.6676Z" fill="#F0F0F0"/>
<path d="M35.2497 50.9236H33.7534V52.3582H35.2497V50.9236Z" fill="#FAFAFA"/>
<path d="M33.2763 50.9236H31.78V52.3582H33.2763V50.9236Z" fill="#FAFAFA"/>
<path d="M35.2497 52.7738H33.7534V54.2084H35.2497V52.7738Z" fill="#FAFAFA"/>
<path d="M33.2763 52.7738H31.78V54.2084H33.2763V52.7738Z" fill="#FAFAFA"/>
<path d="M35.2497 54.624H33.7534V56.0587H35.2497V54.624Z" fill="#FAFAFA"/>
<path d="M33.2763 54.624H31.78V56.0587H33.2763V54.624Z" fill="#FAFAFA"/>
<path d="M17.312 56.9687C17.312 56.9687 16.5109 55.2228 17.4257 53.5022C18.3406 51.7815 18.6044 51.3755 18.0214 51.0231C17.4384 50.6708 17.1682 52.3993 17.1682 52.3993C16.8793 51.6179 16.8494 50.7643 17.0829 49.9645C17.4889 48.7195 17.7433 46.6924 17.1887 46.4743C16.6342 46.2563 17.0829 49.0023 16.6026 49.9408C16.3565 49.2833 16.1972 48.5966 16.1286 47.8979C16.0622 46.8978 16.1649 45.302 15.7272 44.8959C15.2896 44.4898 15.0099 44.7711 15.4397 46.9768C15.698 48.2953 15.8407 49.6339 15.8663 50.9773C15.8663 50.9773 14.9183 48.0828 14.2863 47.999C13.6543 47.9153 13.6543 48.8522 14.1962 49.6643C14.7382 50.4765 15.7936 51.9348 15.9658 52.6837C15.9658 52.6837 14.923 50.5049 13.9861 51.1732C13.0491 51.8416 14.7982 53.1514 15.5882 53.627C16.3782 54.1026 16.9122 57.084 16.9122 57.084L17.312 56.9687Z" fill="#E0E0E0"/>
<path d="M16.6798 57.6781C16.6798 57.6781 17.4588 55.9211 16.5218 54.2132C15.5849 52.5052 15.3179 52.1054 15.8898 51.7436C16.4618 51.3818 16.7573 53.1072 16.7573 53.1072C16.7573 53.1072 17.2313 51.9111 16.8126 50.6724C16.3939 49.4337 16.1142 47.4097 16.6656 47.1837C17.217 46.9578 16.8015 49.7117 17.2976 50.6408C17.5352 49.9785 17.685 49.288 17.7432 48.5868C17.7985 47.5851 17.6752 45.9908 18.1082 45.5737C18.5411 45.1566 18.8239 45.4378 18.4242 47.6498C18.1804 48.9776 18.0535 50.3242 18.045 51.6741C18.045 51.6741 18.9598 48.7653 19.5949 48.6721C20.2301 48.5789 20.2412 49.5158 19.7055 50.3358C19.1699 51.1559 18.1366 52.63 17.9675 53.3821C17.9675 53.3821 18.9835 51.1875 19.9299 51.8416C20.8763 52.4957 19.1399 53.8371 18.361 54.3238C17.582 54.8104 17.0796 57.7998 17.0796 57.7998L16.6798 57.6781Z" fill="#EBEBEB"/>
<path d="M20.2727 56.4315H13.8374L14.3588 61.0372H19.7529L20.2727 56.4315Z" fill="#EBEBEB"/>
<path d="M68.518 56.0982C68.5417 55.9402 69.0758 52.2603 68.0061 50.99C67.9 50.8556 67.7653 50.7465 67.6116 50.6708C67.458 50.5951 67.2894 50.5546 67.1182 50.5524C64.9615 50.5018 64.666 52.2351 64.6628 52.2524L64.9172 52.2919C64.9267 52.2303 65.1827 50.7625 67.1134 50.8099C67.2479 50.8117 67.3802 50.8436 67.5008 50.9032C67.6214 50.9628 67.7271 51.0486 67.8102 51.1543C68.804 52.3378 68.27 56.0239 68.2637 56.0602L68.518 56.0982Z" fill="#EBEBEB"/>
<path d="M68.6476 55.9401L68.9052 55.9322C68.9052 55.899 68.8198 52.5399 70.4741 51.8463C72.0968 51.1669 72.8267 52.5637 72.8567 52.6237L73.0858 52.5068C73.0779 52.491 72.2216 50.8335 70.3746 51.6077C68.5576 52.3661 68.6429 55.79 68.6476 55.9401Z" fill="#EBEBEB"/>
<path d="M68.6399 56.1993C68.6399 56.1455 68.6557 50.8273 69.6921 49.2804C70.686 47.7889 72.2897 48.4904 72.3576 48.522L72.465 48.2866C72.4461 48.2787 70.5943 47.4619 69.4773 49.1367C68.3981 50.7546 68.3823 55.9781 68.3823 56.1993H68.6399Z" fill="#EBEBEB"/>
<path d="M66.8085 50.6851C66.8085 50.6851 67.7565 51.0311 67.4705 51.8511C67.1845 52.6711 64.211 54.022 64.211 54.022C64.211 54.022 62.9628 52.8781 64.1099 51.02C65.2569 49.1619 66.7801 50.0941 66.8085 50.6851Z" fill="#E0E0E0"/>
<path d="M69.7378 49.0007C69.7378 49.0007 69.0695 48.928 69.1232 48.5267C69.1769 48.1254 71.7239 47.0715 73.2312 48.7669C73.2312 48.7669 72.269 50.4196 70.8786 50.4417C69.4882 50.4638 69.7378 49.0007 69.7378 49.0007Z" fill="#E0E0E0"/>
<path d="M70.4251 51.7215C70.4251 51.7215 69.9637 51.3502 70.4614 51.1669C70.9591 50.9836 73.405 51.0373 73.4302 53.4595C73.4302 53.4595 70.5862 53.9335 70.2307 53.0092C69.8752 52.0849 70.4251 51.7215 70.4251 51.7215Z" fill="#E0E0E0"/>
<path d="M66.3028 61.0372H70.7205L71.1977 56.1992H65.8257L66.3028 61.0372Z" fill="#EBEBEB"/>
<path d="M65.5887 56.7333H71.4331V55.6652H65.5887V56.7333Z" fill="#E0E0E0"/>
<path d="M43.8702 68.0367C60.7892 68.0367 74.5048 67.2359 74.5048 66.2482C74.5048 65.2604 60.7892 64.4596 43.8702 64.4596C26.9512 64.4596 13.2356 65.2604 13.2356 66.2482C13.2356 67.2359 26.9512 68.0367 43.8702 68.0367Z" fill="#F5F5F5"/>
<path d="M35.9702 18.0549H24.0222V27.1178H35.9702V18.0549Z" fill="#407BFF"/>
<path opacity="0.7" d="M35.9702 18.0549H24.0222V27.1178H35.9702V18.0549Z" fill="white"/>
<path d="M35.6272 26.7766V18.3962H24.3618V26.7766H35.6272Z" fill="#407BFF"/>
<path opacity="0.6" d="M35.6272 26.7766V18.3962H24.3618V26.7766H35.6272Z" fill="white"/>
<path d="M28.5869 20.9685C28.5872 21.1667 28.5288 21.3605 28.4189 21.5255C28.309 21.6904 28.1527 21.8191 27.9697 21.8951C27.7866 21.9712 27.5852 21.9912 27.3908 21.9528C27.1963 21.9143 27.0177 21.819 26.8775 21.679C26.7372 21.539 26.6416 21.3605 26.6029 21.1661C26.5641 20.9718 26.5838 20.7703 26.6596 20.5871C26.7354 20.404 26.8638 20.2475 27.0285 20.1373C27.1933 20.0272 27.387 19.9684 27.5852 19.9684C27.8506 19.9684 28.1052 20.0737 28.293 20.2612C28.4808 20.4487 28.5865 20.7031 28.5869 20.9685Z" fill="white"/>
<path opacity="0.1" d="M24.5879 23.0004H25.6734V24.9122H26.3701V25.6801H27.2091V23.6261H28.3704V22.8929H29.0482V24.4477H30.1195V25.876H30.87V25.2693H32.3615V23.8409L32.7675 24.247V25.2329H33.477V25.8223H34.12V23.9658H34.7805V23.0541H35.2276V22.2515H35.403V26.5522H24.5879V23.0004Z" fill="black"/>
<path d="M56.8547 12.7651H41.2996V24.5646H56.8547V12.7651Z" fill="#407BFF"/>
<path opacity="0.8" d="M56.8547 12.7651H41.2996V24.5646H56.8547V12.7651Z" fill="white"/>
<path d="M56.4092 24.1206V13.2091L41.742 13.2091V24.1206H56.4092Z" fill="#407BFF"/>
<path opacity="0.6" d="M56.4092 24.1206V13.2091L41.742 13.2091V24.1206H56.4092Z" fill="white"/>
<path opacity="0.1" d="M56.1436 20.1169V23.8536H42.0105V21.8691L45.0409 18.8387L48.0382 21.8359L52.9504 16.9237L56.1436 20.1169Z" fill="black"/>
<path d="M46.8951 16.9444C47.5594 16.6692 47.8748 15.9077 47.5997 15.2434C47.3245 14.5791 46.5629 14.2636 45.8986 14.5388C45.2343 14.8139 44.9189 15.5755 45.194 16.2398C45.4692 16.9041 46.2308 17.2196 46.8951 16.9444Z" fill="white"/>
<path d="M42.6328 67.035V67.6433C42.6328 67.6612 42.6364 67.679 42.6433 67.6956C42.6502 67.7122 42.6604 67.7273 42.6732 67.7399C42.686 67.7525 42.7011 67.7625 42.7178 67.7693C42.7345 67.776 42.7523 67.7793 42.7703 67.7791H59.9465C60.093 67.7794 60.2374 67.7437 60.3669 67.6751C60.4964 67.6065 60.6071 67.5072 60.6892 67.3857C60.7713 67.2643 60.8223 67.1246 60.8377 66.9788C60.8531 66.8331 60.8324 66.6858 60.7775 66.5499L55.3344 53.0693L46.5386 53.1294L46.8388 54.8784L48.779 66.1991C48.7937 66.285 48.7895 66.3731 48.7667 66.4571C48.7439 66.5412 48.703 66.6193 48.6469 66.6859C48.5907 66.7526 48.5208 66.8062 48.4418 66.843C48.3628 66.8798 48.2768 66.8989 48.1897 66.8991H42.764C42.7287 66.9003 42.6954 66.9152 42.6709 66.9405C42.6465 66.9659 42.6328 66.9997 42.6328 67.035Z" fill="#407BFF"/>
<path opacity="0.6" d="M42.6328 67.035V67.6433C42.6328 67.6612 42.6364 67.679 42.6433 67.6956C42.6502 67.7122 42.6604 67.7273 42.6732 67.7399C42.686 67.7525 42.7011 67.7625 42.7178 67.7693C42.7345 67.776 42.7523 67.7793 42.7703 67.7791H59.9465C60.093 67.7794 60.2374 67.7437 60.3669 67.6751C60.4964 67.6065 60.6071 67.5072 60.6892 67.3857C60.7713 67.2643 60.8223 67.1246 60.8377 66.9788C60.8531 66.8331 60.8324 66.6858 60.7775 66.5499L57.4027 58.1933L55.3344 53.0693L46.5386 53.1294L46.8388 54.8784L47.6825 59.8017L48.779 66.1991C48.7937 66.285 48.7895 66.3731 48.7667 66.4571C48.7439 66.5412 48.703 66.6193 48.6469 66.6859C48.5907 66.7526 48.5208 66.8062 48.4418 66.843C48.3628 66.8798 48.2768 66.8989 48.1897 66.8991H42.764C42.7287 66.9003 42.6954 66.9152 42.6709 66.9405C42.6465 66.9659 42.6328 66.9997 42.6328 67.035Z" fill="white"/>
<path opacity="0.2" d="M48.1898 66.8991H59.3651C59.4297 66.8991 59.4934 66.8832 59.5504 66.8528C59.6074 66.8223 59.656 66.7782 59.6918 66.7244C59.7276 66.6705 59.7496 66.6087 59.7557 66.5444C59.7618 66.48 59.7519 66.4151 59.7269 66.3555L54.9553 54.8784H46.8389L48.7791 66.1991C48.7938 66.285 48.7896 66.373 48.7668 66.4571C48.744 66.5412 48.7031 66.6193 48.647 66.6859C48.5908 66.7526 48.5209 66.8062 48.4419 66.843C48.3629 66.8798 48.2769 66.8989 48.1898 66.8991Z" fill="black"/>
<path opacity="0.1" d="M46.5386 53.1294L46.8388 54.8784L47.6825 59.8017L57.4027 58.1933L55.3344 53.0693L46.5386 53.1294Z" fill="black"/>
<path d="M29.4336 27.9995H70.1565C70.4326 27.9995 70.6975 28.1092 70.8927 28.3045C71.088 28.4997 71.1977 28.7646 71.1977 29.0407V56.6102C71.1977 56.8863 71.088 57.1511 70.8927 57.3464C70.6975 57.5417 70.4326 57.6514 70.1565 57.6514H29.4336C29.1574 57.6514 28.8926 57.5417 28.6973 57.3464C28.502 57.1511 28.3923 56.8863 28.3923 56.6102V29.0407C28.3923 28.7646 28.502 28.4997 28.6973 28.3045C28.8926 28.1092 29.1574 27.9995 29.4336 27.9995Z" fill="#407BFF"/>
<path opacity="0.7" d="M29.4336 27.9995H70.1565C70.4326 27.9995 70.6975 28.1092 70.8927 28.3045C71.088 28.4997 71.1977 28.7646 71.1977 29.0407V56.6102C71.1977 56.8863 71.088 57.1511 70.8927 57.3464C70.6975 57.5417 70.4326 57.6514 70.1565 57.6514H29.4336C29.1574 57.6514 28.8926 57.5417 28.6973 57.3464C28.502 57.1511 28.3923 56.8863 28.3923 56.6102V29.0407C28.3923 28.7646 28.502 28.4997 28.6973 28.3045C28.8926 28.1092 29.1574 27.9995 29.4336 27.9995Z" fill="white"/>
<path opacity="0.2" d="M69.2937 57.6514H70.1564C70.4325 57.6514 70.6974 57.5417 70.8926 57.3464C71.0879 57.1511 71.1976 56.8863 71.1976 56.6102V29.0423C71.1978 28.9054 71.171 28.7699 71.1188 28.6434C71.0666 28.5169 70.9899 28.4019 70.8932 28.305C70.7965 28.2082 70.6816 28.1313 70.5552 28.0789C70.4288 28.0265 70.2932 27.9995 70.1564 27.9995H69.2937C69.4304 27.9997 69.5658 28.0269 69.692 28.0794C69.8183 28.1319 69.933 28.2088 70.0295 28.3056C70.126 28.4024 70.2026 28.5173 70.2547 28.6437C70.3068 28.7701 70.3335 28.9056 70.3333 29.0423V56.6102C70.3333 56.886 70.2239 57.1506 70.0289 57.3458C69.834 57.5411 69.5696 57.651 69.2937 57.6514Z" fill="black"/>
<path d="M69.3949 29.0201H29.3308V55.6036H69.3949V29.0201Z" fill="#263238"/>
<path opacity="0.1" d="M69.3949 29.0201H29.3308V55.6036H69.3949V29.0201Z" fill="white"/>
<path d="M69.3932 51.9713H29.3149V55.6037H69.3932V51.9713Z" fill="#407BFF"/>
<path opacity="0.2" d="M64.0324 55.3414H33.9034C33.4947 55.3414 33.1027 55.1791 32.8136 54.8903C32.5244 54.6014 32.3617 54.2096 32.3613 53.8009C32.3613 53.3919 32.5238 52.9996 32.813 52.7104C33.1022 52.4213 33.4944 52.2588 33.9034 52.2588H64.0324C64.4414 52.2588 64.8336 52.4213 65.1228 52.7104C65.412 52.9996 65.5745 53.3919 65.5745 53.8009C65.5741 54.2096 65.4114 54.6014 65.1223 54.8903C64.8331 55.1791 64.4411 55.3414 64.0324 55.3414Z" fill="white"/>
<path d="M62.7274 30.9446H35.5024V51.5968H62.7274V30.9446Z" fill="#407BFF"/>
<path opacity="0.8" d="M62.7274 30.9446H35.5024V51.5968H62.7274V30.9446Z" fill="white"/>
<path d="M61.95 50.8195V31.722H36.2797V50.8195H61.95Z" fill="#407BFF"/>
<path opacity="0.4" d="M61.95 50.8195V31.722H36.2797V50.8195H61.95Z" fill="white"/>
<path opacity="0.3" d="M37.0508 44.2341L41.6707 39.6141L48.9814 46.9248L56.202 39.7058L61.288 44.7918V50.148H37.0508V44.2341Z" fill="black"/>
<g opacity="0.8">
<path opacity="0.2" d="M48.7426 37.4542C47.5517 37.4527 46.3783 37.7402 45.3229 38.292C44.2675 38.8437 43.3618 39.6433 42.6833 40.6221L43.1289 41.0677L44.0248 41.9636C44.5341 41.1296 45.2553 40.4456 46.1149 39.981C46.9746 39.5164 47.9419 39.2879 48.9186 39.3187C49.8953 39.3496 50.8463 39.6386 51.6749 40.1565C52.5036 40.6744 53.1802 41.4025 53.6359 42.2669L54.0909 41.8119L54.9947 40.9081C54.3303 39.8501 53.4081 38.9782 52.3146 38.374C51.221 37.7699 49.992 37.4534 48.7426 37.4542Z" fill="white"/>
<path opacity="0.3" d="M48.7426 38.0768C47.6324 38.0779 46.5395 38.3523 45.5604 38.8759C44.5814 39.3994 43.7463 40.156 43.1289 41.0788L44.0248 41.9746C44.5341 41.1407 45.2553 40.4567 46.1149 39.9921C46.9746 39.5275 47.9419 39.299 48.9186 39.3298C49.8953 39.3606 50.8463 39.6497 51.6749 40.1676C52.5036 40.6854 53.1802 41.4136 53.6359 42.278L54.0909 41.823L54.5444 41.3695C53.9437 40.3667 53.0937 39.5364 52.077 38.9594C51.0603 38.3824 49.9116 38.0783 48.7426 38.0768Z" fill="white"/>
<path opacity="0.4" d="M48.7427 38.6962C47.714 38.6957 46.7017 38.954 45.7991 39.4474C44.8965 39.9408 44.1325 40.6535 43.5776 41.5196L44.0248 41.9683C44.5341 41.1344 45.2553 40.4504 46.1149 39.9858C46.9746 39.5212 47.942 39.2927 48.9186 39.3235C49.8953 39.3544 50.8463 39.6434 51.675 40.1613C52.5036 40.6792 53.1802 41.4073 53.6359 42.2717L54.091 41.8167C53.555 40.8701 52.7777 40.0825 51.8381 39.5343C50.8986 38.9862 49.8304 38.6969 48.7427 38.6962Z" fill="white"/>
</g>
<path d="M69.3949 29.0201H29.3308V30.6839H69.3949V29.0201Z" fill="#407BFF"/>
<path opacity="0.2" d="M68.9461 29.8829C68.9461 29.9695 68.9204 30.0542 68.8722 30.1262C68.8241 30.1982 68.7556 30.2543 68.6756 30.2873C68.5955 30.3204 68.5074 30.329 68.4225 30.312C68.3376 30.295 68.2596 30.2531 68.1984 30.1918C68.1373 30.1304 68.0957 30.0523 68.079 29.9673C68.0623 29.8823 68.0712 29.7942 68.1046 29.7143C68.1379 29.6343 68.1943 29.5661 68.2665 29.5182C68.3386 29.4703 68.4234 29.4449 68.51 29.4452C68.6258 29.4456 68.7368 29.4919 68.8185 29.5739C68.9002 29.656 68.9461 29.7671 68.9461 29.8829Z" fill="white"/>
<path opacity="0.2" d="M67.5306 29.8829C67.5306 29.9694 67.5049 30.054 67.4568 30.126C67.4087 30.198 67.3404 30.2541 67.2604 30.2872C67.1804 30.3203 67.0924 30.329 67.0076 30.3121C66.9227 30.2952 66.8447 30.2535 66.7835 30.1923C66.7223 30.1311 66.6806 30.0531 66.6637 29.9682C66.6468 29.8833 66.6555 29.7953 66.6886 29.7154C66.7217 29.6354 66.7778 29.567 66.8498 29.5189C66.9218 29.4709 67.0064 29.4452 67.0929 29.4452C67.209 29.4452 67.3203 29.4913 67.4024 29.5734C67.4845 29.6555 67.5306 29.7668 67.5306 29.8829Z" fill="white"/>
<path opacity="0.2" d="M66.1134 29.8829C66.1134 29.9694 66.0877 30.054 66.0396 30.126C65.9915 30.198 65.9232 30.2541 65.8432 30.2872C65.7632 30.3203 65.6752 30.329 65.5903 30.3121C65.5054 30.2952 65.4274 30.2535 65.3662 30.1923C65.305 30.1311 65.2633 30.0531 65.2464 29.9682C65.2296 29.8833 65.2382 29.7953 65.2714 29.7154C65.3045 29.6354 65.3606 29.567 65.4325 29.5189C65.5045 29.4709 65.5891 29.4452 65.6757 29.4452C65.7918 29.4452 65.9031 29.4913 65.9852 29.5734C66.0672 29.6555 66.1134 29.7668 66.1134 29.8829Z" fill="white"/>
<path opacity="0.2" d="M64.4843 39.1922C64.4534 39.2567 64.4433 39.3293 64.4555 39.3998C64.4676 39.4703 64.5015 39.5352 64.5522 39.5856L66.5541 41.5875L64.5522 43.5815C64.5015 43.6319 64.4676 43.6968 64.4555 43.7673C64.4433 43.8378 64.4534 43.9104 64.4843 43.9749C64.5083 44.0246 64.5438 44.0679 64.5879 44.1012C64.632 44.1344 64.6835 44.1566 64.7379 44.1658C64.7924 44.1751 64.8482 44.1712 64.9009 44.1545C64.9535 44.1378 65.0014 44.1087 65.0405 44.0697L67.333 41.7771C67.3853 41.7247 67.4147 41.6536 67.4147 41.5796C67.4147 41.5055 67.3853 41.4345 67.333 41.3821L65.042 39.0895C65.0024 39.0504 64.9539 39.0215 64.9007 39.0051C64.8475 38.9888 64.7912 38.9855 64.7364 38.9956C64.6817 39.0057 64.6302 39.0288 64.5863 39.063C64.5424 39.0973 64.5074 39.1416 64.4843 39.1922Z" fill="white"/>
<path opacity="0.2" d="M33.8844 43.9748C33.9153 43.9103 33.9254 43.8378 33.9132 43.7673C33.9011 43.6968 33.8672 43.6318 33.8164 43.5814L31.8162 41.5796L33.8164 39.5777C33.8672 39.5273 33.9011 39.4623 33.9132 39.3918C33.9254 39.3213 33.9153 39.2488 33.8844 39.1843C33.8604 39.1345 33.8249 39.0912 33.7808 39.058C33.7367 39.0248 33.6852 39.0026 33.6308 38.9933C33.5763 38.984 33.5205 38.9879 33.4678 39.0047C33.4152 39.0214 33.3673 39.0505 33.3282 39.0895L31.0372 41.3821C30.9849 41.4345 30.9556 41.5055 30.9556 41.5796C30.9556 41.6536 30.9849 41.7246 31.0372 41.7771L33.3282 44.0696C33.3673 44.1087 33.4152 44.1377 33.4678 44.1545C33.5205 44.1712 33.5763 44.1751 33.6308 44.1658C33.6852 44.1565 33.7367 44.1343 33.7808 44.1011C33.8249 44.0679 33.8604 44.0246 33.8844 43.9748Z" fill="white"/>
<path opacity="0.6" d="M50.6735 52.5211H47.3824C47.2672 52.5211 47.1738 52.6145 47.1738 52.7297V54.7695C47.1738 54.8846 47.2672 54.978 47.3824 54.978H50.6735C50.7887 54.978 50.8821 54.8846 50.8821 54.7695V52.7297C50.8821 52.6145 50.7887 52.5211 50.6735 52.5211Z" fill="white"/>
<path opacity="0.2" d="M50.5662 54.6621V52.8372H47.4899V54.6621H50.5662Z" fill="black"/>
<g opacity="0.6">
<path d="M53.0783 53.0188C53.0594 53.0058 53.0373 52.9981 53.0144 52.9968C52.9916 52.9955 52.9687 53.0004 52.9485 53.0112C52.9283 53.022 52.9114 53.0381 52.8997 53.0579C52.888 53.0776 52.882 53.1002 52.8823 53.1231V54.3602C52.882 54.3832 52.888 54.4057 52.8997 54.4255C52.9114 54.4452 52.9283 54.4613 52.9485 54.4721C52.9687 54.4829 52.9916 54.4879 53.0144 54.4865C53.0373 54.4852 53.0594 54.4776 53.0783 54.4645L54.0026 53.8467C54.0198 53.8352 54.034 53.8196 54.0438 53.8012C54.0536 53.7829 54.0587 53.7624 54.0587 53.7417C54.0587 53.7209 54.0536 53.7004 54.0438 53.6821C54.034 53.6638 54.0198 53.6482 54.0026 53.6366L53.0783 53.0188Z" fill="white"/>
<path d="M54.4261 53.0204C54.393 53.0204 54.3612 53.0335 54.3378 53.057C54.3144 53.0804 54.3013 53.1121 54.3013 53.1452V54.3792C54.3013 54.4123 54.3144 54.4441 54.3378 54.4675C54.3612 54.4909 54.393 54.504 54.4261 54.504C54.4426 54.5042 54.459 54.5012 54.4743 54.495C54.4897 54.4888 54.5036 54.4796 54.5154 54.468C54.5271 54.4564 54.5365 54.4426 54.5428 54.4273C54.5492 54.4121 54.5525 54.3957 54.5525 54.3792V53.1452C54.5525 53.1287 54.5492 53.1123 54.5428 53.0971C54.5365 53.0818 54.5271 53.068 54.5154 53.0564C54.5036 53.0448 54.4897 53.0356 54.4743 53.0294C54.459 53.0233 54.4426 53.0202 54.4261 53.0204Z" fill="white"/>
</g>
<path opacity="0.6" d="M57.1025 52.9715V52.864C57.1023 52.8562 57.1001 52.8485 57.096 52.8419C57.0919 52.8352 57.0861 52.8297 57.0792 52.826C57.0722 52.8223 57.0645 52.8205 57.0566 52.8208C57.0488 52.8211 57.0412 52.8235 57.0346 52.8277L56.7186 53.0426C56.7127 53.0466 56.7079 53.0521 56.7046 53.0584C56.7013 53.0647 56.6996 53.0718 56.6996 53.0789C56.6996 53.0861 56.7013 53.0931 56.7046 53.0994C56.7079 53.1057 56.7127 53.1112 56.7186 53.1152L57.0346 53.3301C57.0412 53.3343 57.0488 53.3367 57.0566 53.337C57.0645 53.3373 57.0722 53.3355 57.0792 53.3318C57.0861 53.3281 57.0919 53.3226 57.096 53.316C57.1001 53.3093 57.1023 53.3016 57.1025 53.2938V53.2085C57.2209 53.2305 57.3306 53.2858 57.4185 53.368C57.5065 53.4502 57.5692 53.5558 57.5992 53.6725C57.6292 53.7891 57.6252 53.9118 57.5878 54.0263C57.5504 54.1407 57.481 54.2421 57.3879 54.3185C57.2948 54.3948 57.1819 54.443 57.0623 54.4574C56.9427 54.4717 56.8216 54.4516 56.7131 54.3993C56.6046 54.3471 56.5132 54.265 56.4498 54.1626C56.3864 54.0603 56.3536 53.9419 56.3552 53.8215C56.3552 53.7905 56.3429 53.7608 56.3209 53.7388C56.299 53.7169 56.2693 53.7046 56.2383 53.7046C56.2072 53.7046 56.1775 53.7169 56.1556 53.7388C56.1337 53.7608 56.1213 53.7905 56.1213 53.8215C56.1212 53.9863 56.1684 54.1478 56.2574 54.2865C56.3465 54.4252 56.4735 54.5354 56.6234 54.604C56.7733 54.6726 56.9398 54.6966 57.1029 54.6731C57.2661 54.6497 57.4191 54.5799 57.5437 54.472C57.6682 54.364 57.7592 54.2226 57.8056 54.0644C57.852 53.9062 57.852 53.738 57.8055 53.5799C57.759 53.4218 57.668 53.2803 57.5434 53.1724C57.4187 53.0646 57.2657 52.9948 57.1025 52.9715Z" fill="white"/>
<path opacity="0.6" d="M59.7885 52.9715V52.864C59.7887 52.8562 59.791 52.8485 59.7951 52.8419C59.7992 52.8352 59.805 52.8297 59.8119 52.826C59.8188 52.8223 59.8266 52.8205 59.8344 52.8208C59.8422 52.8211 59.8498 52.8235 59.8565 52.8277L60.1725 53.0426C60.1783 53.0466 60.1831 53.0521 60.1864 53.0584C60.1897 53.0647 60.1915 53.0718 60.1915 53.0789C60.1915 53.0861 60.1897 53.0931 60.1864 53.0994C60.1831 53.1057 60.1783 53.1112 60.1725 53.1152L59.8565 53.3301C59.8498 53.3343 59.8422 53.3367 59.8344 53.337C59.8266 53.3373 59.8188 53.3355 59.8119 53.3318C59.805 53.3281 59.7992 53.3226 59.7951 53.316C59.791 53.3093 59.7887 53.3016 59.7885 53.2938V53.2085C59.6701 53.2305 59.5605 53.2858 59.4725 53.368C59.3845 53.4502 59.3218 53.5558 59.2918 53.6725C59.2618 53.7891 59.2658 53.9118 59.3032 54.0263C59.3406 54.1407 59.41 54.2421 59.5031 54.3185C59.5962 54.3948 59.7092 54.443 59.8287 54.4574C59.9483 54.4717 60.0695 54.4516 60.178 54.3993C60.2865 54.3471 60.3778 54.265 60.4412 54.1626C60.5046 54.0603 60.5375 53.9419 60.5359 53.8215C60.5359 53.7905 60.5482 53.7608 60.5701 53.7388C60.592 53.7169 60.6218 53.7046 60.6528 53.7046C60.6839 53.7046 60.7138 53.7169 60.736 53.7387C60.7582 53.7606 60.7709 53.7904 60.7713 53.8215C60.7714 53.9863 60.7242 54.1476 60.6352 54.2863C60.5462 54.4249 60.4193 54.5351 60.2694 54.6037C60.1196 54.6722 59.9533 54.6963 59.7902 54.673C59.6271 54.6497 59.4741 54.58 59.3495 54.4722C59.2249 54.3644 59.1339 54.2231 59.0873 54.065C59.0407 53.907 59.0406 53.7389 59.0868 53.5808C59.1331 53.4226 59.2238 53.2811 59.3482 53.1731C59.4726 53.0651 59.6255 52.9951 59.7885 52.9715Z" fill="white"/>
<path opacity="0.6" d="M64.2677 54.2939L63.7258 53.7504L64.2677 53.2069C64.2935 53.1811 64.3079 53.1462 64.3079 53.1097C64.3079 53.0733 64.2935 53.0383 64.2677 53.0125C64.2552 52.9994 64.2401 52.9889 64.2234 52.9818C64.2067 52.9746 64.1887 52.9709 64.1705 52.9709C64.1524 52.9709 64.1344 52.9746 64.1177 52.9818C64.101 52.9889 64.0859 52.9994 64.0734 53.0125L63.5298 53.5545L62.9879 53.0125C62.9751 52.9997 62.96 52.9894 62.9433 52.9824C62.9265 52.9754 62.9086 52.9718 62.8905 52.9717C62.8724 52.9717 62.8544 52.9752 62.8376 52.982C62.8209 52.9889 62.8056 52.999 62.7928 53.0117C62.7799 53.0245 62.7697 53.0397 62.7627 53.0564C62.7557 53.0731 62.752 53.091 62.752 53.1091C62.7519 53.1273 62.7554 53.1452 62.7622 53.162C62.7691 53.1788 62.7792 53.194 62.792 53.2069L63.3355 53.7504L62.792 54.2939C62.7695 54.3206 62.7579 54.3546 62.7594 54.3894C62.7609 54.4242 62.7754 54.4572 62.8 54.4818C62.8246 54.5065 62.8576 54.5209 62.8924 54.5224C62.9272 54.5239 62.9613 54.5123 62.9879 54.4898L63.5314 53.9463L64.0749 54.4898C64.1007 54.5156 64.1357 54.5301 64.1721 54.5301C64.2085 54.5301 64.2435 54.5156 64.2693 54.4898C64.2949 54.4636 64.3091 54.4283 64.3089 54.3916C64.3086 54.3549 64.2938 54.3198 64.2677 54.2939Z" fill="white"/>
<g opacity="0.6">
<path d="M44.8765 54.4835C44.8956 54.4961 44.9177 54.5032 44.9405 54.5042C44.9634 54.5052 44.986 54.5 45.0061 54.4891C45.0262 54.4783 45.043 54.4622 45.0547 54.4425C45.0664 54.4229 45.0725 54.4005 45.0724 54.3776V53.1405C45.0722 53.1178 45.0659 53.0956 45.0541 53.0762C45.0423 53.0567 45.0255 53.0409 45.0054 53.0302C44.9854 53.0195 44.9628 53.0145 44.9402 53.0155C44.9175 53.0166 44.8955 53.0237 44.8765 53.0362L43.9538 53.6556C43.9362 53.6667 43.9217 53.6821 43.9116 53.7003C43.9015 53.7185 43.8962 53.739 43.8962 53.7599C43.8962 53.7807 43.9015 53.8012 43.9116 53.8194C43.9217 53.8377 43.9362 53.853 43.9538 53.8641L44.8765 54.4835Z" fill="white"/>
<path d="M43.5287 54.4819C43.5623 54.4819 43.5944 54.4686 43.6181 54.4449C43.6418 54.4212 43.6551 54.389 43.6551 54.3555V53.1231C43.6551 53.0896 43.6418 53.0574 43.6181 53.0337C43.5944 53.01 43.5623 52.9967 43.5287 52.9967C43.4952 52.9967 43.4631 53.01 43.4394 53.0337C43.4157 53.0574 43.4023 53.0896 43.4023 53.1231V54.3602C43.4036 54.3929 43.4174 54.4239 43.441 54.4466C43.4646 54.4693 43.496 54.4819 43.5287 54.4819Z" fill="white"/>
</g>
<g opacity="0.6">
<path d="M40.7716 53.4786C40.7397 53.4786 40.7092 53.466 40.6867 53.4435C40.6642 53.4209 40.6515 53.3904 40.6515 53.3585V53.0188H40.3007C40.2689 53.0188 40.2384 53.0062 40.2158 52.9837C40.1933 52.9612 40.1807 52.9306 40.1807 52.8988C40.1807 52.8669 40.1933 52.8364 40.2158 52.8139C40.2384 52.7913 40.2689 52.7787 40.3007 52.7787H40.7747C40.8066 52.7787 40.8371 52.7913 40.8597 52.8139C40.8822 52.8364 40.8948 52.8669 40.8948 52.8988V53.3585C40.8948 53.3746 40.8916 53.3905 40.8854 53.4052C40.8792 53.42 40.87 53.4334 40.8585 53.4446C40.8471 53.4558 40.8334 53.4646 40.8185 53.4704C40.8036 53.4763 40.7876 53.4791 40.7716 53.4786Z" fill="white"/>
<path d="M40.7653 54.7221H40.3071C40.2752 54.7221 40.2447 54.7095 40.2222 54.6869C40.1997 54.6644 40.187 54.6339 40.187 54.602C40.187 54.5702 40.1997 54.5396 40.2222 54.5171C40.2447 54.4946 40.2752 54.4819 40.3071 54.4819H40.6452V54.1312C40.6452 54.0993 40.6579 54.0688 40.6804 54.0463C40.7029 54.0238 40.7334 54.0111 40.7653 54.0111C40.7971 54.0111 40.8277 54.0238 40.8502 54.0463C40.8727 54.0688 40.8854 54.0993 40.8854 54.1312V54.6052C40.8845 54.6365 40.8715 54.6662 40.8491 54.6881C40.8267 54.7099 40.7966 54.7221 40.7653 54.7221Z" fill="white"/>
<path d="M38.9846 54.7221H38.5106C38.4947 54.7223 38.4789 54.7194 38.4641 54.7134C38.4494 54.7075 38.436 54.6987 38.4246 54.6875C38.4133 54.6763 38.4043 54.663 38.3982 54.6483C38.3921 54.6337 38.3889 54.6179 38.3889 54.602V54.1422C38.3923 54.1126 38.4065 54.0852 38.4288 54.0653C38.4511 54.0454 38.4799 54.0344 38.5098 54.0344C38.5397 54.0344 38.5685 54.0454 38.5908 54.0653C38.6131 54.0852 38.6273 54.1126 38.6307 54.1422V54.4819H38.9814C39.0133 54.4819 39.0438 54.4946 39.0663 54.5171C39.0888 54.5396 39.1015 54.5702 39.1015 54.602C39.1015 54.6339 39.0888 54.6644 39.0663 54.6869C39.0438 54.7095 39.0133 54.7221 38.9814 54.7221H38.9846Z" fill="white"/>
<path d="M38.5185 53.4913C38.4867 53.4913 38.4561 53.4786 38.4336 53.4561C38.4111 53.4336 38.3984 53.403 38.3984 53.3712V52.8972C38.3984 52.8653 38.4111 52.8348 38.4336 52.8123C38.4561 52.7898 38.4867 52.7771 38.5185 52.7771H38.972C39.0038 52.7771 39.0344 52.7898 39.0569 52.8123C39.0794 52.8348 39.0921 52.8653 39.0921 52.8972C39.0921 52.929 39.0794 52.9596 39.0569 52.9821C39.0344 53.0046 39.0038 53.0173 38.972 53.0173H38.6402V53.3696C38.6402 53.4019 38.6274 53.4328 38.6045 53.4556C38.5817 53.4784 38.5508 53.4913 38.5185 53.4913Z" fill="white"/>
</g>
<g opacity="0.6">
<path d="M36.1959 53.0031C36.0505 52.8562 35.8551 52.7696 35.6486 52.7605C35.4422 52.7513 35.2399 52.8202 35.082 52.9536C34.9242 53.0869 34.8223 53.2749 34.7969 53.4799C34.7714 53.685 34.8241 53.8922 34.9446 54.0601L34.5006 54.5025C34.4813 54.5219 34.4681 54.5466 34.4628 54.5735C34.4575 54.6004 34.4603 54.6282 34.4707 54.6536C34.4812 54.6789 34.4989 54.7005 34.5217 54.7158C34.5444 54.7311 34.5711 54.7393 34.5985 54.7395C34.6168 54.7395 34.6348 54.7358 34.6516 54.7288C34.6685 54.7217 34.6837 54.7114 34.6965 54.6984L35.1389 54.2544C35.3068 54.3749 35.514 54.4276 35.719 54.4021C35.9241 54.3766 36.112 54.2748 36.2454 54.117C36.3787 53.9591 36.4477 53.7568 36.4385 53.5503C36.4294 53.3439 36.3427 53.1485 36.1959 53.0031ZM36 53.9716C35.9236 54.0481 35.8262 54.1003 35.7201 54.1214C35.614 54.1426 35.5041 54.1318 35.4041 54.0904C35.3042 54.0491 35.2188 53.979 35.1587 53.8891C35.0986 53.7992 35.0665 53.6934 35.0665 53.5853C35.0665 53.4771 35.0986 53.3714 35.1587 53.2815C35.2188 53.1916 35.3042 53.1215 35.4041 53.0802C35.5041 53.0388 35.614 53.028 35.7201 53.0492C35.8262 53.0703 35.9236 53.1225 36 53.199C36.1024 53.3015 36.1599 53.4404 36.1599 53.5853C36.1599 53.7302 36.1024 53.8691 36 53.9716Z" fill="white"/>
<path d="M35.853 53.5071H35.695V53.3491C35.6946 53.3283 35.6862 53.3085 35.6715 53.2937C35.6567 53.279 35.6369 53.2705 35.616 53.2701C35.5951 53.2701 35.575 53.2785 35.5602 53.2933C35.5454 53.3081 35.537 53.3282 35.537 53.3491V53.5071H35.379C35.3581 53.5071 35.338 53.5155 35.3232 53.5303C35.3084 53.5451 35.3 53.5652 35.3 53.5861C35.3005 53.607 35.3089 53.6268 35.3236 53.6416C35.3384 53.6563 35.3582 53.6647 35.379 53.6651H35.537V53.8231C35.537 53.8441 35.5454 53.8642 35.5602 53.879C35.575 53.8938 35.5951 53.9021 35.616 53.9021C35.6369 53.9017 35.6567 53.8933 35.6715 53.8786C35.6862 53.8638 35.6946 53.844 35.695 53.8231V53.6651H35.853C35.874 53.6651 35.8941 53.6568 35.9089 53.642C35.9237 53.6272 35.932 53.6071 35.932 53.5861C35.932 53.5652 35.9237 53.5451 35.9089 53.5303C35.8941 53.5155 35.874 53.5071 35.853 53.5071Z" fill="white"/>
</g>
<path opacity="0.1" d="M33.5068 29.0201C39.0463 34.5691 53.2742 46.92 69.395 46.0067V29.0201H33.5068Z" fill="white"/>
<path opacity="0.1" d="M29.334 39.2191V55.6037H53.4511C52.5268 52.2936 50.6766 47.7621 47.09 44.5247C40.6373 38.6977 33.1497 38.7182 29.334 39.2191Z" fill="white"/>
<path d="M26.5232 45.4996L27.5423 44.9576C27.644 45.0066 27.7497 45.0468 27.8583 45.0777C28.1111 45.1583 29.146 44.9197 29.1776 44.8818C29.2092 44.8439 29.4604 43.9496 29.3862 43.7758C29.3119 43.602 27.4744 43.9938 27.4744 43.9938L27.3274 44.2277L26.054 44.8802L26.5232 45.4996Z" fill="#E4897B"/>
<path d="M26.2056 44.49H26.6906L26.8787 45.6213C26.8787 45.6213 26.0618 45.9799 26.065 45.9167C26.0681 45.8535 26.2056 44.49 26.2056 44.49Z" fill="#263238"/>
<path opacity="0.25" d="M26.2056 44.49H26.6906L26.8787 45.6213C26.8787 45.6213 26.0618 45.9799 26.065 45.9167C26.0681 45.8535 26.2056 44.49 26.2056 44.49Z" fill="white"/>
<path d="M19.7307 41.5623C18.8175 41.8783 18.5125 45.5281 19.1714 46.3196C19.8303 47.1112 22.4294 45.8456 22.4294 45.8456L19.7307 41.5623Z" fill="#263238"/>
<path opacity="0.3" d="M22.4294 45.8504C22.4294 45.8504 22.2887 45.9183 22.066 46.0084C21.592 46.2138 20.7151 46.5408 20.0278 46.5756C19.6612 46.5946 19.3468 46.5298 19.1714 46.3181C18.5125 45.5281 18.8175 41.8798 19.7307 41.5607L22.4294 45.8504Z" fill="white"/>
<path opacity="0.2" d="M22.0659 46.0115C21.5919 46.2169 20.715 46.5439 20.0277 46.5787C19.9131 46.4258 19.8406 46.2455 19.8176 46.0557C19.5885 44.3841 20.2742 42.6951 20.2742 42.6951C20.2742 42.6951 21.7104 44.7854 22.0659 46.0115Z" fill="black"/>
<path d="M27.7351 42.0504L27.0272 42.8262L24.9732 40.8417C24.7612 40.7951 24.5729 40.674 24.4424 40.5004C24.4 40.4339 24.3675 40.3615 24.346 40.2856C24.2069 39.8684 24.1358 39.1274 24.2133 39.0863C24.4888 39.0709 24.765 39.0959 25.0333 39.1606C25.1575 39.1694 25.2765 39.2139 25.3761 39.2886C25.4472 39.4213 25.6447 40.5336 25.6447 40.5336L27.7351 42.0504Z" fill="#E4897B"/>
<path opacity="0.2" d="M25.0284 39.159C24.9636 39.4245 24.7819 39.9901 24.3411 40.284C24.2021 39.8669 24.131 39.1258 24.2084 39.0848C24.4839 39.0693 24.7602 39.0943 25.0284 39.159Z" fill="black"/>
<path d="M26.8408 66.3272L27.9136 66.1787L28.0622 63.6285L26.9909 63.7771L26.8408 66.3272Z" fill="#EBB376"/>
<path opacity="0.2" d="M26.9907 63.7771L28.062 63.6301L27.9766 65.0885L26.907 65.1817L26.9907 63.7771Z" fill="black"/>
<path d="M26.8833 51.3345L26.6226 49.6961L20.6075 49.3358C20.6075 49.3358 19.9755 52.7486 20.459 53.6571C21.3375 55.2798 26.0648 54.4613 27.4473 54.6209C26.621 58.0021 26.7016 64.6097 26.7016 64.6097L28.6766 64.7677C28.6766 64.7677 30.1965 57.6466 30.5046 54.2623C30.7116 51.9728 28.8204 52.0297 26.8833 51.3345Z" fill="#263238"/>
<path d="M26.4695 64.7029L28.8442 64.8593L29.048 63.8418L26.4395 63.7217L26.4695 64.7029Z" fill="#407BFF"/>
<path opacity="0.2" d="M26.4695 64.7029L28.8442 64.8593L29.048 63.8418L26.4395 63.7217L26.4695 64.7029Z" fill="white"/>
<path d="M27.9942 66.0522L26.7823 65.9764C26.7723 65.9753 26.7622 65.9762 26.7526 65.979C26.743 65.9819 26.734 65.9866 26.7262 65.9929C26.7185 65.9992 26.712 66.007 26.7072 66.0159C26.7025 66.0247 26.6995 66.0344 26.6986 66.0443L26.5785 67.0002C26.5754 67.0505 26.5923 67.0998 26.6254 67.1377C26.6586 67.1756 26.7053 67.1988 26.7554 67.2025C27.1789 67.2214 27.3874 67.2104 27.9152 67.2388C28.3874 67.2884 28.8627 67.3037 29.3372 67.2846C29.789 67.2404 29.7337 66.7948 29.5378 66.7743C29.0344 66.6782 28.5643 66.454 28.1727 66.1233C28.1228 66.0803 28.06 66.0553 27.9942 66.0522Z" fill="#263238"/>
<path d="M29.3149 66.3177L30.3957 66.3967L31.0719 63.9335L29.9928 63.8545L29.3149 66.3177Z" fill="#EBB376"/>
<path d="M30.5459 66.4441C30.5473 66.4449 30.5489 66.4454 30.5506 66.4454C30.5523 66.4454 30.5539 66.4449 30.5553 66.4441C30.639 66.4913 30.7274 66.5295 30.8192 66.5578C30.8868 66.5839 30.9617 66.5839 31.0293 66.5578C31.0512 66.5451 31.0691 66.5265 31.0811 66.5042C31.0931 66.4819 31.0987 66.4567 31.0973 66.4314C31.0989 66.4152 31.0962 66.3987 31.0895 66.3838C31.0829 66.3688 31.0725 66.3559 31.0594 66.3461C30.9629 66.3076 30.8559 66.3048 30.7576 66.3382C30.8343 66.2857 30.8902 66.208 30.9156 66.1186C30.917 66.0972 30.9112 66.076 30.8992 66.0582C30.8872 66.0405 30.8696 66.0273 30.8492 66.0206C30.8326 66.0121 30.8142 66.0076 30.7955 66.0076C30.7768 66.0076 30.7584 66.0121 30.7418 66.0206C30.6106 66.0933 30.5601 66.3951 30.5553 66.4109H30.5364C30.5364 66.4109 30.5427 66.4409 30.5459 66.4441ZM30.6264 66.384H30.6027C30.628 66.2845 30.6817 66.1218 30.7607 66.0791C30.7692 66.074 30.7786 66.0707 30.7884 66.0693C30.7981 66.0679 30.8081 66.0686 30.8176 66.0712H30.8303C30.8634 66.0854 30.8682 66.1044 30.8666 66.1186C30.8571 66.2102 30.7323 66.3256 30.6264 66.384ZM30.6264 66.4393C30.7702 66.3967 30.9677 66.3572 31.0278 66.403C31.0342 66.4079 31.0391 66.4145 31.0422 66.422C31.0453 66.4295 31.0463 66.4376 31.0451 66.4457C31.0458 66.4615 31.0424 66.4772 31.0352 66.4914C31.028 66.5055 31.0173 66.5175 31.0041 66.5262C30.9456 66.561 30.8066 66.5262 30.6296 66.4393H30.6264Z" fill="#407BFF"/>
<path opacity="0.2" d="M29.9929 63.8545L31.072 63.9351L30.6849 65.3429L29.6184 65.2117L29.9929 63.8545Z" fill="black"/>
<path d="M31.4384 65.169L29.5424 64.6097C29.5424 64.6097 30.6784 58.2028 31.8287 55.9798C31.7433 55.9513 31.628 55.915 31.4874 55.8739C31.233 55.7965 30.8949 55.7017 30.4967 55.5911C27.7333 54.8248 22.1338 53.3791 22.1338 53.3791L24.6918 50.9917C24.6918 50.9917 34.8844 52.5464 35.0945 55.2308C35.1893 56.5312 31.4384 65.169 31.4384 65.169Z" fill="#263238"/>
<path d="M29.2913 64.6524L31.5807 65.2986L31.9915 64.3474L29.4651 63.6854L29.2913 64.6524Z" fill="#407BFF"/>
<path opacity="0.2" d="M29.2913 64.6524L31.5807 65.2986L31.9915 64.3474L29.4651 63.6854L29.2913 64.6524Z" fill="white"/>
<path d="M30.5017 66.2861L29.3325 65.9606C29.3229 65.9572 29.3126 65.9557 29.3024 65.9563C29.2922 65.9569 29.2822 65.9596 29.2731 65.9642C29.2639 65.9688 29.2558 65.9751 29.2492 65.9829C29.2425 65.9907 29.2376 65.9998 29.2345 66.0096L28.9185 66.9197C28.9057 66.9682 28.9122 67.0199 28.9367 67.0638C28.9611 67.1077 29.0016 67.1404 29.0497 67.1551C29.4605 67.2609 29.6611 67.2925 30.1762 67.4316C30.6289 67.5781 31.0914 67.6921 31.5603 67.7729C32.0122 67.825 32.0501 67.3779 31.8637 67.3162C31.3915 67.1172 30.9785 66.8 30.6644 66.3951C30.6231 66.3424 30.5661 66.3043 30.5017 66.2861Z" fill="#263238"/>
<path d="M28.0211 66.1818H28.0432C28.0432 66.1818 28.0669 66.1897 28.0701 66.1912V66.1991H28.0796C28.171 66.2277 28.2653 66.2463 28.3608 66.2544C28.4325 66.2673 28.5064 66.2526 28.5678 66.2134C28.5865 66.1964 28.6001 66.1745 28.6071 66.1503C28.6141 66.126 28.6141 66.1002 28.6073 66.0759C28.605 66.0597 28.5988 66.0443 28.5891 66.0311C28.5795 66.0178 28.5667 66.0072 28.552 66.0001C28.4485 65.9824 28.3422 66.002 28.2518 66.0554C28.3165 65.9891 28.3547 65.9014 28.3592 65.8089C28.3551 65.787 28.3439 65.7671 28.3273 65.7523C28.3108 65.7374 28.2898 65.7284 28.2676 65.7267C28.2467 65.7232 28.2253 65.7239 28.2046 65.7287C28.184 65.7336 28.1646 65.7426 28.1475 65.7552C28.0337 65.8515 28.0164 66.1581 28.0164 66.177L28.0211 66.1818ZM28.1364 66.1201L28.1143 66.1312C28.1087 66.0142 28.1408 65.8984 28.206 65.801C28.2132 65.794 28.222 65.7887 28.2315 65.7854C28.2411 65.7821 28.2512 65.781 28.2613 65.782H28.2739C28.3087 65.782 28.3166 65.8057 28.3181 65.8215C28.2941 65.9392 28.2299 66.0447 28.1364 66.1201ZM28.1522 66.1723C28.2834 66.1012 28.4682 66.0222 28.5362 66.0538C28.5438 66.0568 28.5505 66.062 28.5552 66.0688C28.56 66.0755 28.5627 66.0835 28.563 66.0917C28.567 66.1072 28.567 66.1236 28.5628 66.1391C28.5587 66.1546 28.5506 66.1687 28.5393 66.1802C28.4856 66.226 28.3434 66.2229 28.1522 66.1723Z" fill="#407BFF"/>
<path d="M25.1487 37.8129C25.194 38.0863 25.2769 38.3522 25.3951 38.6029C25.3291 38.6318 25.2576 38.6459 25.1855 38.6443C25.1135 38.6426 25.0427 38.6253 24.978 38.5934L25.1487 37.8129Z" fill="#DE5753"/>
<path d="M25.0854 37.707C25.076 37.7907 25.1234 37.865 25.1802 37.865C25.2371 37.865 25.2829 37.7986 25.2877 37.7149C25.2924 37.6311 25.2482 37.5569 25.1929 37.5569C25.1376 37.5569 25.0902 37.6201 25.0854 37.707Z" fill="#263238"/>
<path d="M24.9463 37.3895C24.9542 37.3941 24.9632 37.3965 24.9724 37.3965C24.9815 37.3965 24.9905 37.3941 24.9985 37.3895C25.0484 37.3515 25.1066 37.3257 25.1683 37.3142C25.2301 37.3027 25.2936 37.3057 25.354 37.3231C25.36 37.3254 25.3664 37.3265 25.3728 37.3263C25.3793 37.3261 25.3856 37.3247 25.3915 37.322C25.3973 37.3194 25.4026 37.3156 25.407 37.3109C25.4114 37.3062 25.4149 37.3007 25.4172 37.2947C25.4214 37.2823 25.4209 37.2688 25.4156 37.2568C25.4103 37.2447 25.4007 37.2352 25.3887 37.2299C25.3131 37.2065 25.233 37.2012 25.1551 37.2147C25.0771 37.2281 25.0034 37.2599 24.94 37.3073C24.9292 37.315 24.9219 37.3265 24.9195 37.3395C24.9172 37.3525 24.92 37.3659 24.9274 37.3769L24.9463 37.3895Z" fill="#263238"/>
<path d="M24.8894 39.1212C24.8647 39.1752 24.8373 39.2279 24.8073 39.2792C24.591 39.6619 24.2384 39.9491 23.8198 40.0834C23.4975 40.1917 23.1486 40.1914 22.8265 40.0827C22.5044 39.974 22.2267 39.7628 22.0359 39.4814C21.5272 38.7578 21.6646 38.0452 21.8005 36.8223C21.8282 36.5364 21.9285 36.2624 22.0919 36.0262C22.2553 35.7901 22.4764 35.5996 22.7341 35.4729C22.9919 35.3463 23.2777 35.2876 23.5645 35.3026C23.8513 35.3175 24.1296 35.4055 24.3728 35.5583C25.4788 36.2456 25.3366 38.0752 24.8894 39.1212Z" fill="#E4897B"/>
<path opacity="0.2" d="M24.0647 39.9901C23.9858 40.0295 23.9039 40.0628 23.8198 40.0897C23.5987 40.1632 23.364 40.1865 23.1327 40.1578C22.9015 40.1291 22.6796 40.0492 22.4832 39.9238C22.562 39.7872 22.6581 39.6613 22.7691 39.5493C23.2344 39.5688 23.6841 39.7219 24.0647 39.9901Z" fill="black"/>
<path d="M21.3804 41.5796C21.9855 42.1294 23.7646 41.9098 23.7646 41.9098C23.7646 41.9098 24.6905 41.657 24.4961 41.3679C23.951 41.2778 23.6872 41.0234 23.5782 40.6979C23.5185 40.4962 23.4997 40.2845 23.5229 40.0754C23.5319 39.9588 23.5472 39.8428 23.5687 39.7278L21.7359 38.3706C21.976 39.2665 21.9729 40.9302 21.3804 41.5796Z" fill="#E4897B"/>
<path d="M24.7189 36.4415C24.7189 36.4415 25.0617 37.598 23.8767 38.4291C23.8767 38.4291 23.3775 39.4972 23.0994 39.6283C22.8213 39.7595 22.194 39.6805 21.9823 39.6283C21.7706 39.5762 20.6757 38.6677 20.9917 36.5347C21.3077 34.4017 23.0994 35.0842 23.0994 35.0842C23.0994 35.0842 23.7124 34.5534 24.85 35.2122C25.7996 35.7542 25.6132 36.7843 24.7189 36.4415Z" fill="#2E353A"/>
<path d="M23.7154 37.8777C23.7194 37.9958 23.7499 38.1114 23.8046 38.2162C23.8593 38.3209 23.9368 38.412 24.0314 38.4828C24.2605 38.6298 24.4817 38.3106 24.5054 37.9393C24.5275 37.6107 24.4358 37.1288 24.1625 37.1493C23.8892 37.1699 23.6838 37.5364 23.7154 37.8777Z" fill="#E4897B"/>
<path d="M19.7307 41.5623C20.0387 42.3728 20.2642 43.2124 20.4038 44.0682C20.448 44.3273 20.4844 44.5817 20.5144 44.8281C20.5523 45.1441 20.5792 45.4443 20.6013 45.7319C20.6282 46.0953 20.6361 46.5219 20.6345 46.9469C20.6345 47.917 20.1794 49.8841 20.1794 49.8841C21.257 50.0785 24.7235 50.069 26.8755 49.7451C26.9197 47.5552 26.4189 43.6068 26.2672 42.9811C26.1746 42.5668 26.0478 42.1609 25.888 41.7677C25.76 41.4801 25.414 41.2716 24.9937 41.2336C24.7883 41.2163 24.5497 41.1973 24.3001 41.1862C24.2021 41.1862 24.1057 41.1862 24.0078 41.1783C23.203 41.1857 22.4025 41.2263 21.6062 41.3C21.4482 41.3111 21.3012 41.3284 21.1527 41.3458C20.3959 41.4311 19.7307 41.5623 19.7307 41.5623Z" fill="#263238"/>
<path opacity="0.3" d="M26.8755 49.7467C24.7235 50.0706 21.257 50.0801 20.1794 49.8857C20.1794 49.8857 20.6329 47.9186 20.6345 46.9485C20.6345 46.5251 20.6345 46.0969 20.6013 45.7335C20.5792 45.4459 20.5523 45.1441 20.5144 44.8297C20.4844 44.5832 20.448 44.3289 20.4038 44.0697C20.2643 43.2134 20.0388 42.3733 19.7307 41.5623C19.7307 41.5623 20.3959 41.4296 21.1527 41.3458C21.3012 41.3284 21.4545 41.3111 21.6062 41.3C22.4025 41.2252 23.203 41.1847 24.0078 41.1783C24.1057 41.1783 24.2021 41.1862 24.3001 41.1862C24.5497 41.1973 24.7883 41.2163 24.9937 41.2336C25.4108 41.2716 25.76 41.4801 25.888 41.7677C26.0478 42.1609 26.1746 42.5668 26.2672 42.9811C26.2681 42.9864 26.2681 42.9917 26.2672 42.9969C26.332 43.275 26.4552 44.1029 26.5737 45.141C26.7428 46.6072 26.9008 48.4732 26.8755 49.7467Z" fill="white"/>
<path opacity="0.2" d="M26.577 45.1425C25.2055 44.6685 25.166 42.5608 25.166 42.5608L26.272 42.9984C26.3321 43.2765 26.4585 44.1092 26.577 45.1425Z" fill="black"/>
<path d="M25.2386 41.2794C25.8563 41.4239 26.4232 41.7336 26.8786 42.1753L27.4427 41.5796C27.4427 41.5796 29.4272 43.068 29.3308 43.997C29.2344 44.9261 28.318 44.9008 26.2972 43.997C25.8367 43.6601 25.4674 43.2137 25.2228 42.6983C24.8388 41.8624 25.2386 41.2794 25.2386 41.2794Z" fill="#263238"/>
<path opacity="0.3" d="M29.334 43.997C29.2376 44.926 28.3212 44.9008 26.3004 43.997C25.8399 43.6601 25.4706 43.2137 25.226 42.6982C24.842 41.8624 25.2418 41.2762 25.2418 41.2762C25.859 41.4199 26.4255 41.7291 26.8802 42.1705L27.0967 41.9414L27.4443 41.5749C27.4443 41.5749 29.4256 43.068 29.334 43.997Z" fill="white"/>
<path opacity="0.2" d="M28.3386 43.444C28.2833 43.3713 26.8787 42.18 26.8787 42.18L27.0951 41.9509C27.5948 42.371 28.0158 42.8766 28.3386 43.444Z" fill="black"/>
<path d="M19.2646 54.1042H28.0431C28.2526 54.1042 28.4536 54.1875 28.6017 54.3356C28.7499 54.4838 28.8331 54.6847 28.8331 54.8942V55.6842H18.4746V54.8942C18.4746 54.6847 18.5578 54.4838 18.706 54.3356C18.8541 54.1875 19.0551 54.1042 19.2646 54.1042Z" fill="#407BFF"/>
<path opacity="0.3" d="M19.2646 54.1042H28.0431C28.2526 54.1042 28.4536 54.1875 28.6017 54.3356C28.7499 54.4838 28.8331 54.6847 28.8331 54.8942V55.6842H18.4746V54.8942C18.4746 54.6847 18.5578 54.4838 18.706 54.3356C18.8541 54.1875 19.0551 54.1042 19.2646 54.1042Z" fill="black"/>
<path d="M17.7494 48.075H20.7735C22.0458 48.075 23.0771 47.0436 23.0771 45.7713V45.0018C23.0771 43.7296 22.0458 42.6982 20.7735 42.6982H17.7494C16.4771 42.6982 15.4457 43.7296 15.4457 45.0018V45.7713C15.4457 47.0436 16.4771 48.075 17.7494 48.075Z" fill="#407BFF"/>
<g opacity="0.3">
<path d="M17.7494 48.075H20.7735C22.0458 48.075 23.0771 47.0436 23.0771 45.7713V45.0018C23.0771 43.7296 22.0458 42.6982 20.7735 42.6982H17.7494C16.4771 42.6982 15.4457 43.7296 15.4457 45.0018V45.7713C15.4457 47.0436 16.4771 48.075 17.7494 48.075Z" fill="black"/>
</g>
<path d="M18.8696 64.6398L22.7501 64.259V58.8064H24.2874V64.2574L28.1837 64.6398C28.3702 64.6585 28.543 64.7458 28.6688 64.8848C28.7946 65.0237 28.8644 65.2044 28.8647 65.3918V65.9749H18.187V65.3918C18.1873 65.2042 18.2573 65.0233 18.3834 64.8843C18.5095 64.7453 18.6828 64.6582 18.8696 64.6398Z" fill="#263238"/>
<path opacity="0.2" d="M18.8696 64.6398L22.7501 64.259V58.8064H24.2874V64.2574L28.1837 64.6398C28.3702 64.6585 28.543 64.7458 28.6688 64.8848C28.7946 65.0237 28.8644 65.2044 28.8647 65.3918V65.9749H18.187V65.3918C18.1873 65.2042 18.2573 65.0233 18.3834 64.8843C18.5095 64.7453 18.6828 64.6582 18.8696 64.6398Z" fill="white"/>
<path d="M28.4539 67.7018C29.0088 67.7018 29.4587 67.2519 29.4587 66.6969C29.4587 66.1419 29.0088 65.692 28.4539 65.692C27.8989 65.692 27.449 66.1419 27.449 66.6969C27.449 67.2519 27.8989 67.7018 28.4539 67.7018Z" fill="#263238"/>
<path d="M18.5979 67.7018C19.1529 67.7018 19.6028 67.2519 19.6028 66.6969C19.6028 66.1419 19.1529 65.692 18.5979 65.692C18.0429 65.692 17.593 66.1419 17.593 66.6969C17.593 67.2519 18.0429 67.7018 18.5979 67.7018Z" fill="#263238"/>
<path d="M23.9004 59.9788H23.1389C22.9658 59.9788 22.7998 59.91 22.6775 59.7876C22.5551 59.6653 22.4863 59.4993 22.4863 59.3262V55.1218H24.553V59.3246C24.5532 59.4105 24.5365 59.4955 24.5038 59.5748C24.4711 59.6542 24.423 59.7263 24.3624 59.7871C24.3018 59.8478 24.2298 59.896 24.1505 59.9289C24.0712 59.9618 23.9863 59.9788 23.9004 59.9788Z" fill="#263238"/>
<path opacity="0.3" d="M23.9004 59.9788H23.1389C22.9658 59.9788 22.7998 59.91 22.6775 59.7876C22.5551 59.6653 22.4863 59.4993 22.4863 59.3262V55.1218H24.553V59.3246C24.5532 59.4105 24.5365 59.4955 24.5038 59.5748C24.4711 59.6542 24.423 59.7263 24.3624 59.7871C24.3018 59.8478 24.2298 59.896 24.1505 59.9289C24.0712 59.9618 23.9863 59.9788 23.9004 59.9788Z" fill="white"/>
<path d="M19.8413 46.5977C19.8413 46.5977 19.549 53.8657 21.5793 55.1202H19.2615C19.2615 55.1202 17.4713 52.6427 17.9769 46.5977H19.8413Z" fill="#263238"/>
<path opacity="0.3" d="M19.8413 46.5977C19.8413 46.5977 19.549 53.8657 21.5793 55.1202H19.2615C19.2615 55.1202 17.4713 52.6427 17.9769 46.5977H19.8413Z" fill="white"/>
<path d="M28.9484 54.8911H18.3608C18.1854 54.8911 18.0432 55.0333 18.0432 55.2087V55.3604C18.0432 55.5358 18.1854 55.678 18.3608 55.678H28.9484C29.1238 55.678 29.266 55.5358 29.266 55.3604V55.2087C29.266 55.0333 29.1238 54.8911 28.9484 54.8911Z" fill="#263238"/>
<path opacity="0.6" d="M28.9484 54.8911H18.3608C18.1854 54.8911 18.0432 55.0333 18.0432 55.2087V55.3604C18.0432 55.5358 18.1854 55.678 18.3608 55.678H28.9484C29.1238 55.678 29.266 55.5358 29.266 55.3604V55.2087C29.266 55.0333 29.1238 54.8911 28.9484 54.8911Z" fill="white"/>
<path d="M19.8731 44.332H17.7796C17.167 44.332 16.6704 44.8286 16.6704 45.4412V46.2596C16.6704 46.8722 17.167 47.3688 17.7796 47.3688H19.8731C20.4856 47.3688 20.9822 46.8722 20.9822 46.2596V45.4412C20.9822 44.8286 20.4856 44.332 19.8731 44.332Z" fill="#263238"/>
<path opacity="0.2" d="M19.8731 44.332H17.7796C17.167 44.332 16.6704 44.8286 16.6704 45.4412V46.2596C16.6704 46.8722 17.167 47.3688 17.7796 47.3688H19.8731C20.4856 47.3688 20.9822 46.8722 20.9822 46.2596V45.4412C20.9822 44.8286 20.4856 44.332 19.8731 44.332Z" fill="white"/>
</g>
<defs>
<filter id="filter0_d_238_12888" x="0.370117" y="0.482178" width="87" height="87" filterUnits="userSpaceOnUse" color-interpolation-filters="sRGB">
<feFlood flood-opacity="0" result="BackgroundImageFix"/>
<feColorMatrix in="SourceAlpha" type="matrix" values="0 0 0 0 0 0 0 0 0 0 0 0 0 0 0 0 0 0 127 0" result="hardAlpha"/>
<feOffset dy="4"/>
<feGaussianBlur stdDeviation="2"/>
<feComposite in2="hardAlpha" operator="out"/>
<feColorMatrix type="matrix" values="0 0 0 0 0 0 0 0 0 0 0 0 0 0 0 0 0 0 0.25 0"/>
<feBlend mode="normal" in2="BackgroundImageFix" result="effect1_dropShadow_238_12888"/>
<feBlend mode="normal" in="SourceGraphic" in2="effect1_dropShadow_238_12888" result="shape"/>
</filter>
<clipPath id="clip0_238_12888">
<rect width="79" height="79" fill="white" transform="translate(4.37012 0.482178)"/>
</clipPath>
</defs>
</svg>
